<?xml version="1.0"?>
<svg xmlns:rdf="http://www.w3.org/1999/02/22-rdf-syntax-ns#" xmlns="http://www.w3.org/2000/svg" xmlns:cc="http://web.resource.org/cc/" xmlns:dc="http://purl.org/dc/elements/1.1/" xmlns:sodipodi="http://inkscape.sourceforge.net/DTD/sodipodi-0.dtd" xmlns:svg="http://www.w3.org/2000/svg" id="svg2" sodipodi:version="0.32" height="460pt" width="230pt" version="1.0" sodipodi:docname="Sodacan.svg" sodipodi:docbase="C:\Documents and Settings\Owner\Desktop">
  <sodipodi:namedview id="base" bordercolor="#666666" borderopacity="1.0" pagecolor="#ffffff"/>
  <path id="path1308" opacity=".98" d="m255.49 61.711c0 16.842-50.15 30.511-111.95 30.511-61.794 0-111.95-13.669-111.95-30.511 0.004-16.843 50.099-30.634 111.95-30.512 49.89 0.098 82.97 3.147 111.95 30.512z" sodipodi:nodetypes="csssc" stroke="#918f8c" stroke-width="2.8795" fill="#b9b9b9"/>
  <path id="path1310" opacity=".98" d="m254.04 61.454c1.04 24.462-43.72 30.732-109.85 30.732-66.128 0-117.37-1.412-117.37-25.099 0.003-23.686 53.671-42.91 119.8-42.91 60.58 0 99.47 15.764 107.42 37.277z" sodipodi:nodetypes="csssc" stroke="#918f8c" stroke-width="17.125" fill="none"/>
  <path id="path2189" opacity=".98" sodipodi:nodetypes="csssc" d="m44.409 63.29c-0.813-13.683 15.032-23.384 34.271-23.047 19.239 0.336 34.62 10.583 34.34 22.872-0.29 12.288-10.6 24.434-29.841 24.097-14.243-0.249-34.288-11.762-38.77-23.922z"/>
  <path id="path2187" opacity=".98" d="m137.65 60.713c-1.51 8.469 5.91 13.188 13.55 13.833 8.64 0.146 13.6-3.419 16.8-8.203-1.22-6.012 3.7-15.628-14.96-16.529-13.09 0.059-14.82 4.614-15.39 10.899zm-52.465-6.855c1.869-13.604 96.555-15.393 86.525 5.543-3.5 7.326 14.08 20.063-51.02 18.829-43.076-0.817-36.72-15.535-35.505-24.372zm25.235 13.366c0.74-5.03 2.19-10.17-2.72-14.32-18.265-5.303-41.037 6.355-4.77 5.366 14.52 14.584-35.192-1.343-9.566 12.934 5.629 1.038 11.296 0.4 17.056-3.98z" sodipodi:nodetypes="ccccccsssccccc" stroke="#918f8c" stroke-width="1.455" fill="#919596"/>
  <path id="path2192" d="m13.468 131.5c-9.336 10.42 6.589 363.36-2.595 377.72-10.876 17.01 34.739 59.92 71.247 59.92h123.06c18.87 0 78.97-54.46 69.63-74.49-7.98-17.12 12.22-346.98 3.24-372.43l-19.43-55.051c14.71 41.681-245.55 50.101-236.41 9.715l-8.742 54.616z" fill-rule="evenodd" sodipodi:nodetypes="csssssscs" stroke="#9d0000" stroke-width="2.8542" fill="#f57900"/>
  <path id="path2194" opacity=".98" d="m281.8 118.98c-62.91 33.55-158.04 57.46-272.82 13.77" sodipodi:nodetypes="cs" stroke="#9d0000" stroke-width=".57085" fill="none"/>
  <path id="text2252" d="m160.24 456.92c13.26 0.11 23.15 5.67 29.65 16.67 4.83 8.03 7.43 17.82 7.79 29.39 0.33 10.44-1.56 18.3-5.66 23.59-3.33 4.47-9.98 9.02-19.94 13.64-3.26 1.51-6.48 2.25-9.64 2.22-4.1-0.03-7.69-1.19-10.76-3.47-3.23-2.27-7.18-8.06-8.7-11.24-13.29 14.21-29.1 24.27-50.582 24.09-16.109-0.14-30.377-4.51-42.804-13.11-13.719-9.53-20.814-21.82-21.286-36.87-0.407-13 4.31-23.7 14.152-32.11 9.683-8.41 21.944-12.66 36.783-12.73 1.738 0.01 4.266 0.09 7.586 0.22s5.769 0.2 7.348 0.21c5.686 0.05 10.323 1.78 13.903 5.19 3.09 2.99 4.71 6.69 4.84 11.09 0.14 4.4-1.24 8.08-4.15 11.02-3.37 3.35-7.9 5-13.582 4.95-1.422-0.02-3.555-0.09-6.401-0.21-3.004-0.13-5.217-0.2-6.638-0.21-4.106-0.04-7.412 0.29-9.916 0.99-0.625 0.2-1.768 1.52-3.429 3.96-1.96 2.95-2.903 5.6-2.829 7.96 0.148 4.7 2.643 8.77 7.487 12.19 4.686 3.41 10.661 5.15 17.926 5.22 7.423 0.06 13.832-1.88 19.242-5.82 5.4-4.05 9.09-9.49 11.09-16.33 1.99-6.95 3.35-11.44 4.08-13.48 1.89-5 4.05-9.33 6.46-12.99 6.49-9.46 15.82-14.14 27.98-14.03m0.13 41.9c-0.72 2.45-7.42 4.52-8.99 9.63l-9.56 21.18c25.09 5.41 29.87-24.11 29.77-27.28-0.02-0.41-11.63-1.38-11.22-3.53m20.82-136.49c7.54 3.75 11.41 8.64 11.6 14.68 0.24 7.88-5.05 12.85-15.88 14.91-4.55 0.88-10.03 2.37-16.44 4.46 9.44 3.87 17.37 7.42 23.78 10.64 7.54 3.75 11.41 8.85 11.61 15.3 0.13 4.09-1.5 7.51-4.89 10.24-3.69 3.04-8.78 4.53-15.25 4.48-11.21-0.1-26.01 1.46-44.38 4.68-21.04 3.61-35.661 5.68-43.854 6.22-11.033 0.63-18.185 1.64-21.456 3.04-2.489 1.21-8.647 3.72-18.475 7.52-8.125 2.69-14.517 2.79-19.174 0.3-4.019-2.29-6.108-5.99-6.269-11.11-0.121-3.89 1.02-7.77 3.425-11.64 2.247-3.87 5.392-6.81 9.434-8.82 8.4-4.02 16.444-6.82 24.131-8.39 5.022-0.98 12.18-1.79 21.476-2.42 10.555-0.73 19.132-1.63 25.732-2.7 2.35-0.39 4.95-0.83 7.77-1.31-5.6-2.51-10.73-4.9-15.381-7.2-7.538-3.74-11.408-8.84-11.61-15.29-0.128-4.1 1.579-7.56 5.122-10.4 3.539-2.93 8.549-4.37 15.019-4.32 3.32 0.03 6.78-0.25 10.4-0.83-31.723-9.59-57.81-15.74-78.263-18.48-5.234-0.76-9.24-2.64-12.018-5.63-2.936-2.99-4.464-6.43-4.586-10.32-0.135-4.3 1.405-8.07 4.618-11.32 3.211-3.35 13.298-0.48 18.825-0.44 11.845 0.11 30.052 0.76 66.054 10.99 34.41 9.71 57.39 17.43 68.93 23.16m-4.99-106.33c5.21 0.05 5.65 1.32 9.37 4.11 3.88 3.11 3.35 0.94 3.5 5.85l0.38 12.29c0.08 2.45 0.36 6.35 0.84 11.67 0.48 5.22 0.76 9.17 0.85 11.83 0.3 9.52-0.06 15.91-1.06 19.18-2.43 7.96-8.39 11.8-17.87 11.51-5.22-0.15-9.69-1.72-13.41-4.72-3.73-3.1-5.6-7.11-5.59-12.02-0.03-0.92-0.03-3.28 0.01-7.06-3.93 0.58-8.34 0.85-13.23 0.8-3.64-0.03-8.7-0.28-15.18-0.74-7.12-0.47-12.11-0.77-14.95-0.9-4.43-0.14-20.917 0.18-49.471 0.96-0.08 2.46-0.092 4.6-0.034 6.45 0.163 5.22-0.688 4.14-4.537 7.28-3.546 2.74-10.644 3.8-15.698 3.75-5.054-0.04-8.093-0.19-11.812-2.99-4.048-3.2-5.693-3.15-5.857-8.37-0.067-2.15-0.004-5.17 0.19-9.05 0.033-3.99 0.013-7.17-0.061-9.52-0.061-1.95-0.073-4.86-0.037-8.75s0.025-6.75-0.033-8.6c-0.029-0.92 0.155-2.6 0.552-5.06 0.41-2.04 0.518-3.63 0.325-4.75-1.118-5.44 0.399-9.93 4.551-13.47 4.004-3.24 8.848-4.84 14.534-4.79 5.054 0.04 9.284 1.51 12.69 4.41 3.732 3.2 5.691 7.77 5.877 13.71 0.064 2.05-0.027 4.2-0.272 6.44l-0.208 0.92c27.448-0.78 43.941-1.05 49.471-0.8 2.69 0.02 6.96 0.32 12.82 0.88 5.7 0.46 10.05 0.7 13.05 0.72 5.84 0.05 11.11-0.51 15.81-1.7l-0.31-9.83c-0.15-4.91-0.09-4.5 3.6-7.53 3.55-2.74 4.91-0.14 9.96-0.1m24.53-61.66c0.06 1.95-0.25 4.66-0.93 8.13-0.52 3.47-0.75 6.08-0.7 7.82 0.26 8.29 1.22 13.52 2.86 15.68 2.47 3.3 3.76 6.69 3.87 10.17 0.13 4.09-1.5 7.56-4.88 10.39-3.39 2.74-6.28 3.34-12.44 3.29-2.52-0.03-6.4 0.39-10.98 0.45-4.57 0.06-9.61 0.43-11.98 0.41-9.16-0.08-24.57-0.67-46.23-1.78-21.831-1.21-38.035-1.86-48.617-1.95-4.738-0.04-9.156 0.02-13.256 0.19-6.156 0.05-11.103-1.63-14.842-5.04-3.412-3.1-5.189-6.9-5.331-11.4-0.131-4.2 1.257-7.77 4.165-10.71 3.211-3.35 7.736-5.05 13.576-5.1 4.258-0.17 8.756-0.24 13.494-0.19 10.739 0.09 26.625 0.68 47.661 1.79 21.66 1.1 36.92 1.7 45.76 1.77-0.39-2.56-0.64-5.33-0.73-8.29-0.06-1.74 0.26-4.35 0.94-7.82 0.68-3.48 0.99-6.19 0.93-8.13-0.17-5.22 1.68-9.35 5.53-12.39 3.39-2.73 7.69-4.08 12.9-4.03 5.05 0.04 9.44 1.46 13.16 4.26 3.89 3.1 5.91 7.26 6.07 12.48m-2.13-68.07c0.06 1.94-0.25 4.65-0.93 8.12-0.52 3.48-0.76 6.09-0.7 7.83 0.26 8.29 1.21 13.52 2.86 15.68 2.47 3.29 3.76 6.68 3.87 10.16 0.13 4.1-1.5 7.56-4.88 10.4-3.39 2.73-8.17 4.07-14.33 4.02-2.52-0.02-6.07 0-10.65 0.06-4.58 0.07-8.05 0.09-10.42 0.07-9.16-0.08-24.57-0.67-46.24-1.78-21.824-1.21-38.028-1.86-48.609-1.95-4.738-0.05-9.157 0.02-13.257 0.19-6.156 0.05-11.103-1.63-14.842-5.04-3.412-3.1-5.189-6.9-5.33-11.41-0.132-4.19 1.256-7.76 4.164-10.7 3.211-3.35 7.736-5.05 13.576-5.11 4.258-0.17 8.756-0.23 13.494-0.19 10.739 0.09 26.626 0.69 47.664 1.79 21.66 1.11 36.92 1.7 45.76 1.78-0.4-2.56-0.64-5.33-0.73-8.3-0.06-1.74 0.25-4.35 0.94-7.82 0.68-3.47 0.99-6.18 0.92-8.13-0.16-5.22 1.69-9.35 5.54-12.38 3.39-2.74 7.69-4.08 12.9-4.04 5.05 0.05 9.44 1.47 13.16 4.26 3.88 3.11 5.91 7.27 6.07 12.49" sodipodi:nodetypes="ccsccsccsccccsscscscsccscsccccccccsccscccscscccccscccccccscscccscccccccccscccccscccscscscssscccscsccccsccccccscscssscsccsccsccssscsccccscscssscsccsccsccssscscc" fill="#4e9a06"/>
  <text id="text2216" style="text-anchor:middle;text-align:center" xml:space="preserve" transform="matrix(.021723 -.99976 .99976 .021723 0 0)" line-height="100%" sodipodi:linespacing="100%" font-size="36.534px" font-style="italic" y="253.84514" x="-309.51526" font-family="Arial" fill="#4e9a06">
    <tspan id="tspan2218" sodipodi:role="line" x="-309.51527" y="253.84514">It's Awfully Good!</tspan>
  </text>
  <metadata>
    <rdf:RDF>
      <cc:Work>
        <dc:format>image/svg+xml</dc:format>
        <dc:type rdf:resource="http://purl.org/dc/dcmitype/StillImage"/>
        <cc:license rdf:resource="http://creativecommons.org/licenses/publicdomain/"/>
        <dc:publisher>
          <cc:Agent rdf:about="http://openclipart.org/">
            <dc:title>Openclipart</dc:title>
          </cc:Agent>
        </dc:publisher>
        <dc:title>Soda Can "Swill"</dc:title>
        <dc:date>2009-05-21T04:06:48</dc:date>
        <dc:description>Image of a soda can of a fictional soft drink called "Swill" with the tagline "It's Awfully Good!"</dc:description>
        <dc:source>http://openclipart.org/detail/26099/soda-can-swill-by-rfc1394</dc:source>
        <dc:creator>
          <cc:Agent>
            <dc:title>Rfc1394</dc:title>
          </cc:Agent>
        </dc:creator>
        <dc:subject>
          <rdf:Bag>
            <rdf:li>aluminum can</rdf:li>
            <rdf:li>beverage</rdf:li>
            <rdf:li>can</rdf:li>
            <rdf:li>clip art</rdf:li>
            <rdf:li>clipart</rdf:li>
            <rdf:li>drink</rdf:li>
            <rdf:li>food</rdf:li>
            <rdf:li>image</rdf:li>
            <rdf:li>media</rdf:li>
            <rdf:li>png</rdf:li>
            <rdf:li>public domain</rdf:li>
            <rdf:li>soda</rdf:li>
            <rdf:li>soft drink</rdf:li>
            <rdf:li>svg</rdf:li>
          </rdf:Bag>
        </dc:subject>
      </cc:Work>
      <cc:License rdf:about="http://creativecommons.org/licenses/publicdomain/">
        <cc:permits rdf:resource="http://creativecommons.org/ns#Reproduction"/>
        <cc:permits rdf:resource="http://creativecommons.org/ns#Distribution"/>
        <cc:permits rdf:resource="http://creativecommons.org/ns#DerivativeWorks"/>
      </cc:License>
    </rdf:RDF>
  </metadata>
</svg>
