<?xml version="1.0" encoding="UTF-8" standalone="no"?>
<!-- Created with Inkscape (http://www.inkscape.org/) -->

<svg
   xmlns:dc="http://purl.org/dc/elements/1.1/"
   xmlns:cc="http://creativecommons.org/ns#"
   xmlns:rdf="http://www.w3.org/1999/02/22-rdf-syntax-ns#"
   xmlns:svg="http://www.w3.org/2000/svg"
   xmlns="http://www.w3.org/2000/svg"
   xmlns:sodipodi="http://sodipodi.sourceforge.net/DTD/sodipodi-0.dtd"
   xmlns:inkscape="http://www.inkscape.org/namespaces/inkscape"
   width="173.03125"
   height="325.3035"
   id="svg2"
   version="1.1"
   inkscape:version="0.48.4 r9939"
   sodipodi:docname="sodacan.svg"
   inkscape:export-filename="/home/chaunce/Documents/runeman.org/clipart/sodacan.png"
   inkscape:export-xdpi="55.330761"
   inkscape:export-ydpi="55.330761">
  <title
     id="title4254">Soda Can</title>
  <defs
     id="defs4">
    <filter
       inkscape:collect="always"
       id="filter3793"
       x="-0.051137254"
       width="1.1022745"
       y="-0.78240001"
       height="2.5648"
       color-interpolation-filters="sRGB">
      <feGaussianBlur
         inkscape:collect="always"
         stdDeviation="3.26"
         id="feGaussianBlur3795" />
    </filter>
    <filter
       inkscape:collect="always"
       id="filter3863"
       color-interpolation-filters="sRGB">
      <feGaussianBlur
         inkscape:collect="always"
         stdDeviation="0.40789153"
         id="feGaussianBlur3865" />
    </filter>
    <filter
       id="filter3971"
       inkscape:label="Drop Shadow"
       color-interpolation-filters="sRGB">
      <feFlood
         id="feFlood3973"
         flood-opacity="0.8"
         flood-color="rgb(0,0,0)"
         result="flood" />
      <feComposite
         id="feComposite3975"
         in2="SourceGraphic"
         in="flood"
         operator="in"
         result="composite1" />
      <feGaussianBlur
         id="feGaussianBlur3977"
         stdDeviation="1"
         result="blur" />
      <feOffset
         id="feOffset3979"
         dx="2"
         dy="2"
         result="offset" />
      <feComposite
         id="feComposite3981"
         in2="offset"
         in="SourceGraphic"
         operator="over"
         result="composite2" />
    </filter>
    <filter
       id="filter4061"
       inkscape:menu-tooltip="In and out glow with a possible offset and colorizable flood"
       inkscape:menu="Shadows and Glows"
       inkscape:label="Cutout Glow"
       color-interpolation-filters="sRGB">
      <feOffset
         id="feOffset4063"
         dy="3"
         dx="3" />
      <feGaussianBlur
         id="feGaussianBlur4065"
         result="result8"
         stdDeviation="3" />
      <feFlood
         id="feFlood4067"
         flood-color="rgb(0,0,0)"
         flood-opacity="1"
         in="result8"
         result="result10" />
      <feComposite
         id="feComposite4069"
         in2="SourceGraphic"
         operator="in"
         in="result10"
         result="result9" />
      <feBlend
         id="feBlend4071"
         in2="result9"
         mode="normal"
         in="result8" />
    </filter>
    <filter
       inkscape:collect="always"
       id="filter4090"
       x="-3.5760341"
       width="8.1520681"
       y="-0.012040404"
       height="1.0240808"
       color-interpolation-filters="sRGB">
      <feGaussianBlur
         inkscape:collect="always"
         stdDeviation="1.0535891"
         id="feGaussianBlur4092" />
    </filter>
    <filter
       inkscape:collect="always"
       id="filter4111"
       x="-0.012068572"
       width="1.0241371"
       y="-2.1119905"
       height="5.2239809"
       color-interpolation-filters="sRGB">
      <feGaussianBlur
         inkscape:collect="always"
         stdDeviation="0.622254"
         id="feGaussianBlur4113" />
    </filter>
    <filter
       inkscape:collect="always"
       id="filter4377">
      <feGaussianBlur
         inkscape:collect="always"
         stdDeviation="0.6125"
         id="feGaussianBlur4379" />
    </filter>
  </defs>
  <sodipodi:namedview
     id="base"
     pagecolor="#ffffff"
     bordercolor="#666666"
     borderopacity="1.0"
     inkscape:pageopacity="0.0"
     inkscape:pageshadow="2"
     inkscape:zoom="1"
     inkscape:cx="188.86152"
     inkscape:cy="126.34484"
     inkscape:document-units="px"
     inkscape:current-layer="layer1"
     showgrid="false"
     inkscape:window-width="1366"
     inkscape:window-height="717"
     inkscape:window-x="-3"
     inkscape:window-y="28"
     inkscape:window-maximized="1"
     fit-margin-top="0"
     fit-margin-left="0"
     fit-margin-right="0"
     fit-margin-bottom="0"
     showborder="false">
    <inkscape:grid
       type="xygrid"
       id="grid2985"
       empspacing="5"
       visible="true"
       enabled="true"
       snapvisiblegridlinesonly="true"
       originx="-117.09376px"
       originy="-449.875px" />
  </sodipodi:namedview>
  <metadata
     id="metadata7">
    <rdf:RDF>
      <cc:Work
         rdf:about="">
        <dc:format>image/svg+xml</dc:format>
        <dc:type
           rdf:resource="http://purl.org/dc/dcmitype/StillImage" />
        <dc:title>Soda Can</dc:title>
        <dc:date>2014-01-08</dc:date>
        <dc:creator>
          <cc:Agent>
            <dc:title>Algot Runeman</dc:title>
          </cc:Agent>
        </dc:creator>
        <dc:rights>
          <cc:Agent>
            <dc:title>Algot Runeman</dc:title>
          </cc:Agent>
        </dc:rights>
        <dc:publisher>
          <cc:Agent>
            <dc:title>runeman.org</dc:title>
          </cc:Agent>
        </dc:publisher>
        <dc:identifier>sodacan.svg</dc:identifier>
        <cc:license
           rdf:resource="http://creativecommons.org/licenses/publicdomain/" />
        <dc:language>en-US</dc:language>
        <dc:subject>
          <rdf:Bag>
            <rdf:li>can</rdf:li>
            <rdf:li>soda</rdf:li>
            <rdf:li>soft drink</rdf:li>
            <rdf:li>fake</rdf:li>
          </rdf:Bag>
        </dc:subject>
        <dc:description>Aluminum Soda Can similar to
Dr. Pepper®</dc:description>
      </cc:Work>
      <cc:License
         rdf:about="http://creativecommons.org/licenses/publicdomain/">
        <cc:permits
           rdf:resource="http://creativecommons.org/ns#Reproduction" />
        <cc:permits
           rdf:resource="http://creativecommons.org/ns#Distribution" />
        <cc:permits
           rdf:resource="http://creativecommons.org/ns#DerivativeWorks" />
      </cc:License>
    </rdf:RDF>
  </metadata>
  <g
     inkscape:label="Layer 1"
     inkscape:groupmode="layer"
     id="layer1"
     transform="translate(-117.09376,-277.18367)">
    <path
       style="fill:#cccccc;stroke:none;filter:url(#filter4061)"
       d="m 229.15625,264.1875 c -4.4751,0.0888 -10.57195,1.7843 -19.15625,5.9375 l -20.0625,22.3125 30.0625,0 20.0625,-22.3125 c -2.09942,-3.50026 -5.15255,-6.05167 -10.90625,-5.9375 z m -2.78125,3.78125 c 2.08917,-0.016 4.03125,0.42501 5.40625,1.65625 1.57142,1.40712 1.57142,4.56163 0,5.96875 -4.71425,4.22139 -17.47992,5.51551 -20.03125,0 -1.20271,-2.60002 3.7839,-4.89179 6.6875,-5.96875 2.3098,-0.85673 5.25143,-1.63567 7.9375,-1.65625 z"
       id="path2991"
       inkscape:connector-curvature="0"
       transform="matrix(0.9833749,0,0,0.55014769,3.0743973,132.69869)" />
    <path
       style="fill:#f9f9f9;stroke:#000000;stroke-width:0.25;stroke-linecap:butt;stroke-linejoin:miter;stroke-opacity:1"
       d="m 140,292.36218 0,20 0,10 c 0,0 -20,15.85786 -20,30 0,70 0,160 0,230 0,9.42809 20.0334,10.93241 20,20 0,0 129.95735,1.44612 130,0 0.21894,-7.42319 20,-10.57191 20,-20 0,-70 0,-160 0,-230 0,-14.14214 -20,-30 -20,-30 l 0,-10 0,-20 z"
       id="path2987"
       inkscape:connector-curvature="0"
       sodipodi:nodetypes="cccsssssscccc" />
    <g
       id="g3913"
       transform="translate(6,-2)">
      <g
         transform="matrix(0.98401478,0.1780868,-0.1780868,0.98401478,248.861,33.016177)"
         id="g3895">
        <path
           inkscape:transform-center-y="-22.450549"
           inkscape:transform-center-x="0.0927015"
           sodipodi:nodetypes="ccsccc"
           inkscape:connector-curvature="0"
           id="path3897"
           d="m 52.011054,504.50986 8.243052,0.33853 c -4.287783,-1.48315 -6.874553,-12.27624 -8.147134,-22.94363 -1.272581,-10.6674 -1.230973,-21.20909 -0.262001,-22.18944 l -3.28448,0.36553 c 0.552348,23.80662 3.429194,46.39538 3.450563,44.42901 z"
           style="opacity:0.48117155;fill:#ccff00;stroke:none" />
        <path
           transform="matrix(1.0014554,0,0,0.91383549,2.9236179,121.3456)"
           sodipodi:nodetypes="sssssssss"
           inkscape:connector-curvature="0"
           id="path3899"
           d="m 58.002907,417.36218 c -4.078967,1.77907 -4.641391,2.20118 -11.005814,0 -2.371447,-0.82018 -6.095099,2.8224 -6.997093,5 -1.913417,4.6194 -1.913417,10.3806 0,15 0.901994,2.1776 2.822395,4.09801 5,5 4.619398,1.91342 10.380602,1.91342 15,0 2.177605,-0.90199 4.098006,-2.8224 5,-5 1.913417,-4.6194 1.811966,-10.33987 0,-15 -2.401994,-6.1776 -6.997093,-5 -6.997093,-5 z"
           style="fill:#ff0000;stroke:#800000;stroke-width:1px;stroke-linecap:butt;stroke-linejoin:miter;stroke-opacity:1;filter:url(#filter3863)" />
      </g>
      <g
         id="g3907"
         transform="matrix(0.98401478,0.1780868,-0.1780868,0.98401478,249.861,44.016177)">
        <path
           style="opacity:0.48117155;fill:#ccff00;stroke:none"
           d="m 52.011054,504.50986 8.243052,0.33853 c -4.287783,-1.48315 -6.874553,-12.27624 -8.147134,-22.94363 -1.272581,-10.6674 -1.230973,-21.20909 -0.262001,-22.18944 l -3.28448,0.36553 c 0.552348,23.80662 3.429194,46.39538 3.450563,44.42901 z"
           id="path3909"
           inkscape:connector-curvature="0"
           sodipodi:nodetypes="ccsccc"
           inkscape:transform-center-x="0.0927015"
           inkscape:transform-center-y="-22.450549" />
        <path
           style="fill:#ff0000;stroke:#800000;stroke-width:1px;stroke-linecap:butt;stroke-linejoin:miter;stroke-opacity:1;filter:url(#filter3863)"
           d="m 58.002907,417.36218 c -4.078967,1.77907 -4.641391,2.20118 -11.005814,0 -2.371447,-0.82018 -6.095099,2.8224 -6.997093,5 -1.913417,4.6194 -1.913417,10.3806 0,15 0.901994,2.1776 2.822395,4.09801 5,5 4.619398,1.91342 10.380602,1.91342 15,0 2.177605,-0.90199 4.098006,-2.8224 5,-5 1.913417,-4.6194 1.811966,-10.33987 0,-15 -2.401994,-6.1776 -6.997093,-5 -6.997093,-5 z"
           id="path3911"
           inkscape:connector-curvature="0"
           sodipodi:nodetypes="sssssssss"
           transform="matrix(1.0014554,0,0,0.91383549,2.9236179,121.3456)" />
      </g>
      <g
         transform="translate(119,42)"
         id="g3883">
        <path
           inkscape:transform-center-y="-22.450549"
           inkscape:transform-center-x="0.0927015"
           sodipodi:nodetypes="ccsccc"
           inkscape:connector-curvature="0"
           id="path3885"
           d="m 52.011054,504.50986 8.243052,0.33853 c -4.287783,-1.48315 -6.874553,-12.27624 -8.147134,-22.94363 -1.272581,-10.6674 -1.230973,-21.20909 -0.262001,-22.18944 l -3.28448,0.36553 c 0.552348,23.80662 3.429194,46.39538 3.450563,44.42901 z"
           style="opacity:0.48117155;fill:#ccff00;stroke:none" />
        <path
           transform="matrix(1.0014554,0,0,0.91383549,2.9236179,121.3456)"
           sodipodi:nodetypes="sssssssss"
           inkscape:connector-curvature="0"
           id="path3887"
           d="m 58.002907,417.36218 c -4.078967,1.77907 -4.641391,2.20118 -11.005814,0 -2.371447,-0.82018 -6.095099,2.8224 -6.997093,5 -1.913417,4.6194 -1.913417,10.3806 0,15 0.901994,2.1776 2.822395,4.09801 5,5 4.619398,1.91342 10.380602,1.91342 15,0 2.177605,-0.90199 4.098006,-2.8224 5,-5 1.913417,-4.6194 1.811966,-10.33987 0,-15 -2.401994,-6.1776 -6.997093,-5 -6.997093,-5 z"
           style="fill:#ff0000;stroke:#800000;stroke-width:1px;stroke-linecap:butt;stroke-linejoin:miter;stroke-opacity:1;filter:url(#filter3863)" />
      </g>
      <g
         transform="translate(100,38)"
         id="g3879">
        <path
           style="opacity:0.48117155;fill:#ccff00;stroke:none"
           d="m 52.011054,504.50986 8.243052,0.33853 c -4.287783,-1.48315 -6.874553,-12.27624 -8.147134,-22.94363 -1.272581,-10.6674 -1.230973,-21.20909 -0.262001,-22.18944 l -3.28448,0.36553 c 0.552348,23.80662 3.429194,46.39538 3.450563,44.42901 z"
           id="path3877"
           inkscape:connector-curvature="0"
           sodipodi:nodetypes="ccsccc"
           inkscape:transform-center-x="0.0927015"
           inkscape:transform-center-y="-22.450549" />
        <path
           style="fill:#ff0000;stroke:#800000;stroke-width:1px;stroke-linecap:butt;stroke-linejoin:miter;stroke-opacity:1;filter:url(#filter3863)"
           d="m 58.002907,417.36218 c -4.078967,1.77907 -4.641391,2.20118 -11.005814,0 -2.371447,-0.82018 -6.095099,2.8224 -6.997093,5 -1.913417,4.6194 -1.913417,10.3806 0,15 0.901994,2.1776 2.822395,4.09801 5,5 4.619398,1.91342 10.380602,1.91342 15,0 2.177605,-0.90199 4.098006,-2.8224 5,-5 1.913417,-4.6194 1.811966,-10.33987 0,-15 -2.401994,-6.1776 -6.997093,-5 -6.997093,-5 z"
           id="path3853"
           inkscape:connector-curvature="0"
           sodipodi:nodetypes="sssssssss"
           transform="matrix(1.0014554,0,0,0.91383549,2.9236179,121.3456)" />
      </g>
      <g
         id="g3901"
         transform="matrix(0.99016381,-0.13991293,0.13991293,0.99016381,105.43236,50.411915)">
        <path
           style="opacity:0.48117155;fill:#ccff00;stroke:none"
           d="m 52.011054,504.50986 8.243052,0.33853 c -4.287783,-1.48315 -6.874553,-12.27624 -8.147134,-22.94363 -1.272581,-10.6674 -1.230973,-21.20909 -0.262001,-22.18944 l -3.28448,0.36553 c 0.552348,23.80662 3.429194,46.39538 3.450563,44.42901 z"
           id="path3903"
           inkscape:connector-curvature="0"
           sodipodi:nodetypes="ccsccc"
           inkscape:transform-center-x="0.0927015"
           inkscape:transform-center-y="-22.450549" />
        <path
           style="fill:#ff0000;stroke:#800000;stroke-width:1px;stroke-linecap:butt;stroke-linejoin:miter;stroke-opacity:1;filter:url(#filter3863)"
           d="m 58.002907,417.36218 c -4.078967,1.77907 -4.641391,2.20118 -11.005814,0 -2.371447,-0.82018 -6.095099,2.8224 -6.997093,5 -1.913417,4.6194 -1.913417,10.3806 0,15 0.901994,2.1776 2.822395,4.09801 5,5 4.619398,1.91342 10.380602,1.91342 15,0 2.177605,-0.90199 4.098006,-2.8224 5,-5 1.913417,-4.6194 1.811966,-10.33987 0,-15 -2.401994,-6.1776 -6.997093,-5 -6.997093,-5 z"
           id="path3905"
           inkscape:connector-curvature="0"
           sodipodi:nodetypes="sssssssss"
           transform="matrix(1.0014554,0,0,0.91383549,2.9236179,121.3456)" />
      </g>
      <g
         id="g3889"
         transform="matrix(0.98401478,0.1780868,-0.1780868,0.98401478,231.861,35.016177)">
        <path
           style="opacity:0.48117155;fill:#ccff00;stroke:none"
           d="m 52.011054,504.50986 8.243052,0.33853 c -4.287783,-1.48315 -6.874553,-12.27624 -8.147134,-22.94363 -1.272581,-10.6674 -1.230973,-21.20909 -0.262001,-22.18944 l -3.28448,0.36553 c 0.552348,23.80662 3.429194,46.39538 3.450563,44.42901 z"
           id="path3891"
           inkscape:connector-curvature="0"
           sodipodi:nodetypes="ccsccc"
           inkscape:transform-center-x="0.0927015"
           inkscape:transform-center-y="-22.450549" />
        <path
           style="fill:#ff0000;stroke:#800000;stroke-width:1px;stroke-linecap:butt;stroke-linejoin:miter;stroke-opacity:1;filter:url(#filter3863)"
           d="m 58.002907,417.36218 c -4.078967,1.77907 -4.641391,2.20118 -11.005814,0 -2.371447,-0.82018 -6.095099,2.8224 -6.997093,5 -1.913417,4.6194 -1.913417,10.3806 0,15 0.901994,2.1776 2.822395,4.09801 5,5 4.619398,1.91342 10.380602,1.91342 15,0 2.177605,-0.90199 4.098006,-2.8224 5,-5 1.913417,-4.6194 1.811966,-10.33987 0,-15 -2.401994,-6.1776 -6.997093,-5 -6.997093,-5 z"
           id="path3893"
           inkscape:connector-curvature="0"
           sodipodi:nodetypes="sssssssss"
           transform="matrix(1.0014554,0,0,0.91383549,2.9236179,121.3456)" />
      </g>
    </g>
    <path
       sodipodi:nodetypes="ccccc"
       inkscape:connector-curvature="0"
       id="path4082"
       d="m 139.87414,294.22987 c -4.53612,4.84414 -5.03836,4.88192 0,9.26462 l 130.41945,0 c 4.40476,-4.66025 3.36447,-4.52783 0,-9.26462 z"
       style="fill:#808080;stroke:#f9f9f9;stroke-width:0.73538983px;stroke-linecap:butt;stroke-linejoin:miter;stroke-opacity:1" />
    <path
       style="fill:#999999;stroke:#cccccc;stroke-width:0.73538983px;stroke-linecap:butt;stroke-linejoin:miter;stroke-opacity:1"
       d="m 139.87414,292.22987 c -4.53612,4.84414 -5.03836,4.88192 0,9.26462 l 130.41945,0 c 4.40476,-4.66025 3.36447,-4.52783 0,-9.26462 z"
       id="path2989"
       inkscape:connector-curvature="0"
       sodipodi:nodetypes="ccccc" />
    <path
       style="fill:#ffffff;stroke:none;filter:url(#filter3793)"
       d="m 128,342.36218 153,0 0,10 -153,0 z"
       id="path2995"
       inkscape:connector-curvature="0"
       transform="matrix(1.0652246,0,0,1,-12.838433,0)" />
    <path
       sodipodi:type="arc"
       style="color:#000000;fill:#800000;fill-opacity:1;fill-rule:nonzero;stroke:#ff0000;stroke-width:1;stroke-linecap:round;stroke-linejoin:round;stroke-miterlimit:4;stroke-opacity:1;stroke-dasharray:none;stroke-dashoffset:0;marker:none;visibility:visible;display:inline;overflow:visible;enable-background:accumulate"
       id="path3825"
       sodipodi:cx="-83"
       sodipodi:cy="218.86218"
       sodipodi:rx="105.5"
       sodipodi:ry="70"
       d="m 22.5,218.86218 c 0,38.65994 -47.233959,70 -105.5,70 -58.26604,0 -105.5,-31.34006 -105.5,-70 0,-38.65993 47.23396,-70 105.5,-70 58.266041,0 105.5,31.34007 105.5,70 z"
       transform="matrix(0.75577974,-0.18198501,0.20053425,0.83281429,225.3485,263.73587)" />
    <g
       transform="matrix(0.9722125,-0.23410009,0.23410009,0.9722125,0,0)"
       style="font-size:30.82787132px;font-style:normal;font-variant:normal;font-weight:bold;font-stretch:normal;text-align:start;line-height:125%;letter-spacing:0.51379788px;word-spacing:0px;text-anchor:start;fill:#ffffff;fill-opacity:1;stroke:#ff0000;stroke-width:0.85632974;font-family:Georgia;-inkscape-font-specification:Georgia Bold"
       id="text3805">
      <path
         d="m 92.136956,460.39398 c 1.304544,0.853 2.35823,1.99199 3.161061,3.41696 0.802785,1.41496 1.204189,3.15103 1.204214,5.20822 -2.5e-5,1.80633 -0.361288,3.38184 -1.083792,4.72654 -0.712516,1.33467 -1.660834,2.4285 -2.844955,3.28148 -1.204233,0.85299 -2.574025,1.49022 -4.10938,1.91169 -1.525352,0.41144 -3.125951,0.61716 -4.801802,0.61716 l -10.76266,0 0,-1.17411 c 0.321122,-0.01 0.722526,-0.0401 1.204214,-0.0903 0.481683,-0.0502 0.802806,-0.11039 0.963371,-0.18064 0.36126,-0.15052 0.612138,-0.35122 0.752633,-0.6021 0.140488,-0.26091 0.210734,-0.572 0.210738,-0.93327 l 0,-15.14299 c -4e-6,-0.34117 -0.06523,-0.64724 -0.195685,-0.91821 -0.13046,-0.28096 -0.386356,-0.50675 -0.767686,-0.67737 -0.381337,-0.17058 -0.787759,-0.28598 -1.219267,-0.34621 -0.421476,-0.0602 -0.747617,-0.10033 -0.978423,-0.12042 l 0,-1.17411 11.364767,0 c 1.214235,2e-5 2.513781,0.15556 3.898642,0.46663 1.384828,0.31111 2.719497,0.88813 4.00401,1.73106 m -3.070745,15.30857 c 0.491703,-0.80281 0.847949,-1.75614 1.06874,-2.86001 0.230789,-1.11389 0.346193,-2.39337 0.346211,-3.83843 -1.8e-5,-1.41494 -0.150545,-2.70445 -0.45158,-3.86854 -0.301071,-1.16406 -0.742616,-2.15753 -1.324635,-2.98043 -0.582053,-0.82286 -1.309598,-1.46009 -2.182637,-1.91169 -0.863034,-0.45156 -1.846474,-0.67735 -2.950324,-0.67737 -0.35124,2e-5 -0.752644,0.0101 -1.204214,0.0301 -0.441555,0.0101 -0.772713,0.0201 -0.993476,0.0301 l 0,16.21173 c -9e-6,0.36127 0.04515,0.68239 0.135474,0.96337 0.100342,0.27095 0.265921,0.51179 0.496738,0.72253 0.230798,0.21074 0.51178,0.37632 0.84295,0.49674 0.341182,0.11039 0.782727,0.16558 1.324635,0.16558 1.133954,0 2.10736,-0.21074 2.920218,-0.63222 0.812829,-0.42147 1.470128,-1.03863 1.9719,-1.85147"
         style=""
         id="path4127" />
      <path
         d="m 113.95028,467.37842 c -1e-5,0.76268 -0.23584,1.43503 -0.70747,2.01706 -0.47167,0.57201 -1.09384,0.85801 -1.86653,0.858 -0.73258,10e-6 -1.35476,-0.18564 -1.86653,-0.55695 -0.50177,-0.37129 -0.75265,-0.9182 -0.75264,-1.64074 -1e-5,-0.35122 0.0251,-0.62217 0.0753,-0.81285 0.0502,-0.20068 0.0953,-0.38633 0.13547,-0.55694 -0.46163,0.0201 -0.94833,0.18064 -1.46011,0.48168 -0.5118,0.30107 -0.96338,0.70247 -1.35474,1.20422 l 0,8.26391 c -1e-5,0.35123 0.0552,0.64225 0.16558,0.87306 0.11038,0.23081 0.29603,0.41144 0.55695,0.54189 0.22076,0.11039 0.57701,0.20572 1.06874,0.286 0.50174,0.0702 0.86301,0.11039 1.08379,0.12043 l 0,1.09884 -10.070237,0 0,-1.09884 c 0.250877,-0.0201 0.501755,-0.0452 0.752634,-0.0753 0.260911,-0.0401 0.481683,-0.0903 0.662313,-0.15052 0.32113,-0.11039 0.5419,-0.28099 0.66232,-0.5118 0.12042,-0.2308 0.18063,-0.53185 0.18063,-0.90316 l 0,-8.76065 c 0,-0.36125 -0.0853,-0.68238 -0.25589,-0.96337 -0.1706,-0.29101 -0.37632,-0.52181 -0.61716,-0.69242 -0.18064,-0.12041 -0.411443,-0.22076 -0.692424,-0.30106 -0.270949,-0.0803 -0.572002,-0.13546 -0.90316,-0.16558 l 0,-1.09884 7.180124,-0.39137 0.22579,0.22579 0,2.18264 0.0602,0 c 0.69241,-0.8028 1.42498,-1.42999 2.19769,-1.88159 0.78273,-0.4616 1.59557,-0.69241 2.43853,-0.69242 0.93326,10e-6 1.68087,0.29103 2.24285,0.87305 0.57199,0.57202 0.85799,1.31462 0.858,2.2278"
         style=""
         id="path4129" />
    </g>
    <g
       transform="matrix(0.9722125,-0.23410009,0.23410009,0.9722125,0,0)"
       style="font-size:30.82787132px;font-style:normal;font-variant:normal;font-weight:bold;font-stretch:normal;text-align:start;line-height:125%;letter-spacing:0.51379788px;word-spacing:0px;text-anchor:start;fill:#ffffff;fill-opacity:1;stroke:#ff0000;stroke-width:0.85632974;font-family:Georgia;-inkscape-font-specification:Georgia Bold"
       id="text3809">
      <path
         d="m 68.175484,483.91474 c 0.742581,0.69243 1.309564,1.52033 1.700951,2.48369 0.391352,0.96338 0.587036,2.00703 0.587055,3.13095 -1.9e-5,1.11391 -0.195703,2.16759 -0.587055,3.16106 -0.381351,0.98345 -0.943317,1.8264 -1.685899,2.52885 -0.792789,0.75264 -1.741107,1.32965 -2.844955,1.73106 -1.093839,0.4014 -2.348228,0.60211 -3.763168,0.60211 -1.224292,0 -2.353241,-0.17562 -3.386851,-0.52685 -1.023587,-0.35123 -1.931764,-0.87807 -2.724533,-1.58053 -0.762672,-0.67235 -1.364778,-1.50024 -1.806321,-2.48369 -0.441546,-0.99347 -0.662318,-2.10235 -0.662317,-3.32664 -1e-6,-1.2042 0.190666,-2.27294 0.572001,-3.20622 0.391368,-0.94329 0.973404,-1.78122 1.74611,-2.51379 0.742594,-0.70245 1.655789,-1.24434 2.739586,-1.62569 1.093821,-0.39136 2.313086,-0.58704 3.657799,-0.58706 1.404905,2e-5 2.639223,0.1957 3.702958,0.58706 1.073742,0.38135 1.991954,0.92324 2.754639,1.62569 M 64.322,494.34624 c 0.22076,-0.56197 0.381321,-1.24435 0.481685,-2.04717 0.110373,-0.8028 0.165566,-1.73606 0.16558,-2.79979 -1.4e-5,-0.70245 -0.05019,-1.50526 -0.150527,-2.40843 -0.100364,-0.90315 -0.250891,-1.61564 -0.45158,-2.13748 -0.240855,-0.6322 -0.577031,-1.12894 -1.008529,-1.49021 -0.421486,-0.36125 -0.958364,-0.54189 -1.610636,-0.5419 -0.712502,10e-6 -1.284503,0.1957 -1.716005,0.58705 -0.421482,0.39139 -0.747623,0.89816 -0.978423,1.52032 -0.210745,0.57202 -0.356254,1.24437 -0.436528,2.01706 -0.08029,0.76268 -0.120428,1.56047 -0.120421,2.39338 -7e-6,1.09383 0.03512,2.00201 0.105368,2.72453 0.07024,0.7125 0.240836,1.43001 0.511791,2.15253 0.230801,0.62218 0.561959,1.1139 0.993477,1.47516 0.431501,0.36127 0.978414,0.5419 1.640741,0.5419 0.602096,0 1.118904,-0.16558 1.550425,-0.49674 0.431498,-0.34119 0.772692,-0.83793 1.023582,-1.49021"
         style=""
         id="path4116" />
      <path
         d="m 91.283341,489.74012 c -1.9e-5,2.11741 -0.707494,3.93377 -2.122427,5.44907 -1.414967,1.5153 -3.206233,2.27295 -5.373804,2.27295 -0.963381,0 -1.74612,-0.10035 -2.348216,-0.30105 -0.602116,-0.19067 -1.098854,-0.4265 -1.490215,-0.70748 l -0.120421,0 0,4.2298 c -8e-6,0.35123 0.07525,0.6573 0.22579,0.91821 0.160553,0.26091 0.381326,0.45158 0.662317,0.57201 0.270939,0.11038 0.652273,0.21073 1.144003,0.30105 0.501746,0.0903 0.918203,0.1455 1.249372,0.16558 l 0,1.1139 -10.868029,0 0,-1.1139 c 0.250878,-0.0201 0.566983,-0.0602 0.948319,-0.12042 0.381332,-0.0502 0.667333,-0.10538 0.858002,-0.16558 0.321121,-0.11039 0.536876,-0.30106 0.647265,-0.572 0.120418,-0.26092 0.180629,-0.56197 0.180632,-0.90316 l 0,-15.39889 c -0.03011,-0.33114 -0.110389,-0.62216 -0.240843,-0.87305 -0.120424,-0.25087 -0.316108,-0.47164 -0.587054,-0.66232 -0.200704,-0.13044 -0.466635,-0.23581 -0.797792,-0.31611 -0.331159,-0.0903 -0.6573,-0.15051 -0.978423,-0.18063 l 0,-1.09884 7.330651,-0.39137 0.22579,0.19568 0,1.67085 0.120421,0.0301 c 0.662309,-0.67233 1.394872,-1.19416 2.19769,-1.56547 0.812833,-0.37129 1.615642,-0.55694 2.408428,-0.55695 2.077254,10e-6 3.717993,0.73759 4.922223,2.21274 1.204195,1.46514 1.806302,3.3969 1.806321,5.79528 m -5.403909,0.0602 c -1.4e-5,-0.75263 -0.05521,-1.47014 -0.16558,-2.15253 -0.1104,-0.69241 -0.306084,-1.30957 -0.587054,-1.85148 -0.270961,-0.54189 -0.632225,-0.97339 -1.083792,-1.29453 -0.441557,-0.32111 -0.983452,-0.48167 -1.625689,-0.48169 -0.652292,2e-5 -1.174117,0.11542 -1.565478,0.34622 -0.391378,0.22078 -0.732571,0.5118 -1.023581,0.87305 l 0,8.53487 c 0.0602,0.2007 0.175606,0.46161 0.346211,0.78273 0.170589,0.31109 0.341186,0.56197 0.511791,0.75264 0.250869,0.27095 0.536869,0.47165 0.858002,0.6021 0.321114,0.13046 0.672343,0.19569 1.053687,0.19569 0.993465,0 1.786238,-0.53186 2.378322,-1.59558 0.602094,-1.07376 0.903147,-2.64425 0.903161,-4.71149"
         style=""
         id="path4118" />
      <path
         d="m 112.08814,489.74012 c -2e-5,2.11741 -0.70749,3.93377 -2.12243,5.44907 -1.41496,1.5153 -3.20623,2.27295 -5.3738,2.27295 -0.96338,0 -1.74612,-0.10035 -2.34822,-0.30105 -0.60211,-0.19067 -1.09885,-0.4265 -1.49021,-0.70748 l -0.12042,0 0,4.2298 c -1e-5,0.35123 0.0752,0.6573 0.22579,0.91821 0.16055,0.26091 0.38132,0.45158 0.66232,0.57201 0.27093,0.11038 0.65227,0.21073 1.144,0.30105 0.50174,0.0903 0.9182,0.1455 1.24937,0.16558 l 0,1.1139 -10.868029,0 0,-1.1139 c 0.250878,-0.0201 0.566983,-0.0602 0.948319,-0.12042 0.381332,-0.0502 0.667333,-0.10538 0.858002,-0.16558 0.321121,-0.11039 0.536876,-0.30106 0.647265,-0.572 0.120418,-0.26092 0.180629,-0.56197 0.180632,-0.90316 l 0,-15.39889 c -0.03011,-0.33114 -0.110389,-0.62216 -0.240843,-0.87305 -0.120424,-0.25087 -0.316108,-0.47164 -0.587054,-0.66232 -0.200704,-0.13044 -0.466634,-0.23581 -0.797792,-0.31611 -0.331159,-0.0903 -0.6573,-0.15051 -0.978423,-0.18063 l 0,-1.09884 7.330653,-0.39137 0.22579,0.19568 0,1.67085 0.12042,0.0301 c 0.66231,-0.67233 1.39487,-1.19416 2.19769,-1.56547 0.81283,-0.37129 1.61564,-0.55694 2.40843,-0.55695 2.07725,10e-6 3.71799,0.73759 4.92222,2.21274 1.2042,1.46514 1.8063,3.3969 1.80632,5.79528 m -5.40391,0.0602 c -1e-5,-0.75263 -0.0552,-1.47014 -0.16558,-2.15253 -0.1104,-0.69241 -0.30608,-1.30957 -0.58705,-1.85148 -0.27096,-0.54189 -0.63223,-0.97339 -1.08379,-1.29453 -0.44156,-0.32111 -0.98346,-0.48167 -1.62569,-0.48169 -0.65229,2e-5 -1.17412,0.11542 -1.56548,0.34622 -0.39138,0.22078 -0.73257,0.5118 -1.02358,0.87305 l 0,8.53487 c 0.0602,0.2007 0.1756,0.46161 0.34621,0.78273 0.17059,0.31109 0.34118,0.56197 0.51179,0.75264 0.25087,0.27095 0.53687,0.47165 0.858,0.6021 0.32112,0.13046 0.67234,0.19569 1.05369,0.19569 0.99346,0 1.78624,-0.53186 2.37832,-1.59558 0.60209,-1.07376 0.90315,-2.64425 0.90316,-4.71149"
         style=""
         id="path4120" />
      <path
         d="m 130.74041,493.47318 c -0.35125,0.57201 -0.77774,1.1139 -1.27948,1.62569 -0.49174,0.50176 -1.0537,0.93327 -1.6859,1.29453 -0.67237,0.38133 -1.35475,0.66734 -2.04716,0.858 -0.6824,0.2007 -1.47016,0.30106 -2.36327,0.30106 -1.48521,0 -2.7697,-0.21074 -3.85349,-0.63222 -1.07376,-0.42147 -1.96186,-0.98845 -2.66432,-1.70095 -0.70246,-0.71249 -1.2293,-1.55042 -1.58053,-2.51379 -0.34119,-0.97341 -0.51179,-2.02709 -0.51179,-3.16107 0,-1.02357 0.18565,-2.00199 0.55695,-2.93527 0.38133,-0.94329 0.91821,-1.78122 1.61063,-2.51379 0.68239,-0.71248 1.54039,-1.2895 2.57401,-1.73106 1.04365,-0.44153 2.20772,-0.6623 3.49222,-0.66232 1.40491,2e-5 2.55894,0.17061 3.46212,0.51179 0.90314,0.34121 1.65076,0.81286 2.24284,1.41495 0.57199,0.57202 0.98845,1.24939 1.24938,2.03212 0.26089,0.77271 0.39135,1.58555 0.39136,2.43853 l 0,0.97842 -10.1756,0 c -10e-6,2.05721 0.39638,3.62268 1.18916,4.69644 0.79277,1.07375 2.05217,1.61063 3.77822,1.61063 0.94329,0 1.79126,-0.25589 2.5439,-0.76769 0.75262,-0.52182 1.39487,-1.17912 1.92674,-1.9719 l 1.14401,0.8279 m -5.75012,-5.72001 c -1e-5,-0.6021 -0.0301,-1.21926 -0.0903,-1.85148 -0.0602,-0.6322 -0.16559,-1.14901 -0.31611,-1.55043 -0.1706,-0.47163 -0.40643,-0.82788 -0.70747,-1.06874 -0.29103,-0.24083 -0.66233,-0.36125 -1.1139,-0.36126 -0.77271,10e-6 -1.38987,0.39138 -1.85148,1.17411 -0.46162,0.78275 -0.7125,2.02208 -0.75263,3.71801 l 4.83191,-0.0602"
         style=""
         id="path4122" />
      <path
         d="m 147.70677,484.89316 c -1e-5,0.76268 -0.23584,1.43503 -0.70747,2.01706 -0.47167,0.57201 -1.09384,0.85801 -1.86653,0.858 -0.73258,1e-5 -1.35475,-0.18564 -1.86653,-0.55695 -0.50177,-0.37129 -0.75265,-0.9182 -0.75264,-1.64074 -1e-5,-0.35122 0.0251,-0.62217 0.0753,-0.81285 0.0502,-0.20068 0.0953,-0.38633 0.13547,-0.55694 -0.46163,0.0201 -0.94833,0.18064 -1.46011,0.48168 -0.5118,0.30107 -0.96338,0.70247 -1.35474,1.20422 l 0,8.26391 c -1e-5,0.35123 0.0552,0.64225 0.16558,0.87306 0.11038,0.23081 0.29603,0.41144 0.55695,0.54189 0.22076,0.11039 0.57701,0.20572 1.06874,0.286 0.50174,0.0702 0.86301,0.11039 1.08379,0.12043 l 0,1.09884 -10.07024,0 0,-1.09884 c 0.25088,-0.0201 0.50176,-0.0452 0.75264,-0.0753 0.26091,-0.0401 0.48168,-0.0903 0.66232,-0.15052 0.32112,-0.11039 0.54189,-0.28099 0.66231,-0.5118 0.12042,-0.2308 0.18063,-0.53185 0.18063,-0.90316 l 0,-8.76065 c 0,-0.36125 -0.0853,-0.68238 -0.25589,-0.96337 -0.1706,-0.29101 -0.37632,-0.52181 -0.61716,-0.69242 -0.18063,-0.12041 -0.41144,-0.22076 -0.69242,-0.30106 -0.27095,-0.0803 -0.57201,-0.13546 -0.90316,-0.16558 l 0,-1.09884 7.18012,-0.39137 0.22579,0.22579 0,2.18264 0.0602,0 c 0.69242,-0.8028 1.42498,-1.42999 2.19769,-1.88159 0.78273,-0.4616 1.59557,-0.69241 2.43853,-0.69242 0.93326,1e-5 1.68087,0.29103 2.24285,0.87305 0.57199,0.57202 0.85799,1.31462 0.858,2.2278"
         style=""
         id="path4124" />
    </g>
    <path
       inkscape:connector-curvature="0"
       style="fill:#ffffff;stroke:#ff0000;stroke-width:0.85632974;stroke-linecap:butt;stroke-linejoin:miter;stroke-opacity:1"
       d="m 159.4614,431.13664 c -4.07926,1.0862 -8.01425,2.85117 -11.56336,4.90379 -23.98647,13.87258 4.42814,39.42326 4.42814,39.42326 -11.99454,-20.39026 -10.32992,-26.80446 -3.27546,-34.63618 l 8.06253,33.48349 c 1.014,2.30136 -1.22537,4.11039 -3.64065,5.91374 l 14.3352,-3.45178 c -3.64086,-0.0316 -5.13254,-1.55086 -5.90748,-3.61464 l -4.61074,-19.14829 c 0,0 13.81783,-0.74511 19.12228,-4.60448 1.87541,-1.3645 3.27312,-3.6488 3.63439,-5.93975 0.51091,-3.23991 -0.36942,-6.89591 -2.2991,-9.54813 -1.3645,-1.87541 -3.6488,-3.27313 -5.93976,-3.63439 -4.04988,-0.63865 -8.26674,-0.23283 -12.34599,0.85336 z m 4.2573,3.04861 c 3.11098,-0.78777 6.17398,-1.02781 8.04696,0.15427 2.77373,1.75057 4.01725,6.77639 2.30537,9.57415 -3.08138,5.03597 -18.25068,5.13778 -18.25068,5.13778 l -2.59354,-10.77092 c 0,0 5.30691,-2.7824 10.49189,-4.09528 z"
       id="path3813" />
    <path
       style="fill:#ffffff;stroke:#ff0000;stroke-width:0.78941631px;stroke-linecap:butt;stroke-linejoin:miter;stroke-opacity:1"
       d="m 236.69619,412.41823 c 0,0 22.25043,8.96814 28.51669,22.79511 9.20037,20.30126 7.20323,40.38906 -7.1346,55.4036 -8.79274,9.20774 -40.06788,20.31139 -40.06788,20.31139 -1.30282,1.67108 31.24664,-7.5229 43.38517,-18.45424 17.76682,-15.9999 19.34667,-38.53639 7.38411,-61.41898 -7.77917,-14.8804 -32.08349,-18.63688 -32.08349,-18.63688 z"
       id="path3821"
       inkscape:connector-curvature="0"
       sodipodi:nodetypes="csscssc" />
    <g
       transform="matrix(0.9722125,-0.23410009,0.23410009,0.9722125,0,0)"
       style="font-size:10.27595711px;font-style:normal;font-variant:normal;font-weight:normal;font-stretch:normal;text-align:start;line-height:125%;letter-spacing:0.51379788px;word-spacing:0px;text-anchor:start;fill:#ffffff;fill-opacity:1;stroke:#ff0000;stroke-width:0.21408243;font-family:Georgia;-inkscape-font-specification:Georgia"
       id="text3830">
      <path
         d="m 110.64744,503.53672 -0.13548,2.09734 -5.91068,0 0,-0.35624 c 0.10035,-0.007 0.23415,-0.0201 0.4014,-0.0401 0.16725,-0.0234 0.27597,-0.0468 0.32614,-0.0702 0.10704,-0.0502 0.18064,-0.1154 0.22078,-0.19568 0.0435,-0.0803 0.0652,-0.18231 0.0652,-0.30607 l 0,-5.11791 c -1e-5,-0.11038 -0.0184,-0.20739 -0.0552,-0.29102 -0.0368,-0.087 -0.11373,-0.15721 -0.23081,-0.21074 -0.0903,-0.0435 -0.21241,-0.082 -0.36628,-0.1154 -0.15052,-0.0335 -0.27095,-0.0535 -0.36126,-0.0602 l 0,-0.35625 5.50928,0 0,1.716 -0.37632,0 c -0.0669,-0.25421 -0.21242,-0.52349 -0.43653,-0.80782 -0.22077,-0.28767 -0.43151,-0.44489 -0.63221,-0.47165 -0.1037,-0.0134 -0.22747,-0.0234 -0.3713,-0.0301 -0.14384,-0.007 -0.30775,-0.01 -0.49172,-0.01 l -1.11891,0 0,2.8299 0.8028,0 c 0.25757,0 0.44489,-0.0234 0.56197,-0.0702 0.12042,-0.0502 0.22579,-0.13212 0.31611,-0.24586 0.0736,-0.097 0.13547,-0.22578 0.18565,-0.38635 0.0535,-0.1639 0.0886,-0.31777 0.10537,-0.46161 l 0.37631,0 0,2.78474 -0.37631,0 c -0.0134,-0.16056 -0.0502,-0.32948 -0.11039,-0.50677 -0.0569,-0.18063 -0.11708,-0.31109 -0.18063,-0.39137 -0.1037,-0.13046 -0.22245,-0.21575 -0.35625,-0.2559 -0.13046,-0.0401 -0.3044,-0.0602 -0.52183,-0.0602 l -0.8028,0 0,2.13748 c -1e-5,0.21408 0.0151,0.38301 0.0451,0.50677 0.0301,0.12377 0.0886,0.21743 0.17562,0.28099 0.087,0.0636 0.20571,0.10537 0.35624,0.12544 0.15053,0.0167 0.36461,0.0251 0.64225,0.0251 0.11038,0 0.25589,0 0.43653,0 0.18063,0 0.33283,-0.007 0.4566,-0.0201 0.1271,-0.0134 0.25756,-0.0368 0.39137,-0.0702 0.13714,-0.0368 0.23414,-0.0853 0.29101,-0.14551 0.15387,-0.16056 0.31443,-0.40308 0.48169,-0.72755 0.17059,-0.32781 0.2793,-0.56865 0.32614,-0.72253 l 0.36127,0"
         style=""
         id="path4219" />
      <path
         d="m 115.03479,503.21058 c 0.13714,0.12043 0.24251,0.25925 0.3161,0.41646 0.0736,0.15722 0.11039,0.34956 0.11039,0.57702 0,0.45827 -0.17227,0.83292 -0.51681,1.12393 -0.3412,0.29102 -0.78441,0.43653 -1.32965,0.43653 -0.28768,0 -0.55361,-0.0519 -0.79779,-0.15554 -0.24085,-0.1037 -0.41312,-0.19903 -0.51681,-0.286 l -0.10035,0.32614 -0.37632,0 -0.0502,-1.72103 0.34621,0 c 0.0268,0.13046 0.0836,0.28266 0.17059,0.4566 0.087,0.17395 0.19234,0.33116 0.31611,0.47165 0.13045,0.14718 0.286,0.27095 0.46663,0.3713 0.18398,0.10035 0.3897,0.15053 0.61716,0.15053 0.32112,0 0.56866,-0.0719 0.7426,-0.21576 0.17394,-0.14718 0.26091,-0.35624 0.26091,-0.62719 0,-0.14049 -0.0284,-0.26091 -0.0853,-0.36127 -0.0535,-0.10369 -0.13381,-0.19401 -0.24085,-0.27094 -0.11039,-0.0769 -0.24586,-0.14551 -0.40642,-0.20572 -0.16056,-0.0636 -0.33952,-0.12544 -0.53688,-0.18565 -0.15722,-0.0468 -0.33283,-0.11039 -0.52684,-0.19067 -0.19067,-0.0836 -0.35458,-0.18063 -0.49172,-0.29102 -0.14719,-0.11707 -0.26761,-0.26091 -0.36127,-0.43151 -0.0937,-0.17059 -0.14049,-0.37129 -0.14049,-0.60211 0,-0.40474 0.15053,-0.74761 0.45158,-1.02859 0.30105,-0.28098 0.70413,-0.42147 1.20923,-0.42148 0.19401,10e-6 0.39137,0.0251 0.59207,0.0753 0.20405,0.0502 0.36963,0.1104 0.49674,0.18064 l 0.11541,-0.26092 0.36126,0 0.0753,1.59057 -0.34621,0 c -0.0703,-0.35457 -0.22245,-0.64224 -0.45659,-0.86302 -0.23082,-0.22411 -0.51347,-0.33617 -0.84797,-0.33618 -0.2743,10e-6 -0.49005,0.0686 -0.64727,0.20572 -0.15722,0.13715 -0.23582,0.30273 -0.23582,0.49674 0,0.15053 0.0251,0.27597 0.0753,0.37632 0.0535,0.10035 0.13213,0.18565 0.23583,0.25589 0.10035,0.0669 0.22578,0.13046 0.37631,0.19067 0.15387,0.0569 0.34287,0.1221 0.56699,0.19568 0.22077,0.0702 0.42816,0.15221 0.62217,0.24587 0.19736,0.0937 0.35959,0.19735 0.48671,0.31108"
         style=""
         id="path4221" />
      <path
         d="m 119.77337,505.41831 c -0.21743,0.0903 -0.42315,0.16558 -0.61716,0.22579 -0.19402,0.0636 -0.43151,0.0953 -0.71249,0.0953 -0.41479,0 -0.70748,-0.10369 -0.87808,-0.31109 -0.16725,-0.21073 -0.25088,-0.50677 -0.25087,-0.8881 l 0,-3.35173 -0.89313,0 0,-0.48169 0.9132,0 0,-1.54039 0.91319,0 0,1.54039 1.41997,0 0,0.48169 -1.40993,0 0,2.76467 c -1e-5,0.2074 0.007,0.38134 0.0201,0.52183 0.0167,0.13715 0.0535,0.25757 0.11038,0.36126 0.0535,0.097 0.1338,0.1706 0.24085,0.22077 0.10703,0.0502 0.25087,0.0753 0.43151,0.0753 0.0836,0 0.20571,-0.007 0.36628,-0.0201 0.1639,-0.0167 0.2793,-0.0368 0.34621,-0.0602 l 0,0.36628"
         style=""
         id="path4223" />
      <path
         d="m 122.50493,505.05704 c -1e-5,0.18733 -0.0686,0.34789 -0.20572,0.48169 -0.13381,0.13046 -0.29437,0.19568 -0.48169,0.19568 -0.18732,0 -0.34956,-0.0652 -0.4867,-0.19568 -0.1338,-0.1338 -0.20071,-0.29436 -0.2007,-0.48169 -1e-5,-0.18732 0.0669,-0.34788 0.2007,-0.48168 0.13714,-0.13715 0.29938,-0.20572 0.4867,-0.20572 0.18732,0 0.34788,0.0686 0.48169,0.20572 0.13714,0.1338 0.20571,0.29436 0.20572,0.48168"
         style=""
         id="path4225" />
      <path
         d="m 131.96202,505.63406 -4.70145,0 0,-0.68238 c 0.0903,-0.1037 0.21575,-0.2191 0.37631,-0.34622 0.16056,-0.13045 0.35123,-0.27094 0.572,-0.42147 0.1338,-0.0903 0.29437,-0.18899 0.48169,-0.29604 0.18732,-0.10704 0.39973,-0.22411 0.63723,-0.35123 0.26426,-0.14048 0.46663,-0.26425 0.60712,-0.37129 0.14384,-0.10704 0.27429,-0.23917 0.39137,-0.39639 0.0769,-0.10369 0.13882,-0.23248 0.18565,-0.38635 0.0468,-0.15722 0.0702,-0.37966 0.0702,-0.66734 0,-0.41812 -0.11206,-0.72419 -0.33618,-0.91821 -0.22412,-0.19735 -0.51179,-0.29603 -0.86302,-0.29604 -0.21743,10e-6 -0.42315,0.0435 -0.61716,0.13046 -0.19401,0.0836 -0.33952,0.20071 -0.43652,0.35123 0.0234,0.10704 0.0518,0.23416 0.0853,0.38133 0.0368,0.14719 0.0552,0.29102 0.0552,0.43151 0,0.12712 -0.0535,0.24085 -0.16056,0.3412 -0.1037,0.097 -0.25925,0.14551 -0.46664,0.14551 -0.16725,0 -0.29603,-0.0569 -0.38635,-0.1706 -0.0903,-0.11707 -0.13547,-0.27262 -0.13547,-0.46663 0,-0.18063 0.0502,-0.36126 0.15052,-0.5419 0.10035,-0.18397 0.24419,-0.3529 0.43151,-0.50677 0.18398,-0.15053 0.41144,-0.27262 0.68239,-0.36629 0.27095,-0.0936 0.56364,-0.14048 0.87807,-0.14049 0.68573,1e-5 1.2293,0.15388 1.63071,0.46162 0.40475,0.3044 0.60712,0.7125 0.60712,1.22428 0,0.24419 -0.0368,0.46664 -0.11038,0.66734 -0.0703,0.2007 -0.18566,0.37799 -0.34621,0.53186 -0.17729,0.1706 -0.38469,0.31778 -0.62218,0.44154 -0.2375,0.12043 -0.60044,0.28935 -1.08881,0.50678 -0.29102,0.13045 -0.56197,0.2676 -0.81284,0.41144 -0.25088,0.14049 -0.4566,0.27764 -0.61716,0.41144 l 3.8585,0 0,0.8881"
         style=""
         id="path4227" />
      <path
         d="m 138.11555,500.94767 c 0.21408,0.25757 0.37297,0.56029 0.47667,0.90817 0.10703,0.34455 0.16055,0.70581 0.16056,1.0838 -1e-5,0.45492 -0.0652,0.86302 -0.19569,1.22428 -0.13046,0.35792 -0.30942,0.65563 -0.53687,0.89312 -0.23416,0.24419 -0.5118,0.42817 -0.83292,0.55194 -0.32113,0.12376 -0.67904,0.18565 -1.07376,0.18565 -0.43151,0 -0.81619,-0.0719 -1.15403,-0.21576 -0.33785,-0.14384 -0.61215,-0.34119 -0.82288,-0.59207 -0.22078,-0.26091 -0.38636,-0.56531 -0.49674,-0.9132 -0.10704,-0.35122 -0.16056,-0.72921 -0.16056,-1.13396 0,-0.39806 0.0518,-0.76434 0.15554,-1.09885 0.10704,-0.3345 0.27262,-0.63722 0.49674,-0.90818 0.21408,-0.26091 0.49005,-0.46663 0.8279,-0.61716 0.33784,-0.15052 0.72419,-0.22578 1.15905,-0.22579 0.45827,1e-5 0.85131,0.0769 1.17913,0.23081 0.32781,0.15388 0.60043,0.36294 0.81786,0.6272 m -0.47165,1.99197 c -1e-5,-0.79612 -0.13715,-1.41328 -0.41144,-1.85148 -0.27095,-0.4382 -0.64058,-0.6573 -1.10888,-0.6573 -0.475,0 -0.84964,0.2191 -1.12393,0.6573 -0.2743,0.4382 -0.41144,1.05536 -0.41144,1.85148 0,0.75598 0.13045,1.36477 0.39137,1.82639 0.26425,0.45827 0.64224,0.6874 1.13396,0.6874 0.49172,0 0.86971,-0.22913 1.13397,-0.6874 0.26426,-0.46162 0.39638,-1.07041 0.39639,-1.82639"
         style=""
         id="path4229" />
      <path
         d="m 143.83757,505.63406 -3.38183,0 0,-0.35624 c 0.10035,-0.007 0.25589,-0.0201 0.46663,-0.0401 0.21408,-0.0234 0.36127,-0.0468 0.44155,-0.0702 0.10369,-0.0335 0.1823,-0.087 0.23582,-0.16056 0.0569,-0.0769 0.0853,-0.19067 0.0853,-0.34119 l 0,-3.52233 -1.24937,0 0,-0.42147 0.27597,0 c 0.36126,0 0.68405,-0.0669 0.96838,-0.20071 0.28768,-0.13379 0.49339,-0.27763 0.61716,-0.43151 l 0.41646,0 c -0.01,0.21744 -0.0201,0.47166 -0.0301,0.76267 -0.01,0.29102 -0.0151,0.55194 -0.0151,0.78274 l 0,2.97541 c 0,0.11708 0.0251,0.22245 0.0753,0.31611 0.0535,0.0903 0.12878,0.15722 0.22579,0.2007 0.087,0.0368 0.22913,0.0702 0.42649,0.10035 0.19735,0.0301 0.34453,0.0468 0.44154,0.0502 l 0,0.35624"
         style=""
         id="path4231" />
      <path
         d="m 150.14665,505.18248 -1.01856,0 0,2.28299 -0.96337,0 0,-2.28299 -3.21124,0 0,-0.7727 3.51731,-4.29001 0.6573,0 0,4.40541 1.01856,0 0,0.6573 m -1.98193,-0.6573 0,-3.2865 -2.70949,3.2865 2.70949,0"
         style=""
         id="path4233" />
    </g>
    <g
       transform="matrix(0.9722125,-0.23410009,0.23410009,0.9722125,0,0)"
       style="font-size:18.24471092px;font-style:italic;font-variant:normal;font-weight:normal;font-stretch:normal;text-align:start;line-height:125%;letter-spacing:0.30407855px;word-spacing:0px;text-anchor:start;fill:#ffffff;fill-opacity:1;stroke:#ff0000;stroke-width:0.50679755;font-family:FreeSans;-inkscape-font-specification:FreeSans Italic"
       id="text3834">
      <path
         d="m 40.932492,520.53206 c 2.718459,0 4.980808,-1.14943 6.714054,-5.27273 l -1.787982,0 c -0.802766,1.84272 -1.860963,3.7949 -4.670646,3.7949 -1.897448,0 -3.156335,-1.47782 -3.156335,-3.68543 0,-1.715 1.112932,-7.29788 5.601126,-7.29788 1.842714,0 2.754952,0.89399 2.900909,2.86442 l 1.751493,0 c -0.182447,-3.64894 -2.608996,-4.34224 -4.342242,-4.34224 -5.126758,0 -7.662778,5.29097 -7.662778,9.10411 0,1.93393 0.893994,4.83485 4.652401,4.83485"
         style=""
         id="path4141" />
      <path
         d="m 51.65316,506.81203 -2.82793,13.3004 1.532555,0 1.112928,-5.27272 c 0.419628,-2.00692 1.715004,-3.24756 3.375271,-3.24756 0.93048,0 1.550801,0.62032 1.550801,1.5508 0,0.21893 0,0.21893 -0.109469,0.71154 l -1.331864,6.25794 1.532556,0 1.459577,-6.86001 c 0.05473,-0.23719 0.07298,-0.45612 0.07298,-0.67506 0,-1.44133 -0.930482,-2.29883 -2.463036,-2.29883 -1.368352,0 -2.262345,0.38314 -3.411761,1.45957 l 1.039949,-4.92607 -1.532556,0"
         style=""
         id="path4143" />
      <path
         d="m 59.092091,516.95609 c 0,1.95218 1.3866,3.57597 3.612453,3.57597 2.189363,0 4.068571,-1.35012 4.634156,-3.32054 l -1.532555,0 c -0.656809,1.25888 -1.623781,1.91569 -2.846175,1.91569 -1.441331,0 -2.262344,-0.89399 -2.262344,-2.44479 0,-0.38314 0.01824,-0.56559 0.09122,-0.83926 l 7.042459,0 c 0.145957,-0.82101 0.31016,-1.67851 0.31016,-2.44479 0,-1.75149 -1.514313,-3.11984 -3.48474,-3.11984 -4.725376,0 -5.564637,5.3457 -5.564637,6.67756 m 2.025163,-2.42654 c 0.474362,-1.67852 1.824472,-2.84618 3.302293,-2.84618 1.295373,0 2.116386,0.87575 2.116386,2.2441 0,0.18245 -0.01824,0.31016 -0.05473,0.60208 l -5.363945,0"
         style=""
         id="path4145" />
      <path
         d="m 70.906333,510.5522 -2.025163,9.56023 1.532556,0 1.058193,-4.96256 c 0.565586,-2.62724 2.061654,-3.26581 3.776655,-3.26581 l 0.328405,-1.5508 c -0.237181,-0.0365 -0.383139,-0.0547 -0.583831,-0.0547 -1.058192,0 -1.879206,0.47436 -3.010377,1.76973 l 0.31016,-1.49606 -1.386598,0"
         style=""
         id="path4147" />
      <path
         d="m 77.12569,510.5522 -2.025163,9.56023 1.532555,0 1.058194,-4.96256 c 0.565585,-2.62724 2.061654,-3.26581 3.776655,-3.26581 l 0.328405,-1.5508 c -0.237181,-0.0365 -0.383139,-0.0547 -0.583831,-0.0547 -1.058192,0 -1.879206,0.47436 -3.010377,1.76973 l 0.31016,-1.49606 -1.386598,0"
         style=""
         id="path4149" />
      <path
         d="m 89.183354,510.5522 -4.251018,7.4256 -0.839257,-7.4256 -1.642024,0 1.240641,9.63321 -0.948725,1.47782 c -0.492607,0.76627 -0.784523,0.94872 -1.459577,0.94872 -0.182447,0 -0.310161,-0.0182 -0.802767,-0.073 l -0.291916,1.36836 c 0.328405,0.14595 0.547342,0.18244 0.893991,0.18244 1.295373,0 2.225856,-0.62032 3.010377,-1.97043 l 6.714054,-11.56714 -1.623779,0"
         style=""
         id="path4151" />
    </g>
    <path
       style="opacity:0.67364017;fill:#800000;stroke:none"
       d="m 119.94881,568.31886 0,12.09451 138.10238,0 0,-13.10238 z"
       id="path3937"
       inkscape:connector-curvature="0"
       sodipodi:nodetypes="ccccc" />
    <g
       style="font-size:11.09342194px;font-style:normal;font-variant:normal;font-weight:bold;font-stretch:normal;text-align:start;line-height:125%;letter-spacing:0.12326024px;word-spacing:0px;text-anchor:start;fill:#ffffff;fill-opacity:1;stroke:none;font-family:Droid Sans;-inkscape-font-specification:Droid Sans Bold"
       id="text3933">
      <path
         d="m 159.04697,577.80249 -1.67376,0 0,-4.58254 c 0,-0.0939 0,-0.20583 0,-0.33583 0.004,-0.13361 0.007,-0.27083 0.0108,-0.41167 0.007,-0.14444 0.0126,-0.28889 0.0163,-0.43334 0.007,-0.14444 0.0126,-0.27625 0.0162,-0.39542 -0.0181,0.0217 -0.0487,0.0542 -0.0921,0.0975 -0.0433,0.0433 -0.0921,0.0921 -0.14625,0.14625 -0.0542,0.0506 -0.11014,0.10293 -0.16792,0.15709 -0.0578,0.0542 -0.11375,0.10292 -0.16792,0.14625 l -0.91001,0.73125 -0.8125,-1.0075 2.55127,-2.03127 1.37584,0 0,7.91923"
         style=""
         id="path4154" />
      <path
         d="m 166.61279,577.80249 -5.31379,0 0,-1.16459 1.86335,-2.0096 c 0.23472,-0.25278 0.44778,-0.4857 0.63917,-0.69876 0.19139,-0.21305 0.35569,-0.42069 0.49292,-0.62292 0.13722,-0.20222 0.24375,-0.40805 0.31959,-0.6175 0.0758,-0.20944 0.11374,-0.43514 0.11375,-0.67709 -1e-5,-0.26722 -0.0813,-0.47486 -0.24375,-0.62292 -0.1589,-0.14805 -0.37376,-0.22208 -0.64459,-0.22209 -0.28529,10e-6 -0.55973,0.0704 -0.82334,0.21125 -0.26362,0.14084 -0.53987,0.34126 -0.82876,0.60126 l -0.91001,-1.07793 c 0.1625,-0.14805 0.33223,-0.28888 0.50917,-0.4225 0.17695,-0.13722 0.37195,-0.25819 0.58501,-0.36292 0.21305,-0.10472 0.44778,-0.18777 0.70417,-0.24917 0.25639,-0.065 0.54347,-0.0975 0.86126,-0.0975 0.37916,1e-5 0.71861,0.0524 1.01834,0.15708 0.30333,0.10473 0.56153,0.2546 0.77459,0.44959 0.21305,0.1914 0.37555,0.42432 0.4875,0.69876 0.11555,0.27445 0.17333,0.5832 0.17334,0.92625 -1e-5,0.31057 -0.0542,0.60849 -0.1625,0.89376 -0.10834,0.28167 -0.2564,0.55973 -0.44417,0.83417 -0.18779,0.27084 -0.40626,0.54168 -0.65543,0.81251 -0.24556,0.26723 -0.50917,0.53987 -0.79084,0.81792 l -0.95334,0.95876 0,0.0758 3.22836,0 0,1.40834"
         style=""
         id="path4156" />
      <path
         d="m 172.74186,577.80249 -1.6521,0 0,-7.91923 4.53921,0 0,1.37584 -2.88711,0 0,2.0421 2.68669,0 0,1.37043 -2.68669,0 0,3.13086"
         style=""
         id="path4158" />
      <path
         d="m 177.30141,577.80249 0,-7.91923 1.67918,0 0,6.53255 2.88169,0 0,1.38668 -4.56087,0"
         style=""
         id="path4160" />
      <path
         d="m 193.11555,573.83204 c -1e-5,0.61029 -0.0722,1.1664 -0.21667,1.66835 -0.14084,0.50195 -0.35751,0.93167 -0.65,1.28918 -0.29251,0.3575 -0.66265,0.63375 -1.11043,0.82875 -0.44417,0.195 -0.96959,0.2925 -1.57626,0.2925 -0.60668,0 -1.1339,-0.0975 -1.58168,-0.2925 -0.44417,-0.195 -0.81251,-0.47125 -1.10501,-0.82875 -0.28889,-0.35751 -0.50556,-0.78723 -0.65,-1.28918 -0.14084,-0.50556 -0.21126,-1.06528 -0.21126,-1.67918 0,-0.61389 0.0704,-1.17001 0.21126,-1.66835 0.14444,-0.50194 0.36291,-0.92986 0.65542,-1.28376 0.2925,-0.35388 0.66083,-0.62652 1.10501,-0.81792 0.44777,-0.195 0.97681,-0.2925 1.58709,-0.2925 0.60667,0 1.13209,0.0975 1.57627,0.2925 0.44416,0.1914 0.81069,0.46584 1.09959,0.82334 0.29249,0.3539 0.50916,0.78182 0.65,1.28376 0.14444,0.49834 0.21666,1.05626 0.21667,1.67376 m -5.37338,0 c 0,0.41529 0.0361,0.78904 0.10834,1.12126 0.0722,0.32862 0.18236,0.60848 0.33042,0.83959 0.15166,0.2275 0.34125,0.40264 0.56875,0.52542 0.2275,0.12278 0.49834,0.18417 0.81251,0.18417 0.32139,0 0.59583,-0.0614 0.82334,-0.18417 0.23111,-0.12278 0.41889,-0.29792 0.56334,-0.52542 0.14805,-0.23111 0.25638,-0.51097 0.325,-0.83959 0.0722,-0.33222 0.10833,-0.70597 0.10833,-1.12126 0,-0.41527 -0.0361,-0.78722 -0.10833,-1.11584 -0.0686,-0.33222 -0.17695,-0.61389 -0.325,-0.84501 -0.14445,-0.2311 -0.33043,-0.40805 -0.55792,-0.53083 -0.22751,-0.12278 -0.50015,-0.18417 -0.81793,-0.18417 -0.31417,0 -0.58681,0.0614 -0.81792,0.18417 -0.23112,0.12278 -0.42251,0.29973 -0.57417,0.53083 -0.14806,0.23112 -0.2582,0.51279 -0.33042,0.84501 -0.0722,0.32862 -0.10834,0.70057 -0.10834,1.11584"
         style=""
         id="path4162" />
      <path
         d="m 199.48428,577.80249 -5.44921,0 0,-1.08876 3.35294,-5.44379 -3.25002,0 0,-1.38668 5.24337,0 0,1.08334 -3.34753,5.44921 3.45045,0 0,1.38668"
         style=""
         id="path4164" />
      <path
         d="m 203.32208,574.76372 c 0,-0.45139 0.0325,-0.89556 0.0975,-1.33251 0.065,-0.44056 0.1643,-0.86667 0.29792,-1.27835 0.13361,-0.41527 0.30153,-0.8125 0.50375,-1.19167 0.20583,-0.38278 0.44959,-0.74209 0.73126,-1.07793 l 1.35417,0 c -0.50917,0.69696 -0.89376,1.46252 -1.15376,2.29669 -0.26,0.83417 -0.39,1.69182 -0.39,2.57293 0,0.42973 0.0325,0.85765 0.0975,1.28376 0.065,0.42612 0.1625,0.8432 0.2925,1.25126 0.13,0.40806 0.2907,0.80348 0.48209,1.18626 0.19139,0.38278 0.41167,0.7439 0.66084,1.08334 l -1.34334,0 c -0.28167,-0.325 -0.52543,-0.67347 -0.73126,-1.04542 -0.20222,-0.37195 -0.37014,-0.76015 -0.50375,-1.16459 -0.13362,-0.40806 -0.23292,-0.82876 -0.29792,-1.2621 -0.065,-0.43333 -0.0975,-0.87389 -0.0975,-1.32167"
         style=""
         id="path4166" />
      <path
         d="m 212.22041,571.65452 c -10e-6,0.27446 -0.0451,0.52182 -0.13542,0.74209 -0.0867,0.21668 -0.20764,0.40807 -0.36292,0.57417 -0.15167,0.16251 -0.33223,0.29973 -0.54167,0.41167 -0.20584,0.10834 -0.42973,0.1914 -0.67167,0.24917 l 0,0.0325 c 0.63917,0.0794 1.12306,0.27445 1.45168,0.58501 0.3286,0.30695 0.49291,0.72223 0.49292,1.24584 -1e-5,0.34667 -0.0632,0.66806 -0.18959,0.96418 -0.12278,0.2925 -0.31417,0.54708 -0.57417,0.76375 -0.25639,0.21667 -0.5814,0.38639 -0.97501,0.50917 -0.39,0.11917 -0.85042,0.17875 -1.38126,0.17875 -0.42611,0 -0.82695,-0.0361 -1.20251,-0.10833 -0.37556,-0.0686 -0.72584,-0.17514 -1.05084,-0.31959 l 0,-1.42459 c 0.1625,0.0867 0.33403,0.1625 0.51459,0.2275 0.18055,0.065 0.36111,0.12098 0.54167,0.16792 0.18055,0.0433 0.3575,0.0758 0.53084,0.0975 0.17694,0.0217 0.34305,0.0325 0.49833,0.0325 0.31056,0 0.56876,-0.0289 0.77459,-0.0867 0.20584,-0.0578 0.37014,-0.13902 0.49292,-0.24375 0.12278,-0.10472 0.20945,-0.2293 0.26001,-0.37375 0.0542,-0.14806 0.0812,-0.30875 0.0812,-0.48209 -1e-5,-0.1625 -0.0343,-0.30875 -0.10292,-0.43875 -0.065,-0.13361 -0.17334,-0.24556 -0.325,-0.33584 -0.14806,-0.0939 -0.34306,-0.16611 -0.58501,-0.21667 -0.24195,-0.0506 -0.53987,-0.0758 -0.89375,-0.0758 l -0.56334,0 0,-1.17543 0.5525,0 c 0.33222,10e-6 0.60848,-0.0289 0.82876,-0.0867 0.22027,-0.0614 0.39541,-0.14264 0.52542,-0.24376 0.13361,-0.10471 0.2275,-0.22569 0.28167,-0.36292 0.0542,-0.13721 0.0812,-0.28346 0.0813,-0.43875 -1e-5,-0.28166 -0.0885,-0.50194 -0.26542,-0.66084 -0.17334,-0.15888 -0.44959,-0.23833 -0.82876,-0.23833 -0.17333,0 -0.33584,0.0181 -0.4875,0.0542 -0.14806,0.0325 -0.28709,0.0758 -0.41709,0.13001 -0.12639,0.0506 -0.24375,0.10834 -0.35208,0.17333 -0.10473,0.0614 -0.20042,0.12278 -0.28709,0.18417 l -0.84501,-1.11584 c 0.15167,-0.11194 0.31598,-0.21486 0.49292,-0.30876 0.18056,-0.0939 0.37556,-0.17513 0.58501,-0.24375 0.20944,-0.0722 0.43514,-0.12819 0.67709,-0.16792 0.24194,-0.0397 0.50014,-0.0596 0.77459,-0.0596 0.39,1e-5 0.74389,0.0433 1.06167,0.13 0.32139,0.0831 0.59584,0.20584 0.82334,0.36834 0.2275,0.15889 0.40264,0.3557 0.52542,0.59042 0.12639,0.23112 0.18958,0.49654 0.18959,0.79625"
         style=""
         id="path4168" />
      <path
         d="m 216.2437,572.74328 c 0.33944,10e-6 0.65542,0.0524 0.94792,0.15709 0.2925,0.10473 0.54708,0.2582 0.76376,0.46042 0.21666,0.20223 0.38638,0.45501 0.50917,0.75834 0.12277,0.29973 0.18416,0.64459 0.18417,1.03459 -1e-5,0.42973 -0.0668,0.81612 -0.20042,1.15918 -0.13362,0.33944 -0.33043,0.62833 -0.59042,0.86667 -0.26001,0.23472 -0.58321,0.41528 -0.96959,0.54167 -0.38279,0.12639 -0.82335,0.18958 -1.32168,0.18958 -0.19862,0 -0.39542,-0.009 -0.59042,-0.0271 -0.19501,-0.0181 -0.38278,-0.0451 -0.56334,-0.0812 -0.17695,-0.0325 -0.34667,-0.0758 -0.50917,-0.13 -0.15889,-0.0542 -0.30334,-0.11736 -0.43334,-0.18959 l 0,-1.44626 c 0.12639,0.0722 0.27264,0.14084 0.43876,0.20584 0.16611,0.0614 0.33764,0.11556 0.51458,0.1625 0.18056,0.0433 0.36112,0.0794 0.54167,0.10833 0.18056,0.0253 0.35209,0.0379 0.51459,0.0379 0.48389,0 0.85223,-0.0993 1.10501,-0.29792 0.25278,-0.20222 0.37917,-0.52181 0.37917,-0.95876 0,-0.39 -0.12459,-0.68611 -0.37375,-0.88834 -0.24556,-0.20583 -0.62654,-0.30875 -1.14293,-0.30875 -0.0939,0 -0.195,0.005 -0.30333,0.0163 -0.10473,0.0108 -0.20945,0.0253 -0.31417,0.0433 -0.10112,0.0181 -0.19862,0.0379 -0.29251,0.0596 -0.0939,0.0181 -0.17514,0.0379 -0.24375,0.0596 l -0.66625,-0.3575 0.29792,-4.03545 4.1817,0 0,1.41918 -2.73003,0 -0.13,1.55459 c 0.11556,-0.0253 0.24917,-0.0506 0.40084,-0.0758 0.15528,-0.0253 0.35389,-0.0379 0.59584,-0.0379"
         style=""
         id="path4170" />
      <path
         d="m 222.47701,572.74328 c 0.33944,10e-6 0.65542,0.0524 0.94792,0.15709 0.2925,0.10473 0.54709,0.2582 0.76376,0.46042 0.21666,0.20223 0.38639,0.45501 0.50917,0.75834 0.12277,0.29973 0.18416,0.64459 0.18417,1.03459 -10e-6,0.42973 -0.0668,0.81612 -0.20042,1.15918 -0.13362,0.33944 -0.33043,0.62833 -0.59042,0.86667 -0.26001,0.23472 -0.58321,0.41528 -0.96959,0.54167 -0.38279,0.12639 -0.82335,0.18958 -1.32168,0.18958 -0.19862,0 -0.39542,-0.009 -0.59042,-0.0271 -0.19501,-0.0181 -0.38278,-0.0451 -0.56334,-0.0812 -0.17695,-0.0325 -0.34667,-0.0758 -0.50917,-0.13 -0.15889,-0.0542 -0.30334,-0.11736 -0.43334,-0.18959 l 0,-1.44626 c 0.12639,0.0722 0.27264,0.14084 0.43876,0.20584 0.16611,0.0614 0.33764,0.11556 0.51458,0.1625 0.18056,0.0433 0.36112,0.0794 0.54167,0.10833 0.18056,0.0253 0.35209,0.0379 0.51459,0.0379 0.48389,0 0.85223,-0.0993 1.10501,-0.29792 0.25278,-0.20222 0.37917,-0.52181 0.37917,-0.95876 0,-0.39 -0.12459,-0.68611 -0.37375,-0.88834 -0.24556,-0.20583 -0.62654,-0.30875 -1.14293,-0.30875 -0.0939,0 -0.195,0.005 -0.30333,0.0163 -0.10473,0.0108 -0.20945,0.0253 -0.31417,0.0433 -0.10112,0.0181 -0.19862,0.0379 -0.29251,0.0596 -0.0939,0.0181 -0.17514,0.0379 -0.24375,0.0596 l -0.66625,-0.3575 0.29792,-4.03545 4.1817,0 0,1.41918 -2.73003,0 -0.13,1.55459 c 0.11556,-0.0253 0.24917,-0.0506 0.40084,-0.0758 0.15528,-0.0253 0.35389,-0.0379 0.59584,-0.0379"
         style=""
         id="path4172" />
      <path
         d="m 231.53784,577.80249 -1.6521,0 0,-3.53711 c 0,-0.43695 -0.065,-0.76375 -0.195,-0.98043 -0.13001,-0.22027 -0.33403,-0.33041 -0.61209,-0.33042 -0.20945,10e-6 -0.38459,0.0433 -0.52542,0.13001 -0.13723,0.0867 -0.24737,0.21486 -0.33042,0.38458 -0.0831,0.16973 -0.14264,0.37918 -0.17875,0.62834 -0.0361,0.24917 -0.0542,0.53445 -0.0542,0.85584 l 0,2.84919 -1.65209,0 0,-6.05588 1.26209,0 0.22208,0.77459 0.0921,0 c 0.0867,-0.15528 0.18958,-0.28889 0.30875,-0.40084 0.12278,-0.11194 0.25639,-0.20402 0.40084,-0.27625 0.14444,-0.0722 0.29791,-0.12458 0.46042,-0.15709 0.1625,-0.0361 0.3268,-0.0542 0.49292,-0.0542 0.41528,0 0.76736,0.0722 1.05626,0.21667 0.29249,0.14084 0.51638,0.36473 0.67167,0.67167 l 0.13542,0 c 0.0867,-0.15528 0.19138,-0.28889 0.31417,-0.40084 0.12277,-0.11194 0.25819,-0.20402 0.40625,-0.27625 0.14805,-0.0722 0.30333,-0.12458 0.46584,-0.15709 0.1661,-0.0361 0.33221,-0.0542 0.49833,-0.0542 0.65,0 1.13931,0.17695 1.46793,0.53084 0.33222,0.35028 0.49833,0.91362 0.49834,1.69001 l 0,3.94878 -1.65751,0 0,-3.53711 c -1e-5,-0.43695 -0.065,-0.76375 -0.19501,-0.98043 -0.13,-0.22027 -0.33403,-0.33041 -0.61208,-0.33042 -0.39362,10e-6 -0.67349,0.15709 -0.83959,0.47126 -0.16612,0.31056 -0.24918,0.75654 -0.24917,1.33793 l 0,3.03877"
         style=""
         id="path4174" />
      <path
         d="m 237.03448,577.80249 0,-7.91923 1.67918,0 0,6.53255 2.88169,0 0,1.38668 -4.56087,0"
         style=""
         id="path4176" />
      <path
         d="m 245.4128,574.76372 c 0,0.44778 -0.0325,0.88834 -0.0975,1.32167 -0.065,0.43334 -0.16431,0.85404 -0.29792,1.2621 -0.13361,0.40444 -0.30333,0.79264 -0.50917,1.16459 -0.20222,0.37195 -0.44417,0.72042 -0.72583,1.04542 l -1.34335,0 c 0.24917,-0.33944 0.46945,-0.70056 0.66084,-1.08334 0.19139,-0.38278 0.35208,-0.7782 0.48209,-1.18626 0.13,-0.40806 0.2275,-0.82514 0.2925,-1.25126 0.065,-0.42611 0.0975,-0.85403 0.0975,-1.28376 0,-0.88111 -0.13,-1.73876 -0.39,-2.57293 -0.26001,-0.83417 -0.64459,-1.59973 -1.15376,-2.29669 l 1.35418,0 c 0.28166,0.33584 0.52361,0.69515 0.72583,1.07793 0.20584,0.37917 0.37556,0.7764 0.50917,1.19167 0.13361,0.41168 0.23292,0.83779 0.29792,1.27835 0.065,0.43695 0.0975,0.88112 0.0975,1.33251"
         style=""
         id="path4178" />
    </g>
    <path
       style="fill:#000000;stroke:#000000;stroke-width:1.06949711px;stroke-linecap:butt;stroke-linejoin:miter;stroke-opacity:1"
       d="m 260.22503,555.89222 c 0,0 7.26132,-1.99529 10.89199,-1.99529 4.01283,0 12.03851,1.99529 12.03851,1.99529 l 0,24.9411 c 0,0 -8.02568,2.49411 -12.03851,2.49411 -3.63067,0 -10.89199,-2.49411 -10.89199,-2.49411 z"
       id="path3939"
       inkscape:connector-curvature="0"
       sodipodi:nodetypes="csccscc" />
    <g
       style="font-size:17.10437775px;font-style:normal;font-variant:normal;font-weight:normal;font-stretch:normal;text-align:start;line-height:125%;letter-spacing:0.42760944px;word-spacing:0px;text-anchor:start;fill:#ffffff;fill-opacity:1;stroke:none;font-family:Droid Sans;-inkscape-font-specification:Droid Sans"
       id="text3941">
      <path
         d="m 275.59053,562.24035 c -10e-6,0.98551 -0.0724,1.86801 -0.21715,2.64751 -0.1392,0.77949 -0.36748,1.43928 -0.68484,1.97936 -0.3118,0.54008 -0.71547,0.9521 -1.211,1.23606 -0.49555,0.28396 -1.09687,0.42594 -1.80398,0.42594 -0.65701,0 -1.23049,-0.14198 -1.72046,-0.42594 -0.4844,-0.28396 -0.88807,-0.69598 -1.211,-1.23606 -0.31737,-0.54008 -0.55679,-1.19987 -0.71825,-1.97936 -0.1559,-0.7795 -0.23385,-1.662 -0.23385,-2.64751 0,-0.9855 0.0696,-1.868 0.20879,-2.6475 0.14476,-0.77949 0.37026,-1.43649 0.67649,-1.97101 0.3118,-0.54007 0.71268,-0.95209 1.20266,-1.23606 0.49553,-0.28395 1.09407,-0.42593 1.79562,-0.42594 0.66257,10e-6 1.23884,0.14199 1.72881,0.42594 0.48996,0.2784 0.89642,0.68764 1.21936,1.2277 0.32292,0.53453 0.56512,1.19153 0.7266,1.97102 0.16146,0.7795 0.24219,1.66479 0.2422,2.65585 m -6.25546,0 c 0,0.83518 0.0418,1.56457 0.12528,2.18816 0.0835,0.6236 0.21714,1.14419 0.40088,1.56178 0.18374,0.41202 0.42315,0.72382 0.71825,0.93539 0.30066,0.20601 0.66535,0.30902 1.09408,0.30902 0.42872,0 0.79341,-0.10301 1.09408,-0.30902 0.30066,-0.20601 0.54564,-0.51502 0.73495,-0.92704 0.19487,-0.41202 0.33407,-0.92983 0.41759,-1.55343 0.0891,-0.62916 0.13362,-1.36411 0.13363,-2.20486 -10e-6,-0.83517 -0.0446,-1.56455 -0.13363,-2.18816 -0.0835,-0.62358 -0.22272,-1.14139 -0.41759,-1.55342 -0.18931,-0.41201 -0.43429,-0.72102 -0.73495,-0.92704 -0.30067,-0.206 -0.66536,-0.30901 -1.09408,-0.30902 -0.42873,10e-6 -0.79342,0.10302 -1.09408,0.30902 -0.2951,0.20602 -0.53451,0.51503 -0.71825,0.92704 -0.18374,0.41203 -0.31737,0.92984 -0.40088,1.55342 -0.0835,0.62361 -0.12528,1.35299 -0.12528,2.18816"
         style=""
         id="path4216" />
    </g>
    <g
       style="font-size:4px;font-style:normal;font-variant:normal;font-weight:normal;font-stretch:normal;text-align:center;line-height:125%;letter-spacing:0px;word-spacing:0px;text-anchor:middle;fill:#ffffff;fill-opacity:1;stroke:none;font-family:FreeSans;-inkscape-font-specification:FreeSans"
       id="text3945">
      <path
         d="m 261.8486,572.43818 c 0,0.596 0.264,1.516 1.316,1.516 0.712,0 1.112,-0.384 1.2,-1.156 l -0.384,0 c -0.088,0.552 -0.324,0.828 -0.812,0.828 -0.58,0 -0.948,-0.464 -0.948,-1.192 0,-0.748 0.352,-1.208 0.916,-1.208 0.472,0 0.704,0.216 0.788,0.624 l 0.38,0 c -0.116,-0.64 -0.484,-0.952 -1.124,-0.952 -1.064,0 -1.332,0.932 -1.332,1.54"
         style=""
         id="path4187" />
      <path
         d="m 266.41254,572.98618 0.3,0.876 0.416,0 -1.024,-2.916 -0.48,0 -1.04,2.916 0.396,0 0.308,-0.876 1.124,0 m -0.104,-0.312 -0.928,0 0.48,-1.328 0.448,1.328"
         style=""
         id="path4189" />
      <path
         d="m 267.8806,570.94618 -0.372,0 0,2.916 1.812,0 0,-0.328 -1.44,0 0,-2.588"
         style=""
         id="path4191" />
      <path
         d="m 272.4146,572.45018 c 0,-0.94 -0.556,-1.552 -1.412,-1.552 -0.836,0 -1.404,0.616 -1.404,1.528 0,0.912 0.568,1.528 1.408,1.528 0.872,0 1.408,-0.664 1.408,-1.504 m -1.412,-1.224 c 0.632,0 1.04,0.48 1.04,1.216 0,0.704 -0.42,1.184 -1.036,1.184 -0.62,0 -1.036,-0.48 -1.036,-1.2 0,-0.72 0.416,-1.2 1.032,-1.2"
         style=""
         id="path4193" />
      <path
         d="m 274.66341,572.42218 c 0.328,-0.16 0.46,-0.364 0.46,-0.696 0,-0.504 -0.316,-0.78 -0.888,-0.78 l -1.344,0 0,2.916 0.372,0 0,-1.256 0.96,0 c 0.332,0 0.48,0.16 0.48,0.52 l 0,0.26 c 0,0.18 0.028,0.356 0.08,0.476 l 0.452,0 0,-0.092 c -0.156,-0.104 -0.176,-0.272 -0.176,-0.46 0,-0.064 0.004,-0.136 0.004,-0.204 0,-0.264 -0.036,-0.528 -0.4,-0.684 m 0.072,-0.644 c 0,0.344 -0.176,0.5 -0.572,0.5 l -0.9,0 0,-1.004 0.9,0 c 0.312,0 0.572,0.088 0.572,0.504"
         style=""
         id="path4195" />
      <path
         d="m 276.18335,570.94618 -0.376,0 0,2.916 0.376,0 0,-2.916"
         style=""
         id="path4197" />
      <path
         d="m 277.20872,572.53418 1.588,0 0,-0.328 -1.588,0 0,-0.932 1.648,0 0,-0.328 -2.02,0 0,2.916 2.092,0 0,-0.328 -1.72,0 0,-1"
         style=""
         id="path4199" />
      <path
         d="m 280.41597,573.62618 c -0.66,0 -0.824,-0.376 -0.824,-0.672 l 0,-0.02 -0.352,0 c 0.012,0.828 0.648,1.02 1.152,1.02 0.912,0 1.14,-0.536 1.14,-0.892 0,-0.36 -0.224,-0.624 -0.62,-0.732 l -0.732,-0.196 c -0.352,-0.096 -0.48,-0.208 -0.48,-0.432 0,-0.296 0.26,-0.492 0.652,-0.492 0.464,0 0.724,0.212 0.728,0.592 l 0.352,0 c -0.004,-0.572 -0.396,-0.904 -1.068,-0.904 -0.64,0 -1.036,0.328 -1.036,0.856 0,0.356 0.188,0.58 0.572,0.68 l 0.724,0.192 c 0.368,0.096 0.536,0.244 0.536,0.472 0,0.208 -0.112,0.528 -0.744,0.528"
         style=""
         id="path4201" />
      <path
         d="m 265.42119,576.80218 c 0,-0.548 -0.324,-0.856 -0.9,-0.856 l -1.204,0 0,2.916 0.372,0 0,-1.236 0.916,0 c 0.48,0 0.816,-0.324 0.816,-0.824 m -1.732,0.496 0,-1.024 0.776,0 c 0.356,0 0.568,0.192 0.568,0.512 0,0.32 -0.212,0.512 -0.568,0.512 l -0.776,0"
         style=""
         id="path4203" />
      <path
         d="m 266.31419,577.53418 1.588,0 0,-0.328 -1.588,0 0,-0.932 1.648,0 0,-0.328 -2.02,0 0,2.916 2.092,0 0,-0.328 -1.72,0 0,-1"
         style=""
         id="path4205" />
      <path
         d="m 270.24544,577.42218 c 0.328,-0.16 0.46,-0.364 0.46,-0.696 0,-0.504 -0.316,-0.78 -0.888,-0.78 l -1.344,0 0,2.916 0.372,0 0,-1.256 0.96,0 c 0.332,0 0.48,0.16 0.48,0.52 l 0,0.26 c 0,0.18 0.028,0.356 0.08,0.476 l 0.452,0 0,-0.092 c -0.156,-0.104 -0.176,-0.272 -0.176,-0.46 0,-0.064 0.004,-0.136 0.004,-0.204 0,-0.264 -0.036,-0.528 -0.4,-0.684 m 0.072,-0.644 c 0,0.344 -0.176,0.5 -0.572,0.5 l -0.9,0 0,-1.004 0.9,0 c 0.312,0 0.572,0.088 0.572,0.504"
         style=""
         id="path4207" />
      <path
         d="m 272.14938,577.43818 c 0,0.596 0.264,1.516 1.316,1.516 0.712,0 1.112,-0.384 1.2,-1.156 l -0.384,0 c -0.088,0.552 -0.324,0.828 -0.812,0.828 -0.58,0 -0.948,-0.464 -0.948,-1.192 0,-0.748 0.352,-1.208 0.916,-1.208 0.472,0 0.704,0.216 0.788,0.624 l 0.38,0 c -0.116,-0.64 -0.484,-0.952 -1.124,-0.952 -1.064,0 -1.332,0.932 -1.332,1.54"
         style=""
         id="path4209" />
      <path
         d="m 276.71332,577.98618 0.3,0.876 0.416,0 -1.024,-2.916 -0.48,0 -1.04,2.916 0.396,0 0.308,-0.876 1.124,0 m -0.104,-0.312 -0.928,0 0.48,-1.328 0.448,1.328"
         style=""
         id="path4211" />
      <path
         d="m 280.08938,575.94618 -0.352,0 0,2.384 -1.524,-2.384 -0.404,0 0,2.916 0.352,0 0,-2.364 1.508,2.364 0.42,0 0,-2.916"
         style=""
         id="path4213" />
    </g>
    <path
       style="fill:none;stroke:#ffffff;stroke-width:4;stroke-linecap:butt;stroke-linejoin:miter;stroke-opacity:1;filter:url(#filter4090)"
       d="m 122.32947,356.56911 -0.7071,210.01071"
       id="path4084"
       inkscape:connector-curvature="0" />
    <g
       transform="matrix(0.97009026,-0.24274448,0.24274448,0.97009026,2,6)"
       style="font-size:36px;font-style:normal;font-variant:normal;font-weight:bold;font-stretch:normal;text-align:start;line-height:125%;letter-spacing:0.60000002px;word-spacing:0px;text-anchor:start;fill:#ffffff;fill-opacity:1;stroke:#ff0000;stroke-width:2;filter:url(#filter3971);font-family:GFS Didot;-inkscape-font-specification:GFS Didot Bold"
       id="text3797">
      <path
         d="m 69.225423,420.59219 c 0,-7.48799 -4.068008,-11.232 -12.168,-11.232 -1.115999,0 -2.772002,0.036 -4.932,0.072 -2.159998,0.036 -3.600001,0.036 -4.32,0.036 l -5.616,-0.108 0,1.332 1.368,0.108 c 0.791999,0.036 1.26,0.252 1.44,0.612 0.18,0.324 0.252,1.296 0.252,2.916 l 0.036,14.904 c 0,1.548 -0.072,2.448 -0.18,2.7 -0.18,0.36 -0.684001,0.54 -1.512,0.576 l -1.368,0.072 0,1.332 c 1.187999,-0.036 3.420003,-0.036 6.66,-0.036 -0.252,0 1.548004,0.036 5.364,0.108 4.067996,0.072 7.560003,-1.044 10.404,-3.384 3.059997,-2.484 4.572,-5.832 4.572,-10.008 m -5.4,0.684 c 0,7.23599 -3.312007,10.692 -10.368,10.692 -1.403999,0 -2.448001,-0.072 -3.132,-0.18 l 0,-20.52 c 0.683999,-0.072 1.404001,-0.108 2.232,-0.108 4.031996,0 6.912002,0.792 8.64,2.376 1.763998,1.548 2.628,4.14 2.628,7.74"
         style=""
         id="path4132" />
      <path
         d="m 80.748611,411.26819 c 0,-1.584 -1.116002,-2.736 -2.7,-2.736 -1.475999,0 -2.7,1.152 -2.7,2.736 0,1.404 1.260001,2.628 2.7,2.628 1.475998,0 2.7,-1.224 2.7,-2.628 m 2.376,21.456 -1.944,0 c -0.468,0 -0.756,-0.288 -0.828,-0.828 l 0,-14.544 -7.272,0 0,1.152 1.692,0 c 0.755999,0 1.188,0.396 1.224,1.26 l 0,12.132 c -0.108,0.54 -0.360001,0.828 -0.828,0.828 l -2.088,0 0,1.152 10.044,0 0,-1.152"
         style=""
         id="path4134" />
      <path
         d="m 100.22386,425.70419 c -0.18,-2.952 -0.684,-5.004 -1.475999,-6.264 -1.115999,-1.656 -3.024002,-2.484 -5.688,-2.52 -2.519997,0 -4.572001,0.936 -6.048,2.844 -1.259999,1.692 -1.944,3.816 -1.944,6.372 0,5.21999 2.952005,8.28 8.1,8.28 2.663998,-0.036 4.824002,-1.116 6.552,-3.24 l -0.432,-0.576 c -1.403998,0.864 -2.664001,1.296 -3.852,1.296 -1.871998,0 -3.312001,-0.648 -4.32,-1.872 -0.971999,-1.116 -1.476,-2.592 -1.476,-4.392 7.055993,0 10.583999,0 10.583999,0.072 m -4.571999,-1.8 c -2.843997,0.036 -4.896001,0.036 -6.156,0 0,-3.348 1.044002,-5.004 3.096,-5.004 2.015998,0 3.06,1.656 3.06,5.004"
         style=""
         id="path4136" />
      <path
         d="m 113.29842,431.14019 c -0.648,0.288 -1.188,0.396 -1.656,0.396 -1.44,0 -2.16,-0.9 -2.16,-2.736 l 0,-8.028 3.744,0 0,-2.304 -3.744,-0.036 0,-3.816 -2.628,0 c 0,2.988 -1.332,4.68 -4.068,5.076 l 0,1.08 2.304,0 0,7.92 c 0,2.412 0.432,3.996 1.332,4.968 0.684,0.54 1.656,0.792 3.06,0.756 1.692,-0.036 3.06,-0.972 4.104,-2.628 l -0.288,-0.648"
         style=""
         id="path4138" />
    </g>
    <path
       style="fill:none;stroke:#ffffff;stroke-width:3;stroke-linecap:butt;stroke-linejoin:miter;stroke-opacity:1;filter:url(#filter4111)"
       d="m 142.83557,306.36453 123.74369,0 0,0.70711"
       id="path4105"
       inkscape:connector-curvature="0" />
    <g
       style="font-size:6.69537497px;font-style:normal;font-variant:normal;font-weight:normal;font-stretch:normal;text-align:start;line-height:125%;letter-spacing:0.50215316px;word-spacing:0px;text-anchor:start;fill:#000000;fill-opacity:1;stroke:none;font-family:FreeSans;-inkscape-font-specification:FreeSans"
       id="text4256"
       transform="translate(0,0.70710678)">
      <path
         d="m 247.76888,511.09527 -0.58919,0 0,3.99044 -2.55094,-3.99044 -0.67623,0 0,4.88093 0.58919,0 0,-3.95697 2.52415,3.95697 0.70302,0 0,-4.88093"
         id="path4265"
         inkscape:connector-curvature="0" />
      <path
         d="m 249.16466,513.5056 0.56241,0 c 0.0469,-0.4285 0.30129,-0.62267 0.82353,-0.62267 0.50215,0 0.78336,0.18747 0.78336,0.52224 l 0,0.1473 c 0,0.23434 -0.14061,0.33477 -0.5825,0.38833 -1.02439,0.13391 -1.7408,0.21426 -1.7408,1.15161 0,0.63606 0.4419,1.03778 1.15161,1.03778 0.44189,0 0.79675,-0.15399 1.19177,-0.51554 0.0402,0.35485 0.21426,0.51554 0.57581,0.51554 0.11382,0 0.20086,-0.0134 0.38163,-0.0603 l 0,-0.42181 c -0.0603,0.0134 -0.087,0.0134 -0.12051,0.0134 -0.19417,0 -0.3013,-0.10043 -0.3013,-0.27451 l 0,-2.06217 c 0,-0.62267 -0.45528,-0.95744 -1.31899,-0.95744 -0.62936,0 -1.37255,0.18747 -1.40602,1.13821 m 1.11812,2.13583 c -0.4352,0 -0.68962,-0.20756 -0.68962,-0.56241 0,-0.76997 1.17169,-0.57581 1.7408,-0.83693 l 0,0.62937 c 0,0.33477 -0.38833,0.76997 -1.05118,0.76997"
         id="path4267"
         inkscape:connector-curvature="0" />
      <path
         d="m 254.68813,512.46782 -0.5758,0 0,-0.96413 -0.55572,0 0,0.96413 -0.47537,0 0,0.45529 0.47537,0 0,2.65136 c 0,0.35486 0.24104,0.55572 0.67624,0.55572 0.1339,0 0.26781,-0.0134 0.45528,-0.0469 l 0,-0.46867 c -0.0737,0.0201 -0.16069,0.0268 -0.26781,0.0268 -0.24104,0 -0.30799,-0.067 -0.30799,-0.31469 l 0,-2.40363 0.5758,0 0,-0.45529"
         id="path4269"
         inkscape:connector-curvature="0" />
      <path
         d="m 258.51318,515.9762 0,-3.50838 -0.55572,0 0,1.98853 c 0,0.7164 -0.37494,1.18508 -0.95744,1.18508 -0.44189,0 -0.7231,-0.26782 -0.7231,-0.68963 l 0,-2.48398 -0.55571,0 0,2.70493 c 0,0.5825 0.4352,0.95744 1.11812,0.95744 0.51555,0 0.84362,-0.18078 1.17169,-0.64276 l 0,0.48877 0.50216,0"
         id="path4271"
         inkscape:connector-curvature="0" />
      <path
         d="m 261.50674,512.95658 0,-0.5691 c -0.0937,-0.0134 -0.1406,-0.0201 -0.21425,-0.0201 -0.36155,0 -0.63606,0.21425 -0.95744,0.73649 l 0,-0.63606 -0.51554,0 0,3.50838 0.56241,0 0,-1.82115 c 0,-0.98421 0.44859,-1.18508 1.12482,-1.19847"
         id="path4273"
         inkscape:connector-curvature="0" />
      <path
         d="m 262.49787,513.5056 0.56241,0 c 0.0469,-0.4285 0.30129,-0.62267 0.82353,-0.62267 0.50215,0 0.78336,0.18747 0.78336,0.52224 l 0,0.1473 c 0,0.23434 -0.1406,0.33477 -0.5825,0.38833 -1.02439,0.13391 -1.7408,0.21426 -1.7408,1.15161 0,0.63606 0.4419,1.03778 1.15161,1.03778 0.44189,0 0.79675,-0.15399 1.19178,-0.51554 0.0402,0.35485 0.21425,0.51554 0.5758,0.51554 0.11382,0 0.20086,-0.0134 0.38163,-0.0603 l 0,-0.42181 c -0.0603,0.0134 -0.087,0.0134 -0.12051,0.0134 -0.19417,0 -0.30129,-0.10043 -0.30129,-0.27451 l 0,-2.06217 c 0,-0.62267 -0.45529,-0.95744 -1.31899,-0.95744 -0.62937,0 -1.37256,0.18747 -1.40603,1.13821 m 1.11813,2.13583 c -0.4352,0 -0.68963,-0.20756 -0.68963,-0.56241 0,-0.76997 1.17169,-0.57581 1.7408,-0.83693 l 0,0.62937 c 0,0.33477 -0.38833,0.76997 -1.05117,0.76997"
         id="path4275"
         inkscape:connector-curvature="0" />
      <path
         d="m 267.24468,511.09527 -0.56241,0 0,4.88093 0.56241,0 0,-4.88093"
         id="path4277"
         inkscape:connector-curvature="0" />
      <path
         d="m 269.18529,511.09527 -0.56241,0 0,4.88093 0.56241,0 0,-4.88093"
         id="path4279"
         inkscape:connector-curvature="0" />
      <path
         d="m 272.69262,512.46782 -0.97083,2.73171 -0.89718,-2.73171 -0.59589,0 1.18508,3.52177 -0.21425,0.55571 c -0.0937,0.24773 -0.21425,0.34147 -0.44859,0.34147 -0.0803,0 -0.17408,-0.0134 -0.29459,-0.0402 l 0,0.50215 c 0.11382,0.0603 0.22764,0.087 0.37494,0.087 0.38163,0 0.70971,-0.20756 0.90387,-0.7231 l 1.56003,-4.24487 -0.60259,0"
         id="path4281"
         inkscape:connector-curvature="0" />
      <path
         d="m 274.45026,515.27988 0,0.69632 0.35486,0 0,0.12051 c 0,0.46198 -0.10043,0.59589 -0.35486,0.60928 l 0,0.25443 c 0.46868,0 0.70302,-0.3013 0.70302,-0.8771 l 0,-0.80344 -0.70302,0"
         id="path4283"
         inkscape:connector-curvature="0" />
      <path
         d="m 247.1529,524.34541 1.03109,-3.50837 -0.62936,0 -0.69632,2.73171 -0.68963,-2.73171 -0.68292,0 -0.66954,2.73171 -0.71641,-2.73171 -0.61597,0 1.0177,3.50837 0.62936,0 0.67623,-2.75179 0.70971,2.75179 0.63606,0"
         id="path4285"
         inkscape:connector-curvature="0" />
      <path
         d="m 249.7618,520.83704 -0.55572,0 0,3.50837 0.55572,0 0,-3.50837 m 0,-1.37255 -0.56241,0 0,0.70301 0.56241,0 0,-0.70301"
         id="path4287"
         inkscape:connector-curvature="0" />
      <path
         d="m 252.49121,520.83704 -0.5758,0 0,-0.96414 -0.55572,0 0,0.96414 -0.47537,0 0,0.45528 0.47537,0 0,2.65137 c 0,0.35486 0.24104,0.55572 0.67624,0.55572 0.1339,0 0.26781,-0.0134 0.45528,-0.0469 l 0,-0.46868 c -0.0736,0.0201 -0.16069,0.0268 -0.26781,0.0268 -0.24104,0 -0.30799,-0.067 -0.30799,-0.31469 l 0,-2.40364 0.5758,0 0,-0.45528"
         id="path4289"
         inkscape:connector-curvature="0" />
      <path
         d="m 255.75385,521.91499 0,2.43042 0.55571,0 0,-2.65136 c 0,-0.5892 -0.42181,-0.95744 -1.10473,-0.95744 -0.49546,0 -0.79675,0.15399 -1.12483,0.5825 l 0,-1.85462 -0.55571,0 0,4.88092 0.55571,0 0,-1.93496 c 0,-0.7164 0.37494,-1.18508 0.95075,-1.18508 0.2879,0 0.7231,0.1406 0.7231,0.68962"
         id="path4291"
         inkscape:connector-curvature="0" />
      <path
         d="m 259.73864,521.87482 0.56241,0 c 0.0469,-0.4285 0.30129,-0.62267 0.82353,-0.62267 0.50216,0 0.78336,0.18747 0.78336,0.52224 l 0,0.1473 c 0,0.23434 -0.1406,0.33477 -0.5825,0.38833 -1.02439,0.13391 -1.74079,0.21425 -1.74079,1.15161 0,0.63606 0.44189,1.03778 1.1516,1.03778 0.4419,0 0.79675,-0.154 1.19178,-0.51555 0.0402,0.35486 0.21425,0.51555 0.5758,0.51555 0.11382,0 0.20086,-0.0134 0.38164,-0.0603 l 0,-0.42181 c -0.0603,0.0134 -0.087,0.0134 -0.12052,0.0134 -0.19417,0 -0.30129,-0.10043 -0.30129,-0.27451 l 0,-2.06217 c 0,-0.62267 -0.45529,-0.95744 -1.31899,-0.95744 -0.62937,0 -1.37255,0.18747 -1.40603,1.13821 m 1.11813,2.13583 c -0.4352,0 -0.68963,-0.20756 -0.68963,-0.56242 0,-0.76996 1.1717,-0.5758 1.7408,-0.83692 l 0,0.62937 c 0,0.33477 -0.38833,0.76997 -1.05117,0.76997"
         id="path4293"
         inkscape:connector-curvature="0" />
      <path
         d="m 265.61028,521.3258 0,-0.56911 c -0.0937,-0.0134 -0.14061,-0.0201 -0.21426,-0.0201 -0.36155,0 -0.63606,0.21425 -0.95744,0.73649 l 0,-0.63606 -0.51554,0 0,3.50837 0.56241,0 0,-1.82114 c 0,-0.98422 0.44859,-1.18508 1.12483,-1.19847"
         id="path4295"
         inkscape:connector-curvature="0" />
      <path
         d="m 267.98734,520.83704 -0.5758,0 0,-0.96414 -0.55572,0 0,0.96414 -0.47537,0 0,0.45528 0.47537,0 0,2.65137 c 0,0.35486 0.24104,0.55572 0.67624,0.55572 0.13391,0 0.26781,-0.0134 0.45528,-0.0469 l 0,-0.46868 c -0.0737,0.0201 -0.16069,0.0268 -0.26781,0.0268 -0.24103,0 -0.30799,-0.067 -0.30799,-0.31469 l 0,-2.40364 0.5758,0 0,-0.45528"
         id="path4297"
         inkscape:connector-curvature="0" />
      <path
         d="m 269.623,520.83704 -0.55571,0 0,3.50837 0.55571,0 0,-3.50837 m 0,-1.37255 -0.56241,0 0,0.70301 0.56241,0 0,-0.70301"
         id="path4299"
         inkscape:connector-curvature="0" />
      <path
         d="m 273.20942,520.83704 -0.50215,0 -0.0536,0 -0.93736,0 0,-0.54902 c 0,-0.23434 0.13391,-0.35486 0.38833,-0.35486 0.10044,0 0.5892,0.11382 0.61598,0.19417 l 0.46198,0 0,-0.68293 -1.19847,0 c -0.51555,0 -0.82353,0.2946 -0.82353,0.79675 l 0,0.59589 -0.46868,0 0,0.45528 0.46868,0 0,3.05309 0.55571,0 0,-3.05309 0.93736,0 0,3.05309 0.55571,0 0,-3.50837"
         id="path4301"
         inkscape:connector-curvature="0" />
      <path
         d="m 277.8489,522.01542 c -0.067,-0.83692 -0.5825,-1.27881 -1.38594,-1.27881 -0.94405,0 -1.56003,0.74988 -1.56003,1.91488 0,1.13151 0.60259,1.84792 1.55333,1.84792 0.83692,0 1.36586,-0.50216 1.43281,-1.35916 l -0.56241,0 c -0.0937,0.56241 -0.38164,0.84361 -0.85701,0.84361 -0.61597,0 -0.98422,-0.50215 -0.98422,-1.33237 0,-0.8771 0.36155,-1.39934 0.97083,-1.39934 0.46868,0 0.76327,0.27451 0.83023,0.76327 l 0.56241,0"
         id="path4303"
         inkscape:connector-curvature="0" />
      <path
         d="m 279.59545,520.83704 -0.55572,0 0,3.50837 0.55572,0 0,-3.50837 m 0,-1.37255 -0.56241,0 0,0.70301 0.56241,0 0,-0.70301"
         id="path4305"
         inkscape:connector-curvature="0" />
      <path
         d="m 280.93892,521.87482 0.56241,0 c 0.0469,-0.4285 0.30129,-0.62267 0.82353,-0.62267 0.50215,0 0.78336,0.18747 0.78336,0.52224 l 0,0.1473 c 0,0.23434 -0.1406,0.33477 -0.5825,0.38833 -1.02439,0.13391 -1.74079,0.21425 -1.74079,1.15161 0,0.63606 0.44189,1.03778 1.1516,1.03778 0.44189,0 0.79675,-0.154 1.19178,-0.51555 0.0402,0.35486 0.21425,0.51555 0.5758,0.51555 0.11382,0 0.20086,-0.0134 0.38164,-0.0603 l 0,-0.42181 c -0.0603,0.0134 -0.087,0.0134 -0.12052,0.0134 -0.19417,0 -0.30129,-0.10043 -0.30129,-0.27451 l 0,-2.06217 c 0,-0.62267 -0.45529,-0.95744 -1.31899,-0.95744 -0.62937,0 -1.37255,0.18747 -1.40603,1.13821 m 1.11813,2.13583 c -0.4352,0 -0.68963,-0.20756 -0.68963,-0.56242 0,-0.76996 1.17169,-0.5758 1.7408,-0.83692 l 0,0.62937 c 0,0.33477 -0.38833,0.76997 -1.05117,0.76997"
         id="path4307"
         inkscape:connector-curvature="0" />
      <path
         d="m 285.68573,519.46449 -0.56241,0 0,4.88092 0.56241,0 0,-4.88092"
         id="path4309"
         inkscape:connector-curvature="0" />
      <path
         d="m 246.06156,527.83371 -0.55572,0 0,0.0134 c -0.12721,-0.0268 -0.56241,-0.0335 -0.67623,-0.0335 -0.51554,0 -0.82353,0.2946 -0.82353,0.79675 l 0,0.59589 -0.46868,0 0,0.45528 0.46868,0 0,3.05309 0.55571,0 0,-3.05309 0.94405,0 0,3.05309 0.55572,0 0,-4.88092 m -0.55572,0.47537 0,0.89718 -0.94405,0 0,-0.54902 c 0,-0.23434 0.13391,-0.35486 0.38834,-0.35486 0.0469,0 0.4285,0 0.55571,0.007"
         id="path4311"
         inkscape:connector-curvature="0" />
      <path
         d="m 247.88835,530.24404 0.56241,0 c 0.0469,-0.4285 0.30129,-0.62267 0.82353,-0.62267 0.50216,0 0.78336,0.18747 0.78336,0.52224 l 0,0.1473 c 0,0.23434 -0.1406,0.33477 -0.5825,0.38833 -1.02439,0.13391 -1.74079,0.21425 -1.74079,1.1516 0,0.63606 0.44189,1.03779 1.1516,1.03779 0.44189,0 0.79675,-0.154 1.19178,-0.51555 0.0402,0.35486 0.21425,0.51555 0.5758,0.51555 0.11382,0 0.20086,-0.0134 0.38164,-0.0603 l 0,-0.42181 c -0.0603,0.0134 -0.087,0.0134 -0.12052,0.0134 -0.19417,0 -0.30129,-0.10043 -0.30129,-0.27451 l 0,-2.06217 c 0,-0.62267 -0.45529,-0.95744 -1.31899,-0.95744 -0.62937,0 -1.37255,0.18747 -1.40603,1.13821 m 1.11813,2.13582 c -0.4352,0 -0.68963,-0.20755 -0.68963,-0.56241 0,-0.76996 1.1717,-0.5758 1.7408,-0.83692 l 0,0.62937 c 0,0.33477 -0.38833,0.76996 -1.05117,0.76996"
         id="path4313"
         inkscape:connector-curvature="0" />
      <path
         d="m 253.57921,532.71463 1.34577,-3.50837 -0.62937,0 -0.99091,2.84553 -0.93735,-2.84553 -0.62937,0 1.23195,3.50837 0.60928,0"
         id="path4315"
         inkscape:connector-curvature="0" />
      <path
         d="m 257.27568,529.10583 c -0.98421,0 -1.5801,0.70301 -1.5801,1.8814 0,1.17838 0.58919,1.8814 1.5868,1.8814 0.98422,0 1.5868,-0.70302 1.5868,-1.85462 0,-1.21186 -0.58249,-1.90818 -1.5935,-1.90818 m 0.007,0.51554 c 0.62936,0 1.00431,0.51555 1.00431,1.38594 0,0.82353 -0.38834,1.34577 -1.00431,1.34577 -0.62267,0 -1.00431,-0.51554 -1.00431,-1.36585 0,-0.84362 0.38164,-1.36586 1.00431,-1.36586"
         id="path4317"
         inkscape:connector-curvature="0" />
      <path
         d="m 261.65582,529.69502 0,-0.56911 c -0.0937,-0.0134 -0.1406,-0.0201 -0.21425,-0.0201 -0.36155,0 -0.63606,0.21425 -0.95744,0.73649 l 0,-0.63606 -0.51555,0 0,3.50837 0.56242,0 0,-1.82114 c 0,-0.98422 0.44859,-1.18508 1.12482,-1.19847"
         id="path4319"
         inkscape:connector-curvature="0" />
      <path
         d="m 263.10893,531.67016 -0.5892,0 c 0.0268,0.81013 0.48207,1.19847 1.39934,1.19847 0.88378,0 1.4462,-0.4352 1.4462,-1.11143 0,-0.52224 -0.2946,-0.81015 -0.99092,-0.97753 l -0.53563,-0.12721 c -0.45528,-0.10713 -0.64945,-0.25443 -0.64945,-0.50215 0,-0.32138 0.2879,-0.52894 0.74319,-0.52894 0.44859,0 0.68962,0.19417 0.70301,0.56241 l 0.58919,0 c -0.007,-0.68962 -0.46198,-1.07795 -1.27212,-1.07795 -0.81683,0 -1.34577,0.42181 -1.34577,1.07126 0,0.54902 0.28121,0.81014 1.11143,1.011 l 0.52224,0.12721 c 0.38833,0.0937 0.54233,0.23434 0.54233,0.48876 0,0.32808 -0.32807,0.54902 -0.81684,0.54902 -0.68292,0 -0.81014,-0.34146 -0.857,-0.68292"
         id="path4321"
         inkscape:connector-curvature="0" />
    </g>
    <path
       style="fill:none;stroke:#ffffff;stroke-width:2;stroke-linecap:butt;stroke-linejoin:miter;stroke-opacity:1;filter:url(#filter4377)"
       d="m 143.59376,590.98717 122.5,0"
       id="path4323"
       inkscape:connector-curvature="0"
       transform="matrix(1.3211598,0,0,0.92731038,-66.037592,38.958638)" />
  </g>
</svg>
