<?xml version="1.0" encoding="UTF-8" standalone="no"?>
<!-- Created with Inkscape (http://www.inkscape.org/) -->

<svg
   xmlns:dc="http://purl.org/dc/elements/1.1/"
   xmlns:cc="http://creativecommons.org/ns#"
   xmlns:rdf="http://www.w3.org/1999/02/22-rdf-syntax-ns#"
   xmlns:svg="http://www.w3.org/2000/svg"
   xmlns="http://www.w3.org/2000/svg"
   xmlns:sodipodi="http://sodipodi.sourceforge.net/DTD/sodipodi-0.dtd"
   xmlns:inkscape="http://www.inkscape.org/namespaces/inkscape"
   width="82.571373mm"
   height="150.45518mm"
   viewBox="0 0 292.57573 533.10892"
   id="svg2"
   version="1.1"
   inkscape:version="0.91 r13725"
   sodipodi:docname="can.svg"
   inkscape:export-filename="/home/algot/Documents/runeman.org/clipart/2018/can.png"
   inkscape:export-xdpi="92.283798"
   inkscape:export-ydpi="92.283798">
  <title
     id="title4275">Soda Can</title>
  <defs
     id="defs4">
    <filter
       inkscape:collect="always"
       style="color-interpolation-filters:sRGB"
       id="filter4162"
       x="-0.013592306"
       width="1.0271846"
       y="-0.1024349"
       height="1.2048697">
      <feGaussianBlur
         inkscape:collect="always"
         stdDeviation="1.227168"
         id="feGaussianBlur4164" />
    </filter>
    <filter
       inkscape:collect="always"
       style="color-interpolation-filters:sRGB"
       id="filter4193"
       x="-0.017520471"
       width="1.0350409"
       y="-0.038084734"
       height="1.0761695">
      <feGaussianBlur
         inkscape:collect="always"
         stdDeviation="0.73507978"
         id="feGaussianBlur4195" />
    </filter>
    <filter
       inkscape:collect="always"
       style="color-interpolation-filters:sRGB"
       id="filter4248"
       x="-0.050475858"
       width="1.1009517"
       y="-0.027976641"
       height="1.0559533">
      <feGaussianBlur
         inkscape:collect="always"
         stdDeviation="5.5891083"
         id="feGaussianBlur4250" />
    </filter>
    <filter
       inkscape:collect="always"
       style="color-interpolation-filters:sRGB"
       id="filter4355"
       x="-1.2221102"
       width="3.4442203"
       y="-0.063097813"
       height="1.1261956">
      <feGaussianBlur
         inkscape:collect="always"
         stdDeviation="9.0214848"
         id="feGaussianBlur4357" />
    </filter>
    <filter
       inkscape:collect="always"
       style="color-interpolation-filters:sRGB"
       id="filter4373"
       x="-0.030483323"
       width="1.0609666"
       y="-0.14050935"
       height="1.2810187">
      <feGaussianBlur
         inkscape:collect="always"
         stdDeviation="2.8905393"
         id="feGaussianBlur4375" />
    </filter>
    <filter
       inkscape:collect="always"
       style="color-interpolation-filters:sRGB"
       id="filter4401"
       x="-0.030483323"
       width="1.0609666"
       y="-0.14050935"
       height="1.2810187">
      <feGaussianBlur
         inkscape:collect="always"
         stdDeviation="2.8905393"
         id="feGaussianBlur4403" />
    </filter>
  </defs>
  <sodipodi:namedview
     id="base"
     pagecolor="#ffffff"
     bordercolor="#666666"
     borderopacity="1.0"
     inkscape:pageopacity="0.0"
     inkscape:pageshadow="2"
     inkscape:zoom="0.81508466"
     inkscape:cx="-31.702692"
     inkscape:cy="227.6103"
     inkscape:document-units="px"
     inkscape:current-layer="layer1"
     showgrid="false"
     inkscape:window-width="1366"
     inkscape:window-height="712"
     inkscape:window-x="0"
     inkscape:window-y="0"
     inkscape:window-maximized="1"
     fit-margin-top="0"
     fit-margin-left="0"
     fit-margin-right="0"
     fit-margin-bottom="0">
    <inkscape:grid
       type="xygrid"
       id="grid4228"
       originx="-129.54528"
       originy="-276.56215" />
  </sodipodi:namedview>
  <metadata
     id="metadata7">
    <rdf:RDF>
      <cc:Work
         rdf:about="">
        <dc:format>image/svg+xml</dc:format>
        <dc:type
           rdf:resource="http://purl.org/dc/dcmitype/StillImage" />
        <dc:title>Soda Can</dc:title>
        <dc:date>2018-06-17</dc:date>
        <dc:creator>
          <cc:Agent>
            <dc:title>Algot Runeman</dc:title>
          </cc:Agent>
        </dc:creator>
        <dc:rights>
          <cc:Agent>
            <dc:title>Algot Runeman</dc:title>
          </cc:Agent>
        </dc:rights>
        <dc:publisher>
          <cc:Agent>
            <dc:title>runeman.org</dc:title>
          </cc:Agent>
        </dc:publisher>
        <dc:identifier>can.svg</dc:identifier>
        <cc:license
           rdf:resource="http://creativecommons.org/publicdomain/zero/1.0/" />
      </cc:Work>
      <cc:License
         rdf:about="http://creativecommons.org/publicdomain/zero/1.0/">
        <cc:permits
           rdf:resource="http://creativecommons.org/ns#Reproduction" />
        <cc:permits
           rdf:resource="http://creativecommons.org/ns#Distribution" />
        <cc:permits
           rdf:resource="http://creativecommons.org/ns#DerivativeWorks" />
      </cc:License>
    </rdf:RDF>
  </metadata>
  <g
     inkscape:label="Layer 1"
     inkscape:groupmode="layer"
     id="layer1"
     transform="translate(-129.54529,-242.69112)">
    <path
       sodipodi:nodetypes="sssssssss"
       inkscape:connector-curvature="0"
       id="path4238"
       d="m 160.67569,309.49459 c 17.71653,-35.43307 212.59842,-35.43307 230.31496,0 7.92307,15.84615 17.71653,22.22795 17.71653,35.43307 l 0,372.04724 c 0,8.35165 -17.71653,17.71654 -17.71653,17.71654 -41.50782,37.82724 -185.60737,36.01431 -230.59843,0 0,0 -17.43307,-10.73086 -17.43307,-19.43307 l 0,-370.33071 c 0,-13.20513 11.81103,-23.62204 17.71654,-35.43307 z"
       style="fill:#000000;fill-rule:evenodd;stroke:#000000;stroke-width:1px;stroke-linecap:butt;stroke-linejoin:miter;stroke-opacity:1;filter:url(#filter4248)" />
    <path
       style="fill:#00ffff;fill-rule:evenodd;stroke:#000000;stroke-width:1px;stroke-linecap:butt;stroke-linejoin:miter;stroke-opacity:1"
       d="m 159.44882,308.26772 c 17.71653,-35.43307 212.59842,-35.43307 230.31496,0 7.92307,15.84615 17.71653,22.22795 17.71653,35.43307 l 0,372.04724 c 0,8.35165 -17.71653,17.71654 -17.71653,17.71654 -41.50782,37.82724 -185.60737,36.01431 -230.59843,0 0,0 -17.43307,-10.73086 -17.43307,-19.43307 l 0,-370.33071 c 0,-13.20513 11.81103,-23.62204 17.71654,-35.43307 z"
       id="path4230"
       inkscape:connector-curvature="0"
       sodipodi:nodetypes="sssssssss" />
    <ellipse
       ry="34.977356"
       rx="119.27319"
       cy="297.59018"
       cx="274.93414"
       id="ellipse4166"
       style="opacity:1;fill:#999999;fill-opacity:1;stroke:#000000;stroke-width:1.07568479;stroke-linecap:round;stroke-linejoin:bevel;stroke-miterlimit:4;stroke-dasharray:none;stroke-dashoffset:0;stroke-opacity:1" />
    <ellipse
       style="opacity:1;fill:#ffffff;fill-opacity:1;stroke:#000000;stroke-width:0.25;stroke-linecap:round;stroke-linejoin:bevel;stroke-miterlimit:4;stroke-dasharray:none;stroke-dashoffset:0;stroke-opacity:1"
       id="path3336"
       cx="274.28571"
       cy="294.34802"
       rx="113.47517"
       ry="31.77305" />
    <ellipse
       ry="26.799036"
       rx="108.33905"
       cy="298.4007"
       cx="272.98883"
       id="ellipse3351"
       style="opacity:1;fill:#f2f2f2;fill-opacity:1;stroke:#000000;stroke-width:0.89737141;stroke-linecap:round;stroke-linejoin:bevel;stroke-miterlimit:4;stroke-dasharray:none;stroke-dashoffset:0;stroke-opacity:1" />
    <path
       style="opacity:1;fill:#f2f2f2;fill-opacity:1;stroke:#000000;stroke-width:0.5;stroke-linecap:round;stroke-linejoin:bevel;stroke-miterlimit:4;stroke-dasharray:none;stroke-dashoffset:0;stroke-opacity:1;filter:url(#filter4193)"
       d="m 262.84872,277.26984 c -14.13217,-0.16905 -24.81329,2.96006 -24.46285,7.16658 1.16762,9.2773 1.7123,15.40152 8.95633,26.55816 6.17253,15.53737 32.47776,12.6925 46.88927,12.50708 25.38887,0.83652 45.45733,-4.63673 44.82462,-12.22499 -1.03162,-4.27912 -2.60791,-7.05936 -5.21207,-9.60742 -9.8034,-9.59222 -36.58594,-18.82881 -36.58594,-18.82881 -4.60807,-3.01167 -21.88336,-5.17365 -32.49972,-5.52758 -0.6377,-0.021 -1.27466,-0.0353 -1.90966,-0.0429 z"
       id="path4182"
       inkscape:connector-curvature="0"
       sodipodi:nodetypes="cccccscccc" />
    <ellipse
       style="opacity:1;fill:#1a1a1a;fill-opacity:1;stroke:#000000;stroke-width:1;stroke-linecap:round;stroke-linejoin:bevel;stroke-miterlimit:4;stroke-dasharray:none;stroke-dashoffset:0;stroke-opacity:1"
       id="path3338"
       cx="284.0419"
       cy="313.33212"
       rx="35.663628"
       ry="12.968592"
       transform="matrix(0.9996824,-0.02520106,0.02520106,0.9996824,0,0)" />
    <path
       style="opacity:1;fill:#333333;fill-opacity:1;stroke:#000000;stroke-width:0.89468133;stroke-linecap:round;stroke-linejoin:bevel;stroke-miterlimit:4;stroke-dasharray:none;stroke-dashoffset:0;stroke-opacity:1;filter:url(#filter4162)"
       d="m 272.98801,271.5995 a 108.34039,26.638273 0 0 0 -108.33984,26.63867 108.34039,26.638273 0 0 0 0.38476,2.11328 108.34039,26.638273 0 0 1 107.95508,-24.75195 108.34039,26.638273 0 0 1 107.95703,24.52539 108.34039,26.638273 0 0 0 0.38477,-1.88672 108.34039,26.638273 0 0 0 -108.3418,-26.63867 z"
       id="ellipse3353"
       inkscape:connector-curvature="0"
       transform="matrix(1,-0.0058267,0,1,0,1.5906233)" />
    <ellipse
       style="opacity:1;fill:#f2f2f2;fill-opacity:1;stroke:#000000;stroke-width:0.61732566;stroke-linecap:round;stroke-linejoin:bevel;stroke-miterlimit:4;stroke-dasharray:none;stroke-dashoffset:0;stroke-opacity:1"
       id="path4197"
       cx="109.77765"
       cy="370.44"
       rx="6.2863698"
       ry="7.931777"
       transform="matrix(0.95417748,-0.29924127,0.48129841,0.87655681,0,0)" />
    <path
       transform="matrix(0.88852942,-0.00420734,0,0.72207873,30.890314,75.873117)"
       inkscape:connector-curvature="0"
       id="path4226"
       d="m 272.98801,271.5995 c -59.83516,7e-5 -104.73759,13.22195 -114.40217,26.60334 0.0144,0.70541 0.14275,1.41039 0.38476,2.11328 20.59251,-15.96144 57.54852,-25.12477 114.36261,-25.13938 56.48614,0.005 92.77562,11.04299 112.44457,24.97631 0.21894,-0.62759 0.34728,-1.25689 0.38477,-1.88672 -16.22331,-16.08104 -53.33861,-26.66702 -113.17454,-26.66683 z"
       style="opacity:1;fill:#ffffff;fill-opacity:1;stroke:#000000;stroke-width:0.89468133;stroke-linecap:round;stroke-linejoin:bevel;stroke-miterlimit:4;stroke-dasharray:none;stroke-dashoffset:0;stroke-opacity:1;filter:url(#filter4162)"
       sodipodi:nodetypes="scccccs" />
    <g
       id="g4222"
       transform="matrix(1.3030803,0,0.1851147,0.99774005,-139.65531,0.62051469)">
      <path
         style="opacity:1;fill:#f2f2f2;fill-opacity:1;stroke:#000000;stroke-width:1.01042068;stroke-linecap:round;stroke-linejoin:bevel;stroke-miterlimit:4;stroke-dasharray:none;stroke-dashoffset:0;stroke-opacity:1"
         d="m 266.6817,243.77254 c -9.92268,0 -15.70728,7.67894 -12.97071,17.2168 l 7.97852,27.81054 c 2.73658,9.53786 12.92889,17.2168 22.85156,17.2168 l 0.48047,0 c 9.92268,0 15.70924,-7.67894 12.97266,-17.2168 l -7.98047,-27.81054 c -2.73658,-9.53786 -12.92693,-17.2168 -22.84961,-17.2168 z m -1.99024,6.62305 8.26367,0 c 3.81642,0 7.73458,2.95268 8.78711,6.62109 1.05254,3.6684 -1.17186,8.62109 -4.98828,8.62109 l -8.26367,0 c -3.81641,0 -7.73653,-4.95269 -8.78906,-8.62109 -1.05253,-3.66841 1.17382,-6.62109 4.99023,-6.62109 z m 7.375,21.18945 5.67188,0 c 3.81641,0 7.73458,2.95269 8.78711,6.62109 l 3.41992,11.91797 c 1.05253,3.66841 -1.17187,6.62305 -4.98828,6.62305 l -5.66992,0 c -3.81642,0 -7.73653,-2.95464 -8.78907,-6.62305 l -3.41992,-11.91797 c -1.05253,-3.6684 1.17187,-6.62109 4.98828,-6.62109 z"
         id="path4220"
         inkscape:connector-curvature="0"
         sodipodi:nodetypes="sccssccsssssssssssccssccs" />
      <path
         sodipodi:nodetypes="sccssccsssssssssssccssccs"
         inkscape:connector-curvature="0"
         id="rect3340"
         d="m 267.70907,243.12412 c -9.92268,0 -15.70728,7.67894 -12.97071,17.2168 l 7.97852,27.81054 c 2.73658,9.53786 12.92889,17.2168 22.85156,17.2168 l 0.48047,0 c 9.92268,0 15.70924,-7.67894 12.97266,-17.2168 l -7.98047,-27.81054 c -2.73658,-9.53786 -12.92693,-17.2168 -22.84961,-17.2168 z m -1.99024,6.62305 8.26367,0 c 3.81642,0 7.73458,2.95268 8.78711,6.62109 1.05254,3.6684 -1.17186,8.62109 -4.98828,8.62109 l -8.26367,0 c -3.81641,0 -7.73653,-4.95269 -8.78906,-8.62109 -1.05253,-3.66841 1.17382,-6.62109 4.99023,-6.62109 z m 7.375,21.18945 5.67188,0 c 3.81641,0 7.73458,2.95269 8.78711,6.62109 l 3.41992,11.91797 c 1.05253,3.66841 -1.17187,6.62305 -4.98828,6.62305 l -5.66992,0 c -3.81642,0 -7.73653,-2.95464 -8.78907,-6.62305 l -3.41992,-11.91797 c -1.05253,-3.6684 1.17187,-6.62109 4.98828,-6.62109 z"
         style="opacity:1;fill:#f2f2f2;fill-opacity:1;stroke:#000000;stroke-width:1.01042068;stroke-linecap:round;stroke-linejoin:bevel;stroke-miterlimit:4;stroke-dasharray:none;stroke-dashoffset:0;stroke-opacity:1" />
    </g>
    <ellipse
       style="opacity:1;fill:#f2f2f2;fill-opacity:1;stroke:#000000;stroke-width:0.63148612;stroke-linecap:round;stroke-linejoin:bevel;stroke-miterlimit:4;stroke-dasharray:none;stroke-dashoffset:0;stroke-opacity:1"
       id="path4199"
       cx="282.87738"
       cy="291.05115"
       rx="4.3111567"
       ry="2.5279753" />
    <path
       style="fill:none;fill-rule:evenodd;stroke:#000000;stroke-width:1px;stroke-linecap:butt;stroke-linejoin:miter;stroke-opacity:1"
       d="m 209.52846,504.66688 -28.26657,-4.61908 -3.40481,27.02723 27.05229,5.85842 -2.20306,24.5611 -28.25404,-3.39228 0,0"
       id="path4265"
       inkscape:connector-curvature="0" />
    <path
       style="fill:none;fill-rule:evenodd;stroke:#000000;stroke-width:1px;stroke-linecap:butt;stroke-linejoin:miter;stroke-opacity:1"
       d="m 262.33571,509.48914 -31.92192,-2.1279 -0.69277,52.31132 33.14872,2.11537 z"
       id="path4267"
       inkscape:connector-curvature="0"
       sodipodi:nodetypes="ccccc" />
    <path
       style="fill:none;fill-rule:evenodd;stroke:#000000;stroke-width:1px;stroke-linecap:butt;stroke-linejoin:miter;stroke-opacity:1"
       d="m 288.10645,509.99916 1.75295,51.51317 30.63248,-3.99358 -0.53077,-51.97941 z"
       id="path4269"
       inkscape:connector-curvature="0"
       sodipodi:nodetypes="ccccc" />
    <path
       style="fill:none;fill-rule:evenodd;stroke:#000000;stroke-width:1px;stroke-linecap:butt;stroke-linejoin:miter;stroke-opacity:1"
       d="m 345.00287,554.81461 12.48992,-54.11248 23.83539,51.28769"
       id="path4271"
       inkscape:connector-curvature="0"
       sodipodi:nodetypes="ccc" />
    <path
       style="fill:none;fill-rule:evenodd;stroke:#000000;stroke-width:1px;stroke-linecap:butt;stroke-linejoin:miter;stroke-opacity:1"
       d="m 374.23317,533.65831 -26.95207,3.95601"
       id="path4273"
       inkscape:connector-curvature="0" />
    <path
       style="opacity:0.33200001;fill:#000080;fill-rule:evenodd;stroke:none;stroke-width:1px;stroke-linecap:butt;stroke-linejoin:miter;stroke-opacity:1;filter:url(#filter4355)"
       d="m 170.57209,384.72781 17.71654,0 0,343.14285 -17.71654,0 z"
       id="path4405"
       inkscape:connector-curvature="0"
       transform="matrix(1.9083864,0,0,1.1870553,-159.31152,-124.30203)" />
    <path
       style="opacity:0.33200001;fill:#000080;fill-rule:evenodd;stroke:none;stroke-width:1px;stroke-linecap:butt;stroke-linejoin:miter;stroke-opacity:1;filter:url(#filter4355)"
       d="m 170.57209,384.72781 17.71654,0 0,343.14285 -17.71654,0 z"
       id="path4409"
       inkscape:connector-curvature="0"
       transform="matrix(3.0096541,0,0,1.187067,-174.98097,-127.98919)" />
    <path
       transform="matrix(3.21654,0,0,1.1795947,-255.04293,-109.10988)"
       inkscape:connector-curvature="0"
       id="path4407"
       d="m 170.57209,384.72781 17.71654,0 0,343.14285 -17.71654,0 z"
       style="opacity:0.33200001;fill:#000080;fill-rule:evenodd;stroke:none;stroke-width:1px;stroke-linecap:butt;stroke-linejoin:miter;stroke-opacity:1;filter:url(#filter4355)" />
    <path
       transform="matrix(1.1518924,0.0040811,0,-0.70041278,-39.975463,921.9778)"
       inkscape:connector-curvature="0"
       id="path4236"
       d="m 272.98801,251.61128 c -59.83516,7e-5 -104.73759,33.21017 -114.40217,46.59156 0.0144,0.70541 0.14275,1.41039 0.38476,2.11328 20.59251,-15.96144 57.54852,-42.25753 114.36261,-42.27214 56.48614,0.005 92.77562,28.17575 112.44457,42.10907 0.21894,-0.62759 0.34728,-1.25689 0.38477,-1.88672 -16.22331,-16.08104 -53.33861,-46.65524 -113.17454,-46.65505 z"
       style="opacity:1;fill:#ffffff;fill-opacity:1;stroke:none;stroke-width:0.89468133;stroke-linecap:round;stroke-linejoin:bevel;stroke-miterlimit:4;stroke-dasharray:none;stroke-dashoffset:0;stroke-opacity:1;filter:url(#filter4401)"
       sodipodi:nodetypes="scccccs" />
    <path
       style="opacity:0.374;fill:#ffffff;fill-rule:evenodd;stroke:none;stroke-width:1px;stroke-linecap:butt;stroke-linejoin:miter;stroke-opacity:1;filter:url(#filter4355)"
       d="m 218.57209,384.72781 17.71654,0 0,343.14285 -17.71654,0 z"
       id="path4277"
       inkscape:connector-curvature="0" />
    <g
       style="font-style:normal;font-variant:normal;font-weight:normal;font-stretch:normal;font-size:90px;line-height:125%;font-family:'Academic M54';-inkscape-font-specification:'Academic M54';text-align:center;letter-spacing:0px;word-spacing:0px;text-anchor:middle;fill:#d40000;fill-opacity:1;stroke:#000000;stroke-width:1px;stroke-linecap:butt;stroke-linejoin:miter;stroke-opacity:1"
       id="text4252"
       transform="matrix(1.1887142,-0.01213815,0.01021063,0.99994787,-56.21653,3.4012635)">
      <path
         d="m 220.84806,558.17525 -8.76332,6.4219 -21.92169,-3.26897 -7.51387,-7.93819 1.03124,-11.07023 12.6892,1.18205 -0.51766,5.557 12.82047,2.42116 1.42663,-15.31456 -17.32734,-1.61411 -7.5098,-7.98194 2.4497,-27.52415 8.8549,-6.45751 13.25803,2.46191 3.73507,3.96706 0.33423,-3.58799 12.6892,1.18206 -1.69971,18.2462 -12.6892,-1.18205 0.51766,-5.557 -12.82048,-2.42116 -1.42662,16.54144 17.41484,1.62226 7.4223,7.9738 z"
         id="path4257"
         inkscape:connector-curvature="0"
         sodipodi:nodetypes="ccccccccccccccccccccccccc"
         style="fill:#d40000;stroke:#000000" />
      <path
         d="m 311.74224,499.02559 8.26659,7.2894 0.0364,53.26531 -8.25687,7.25649 -35.02441,1.25027 -0.009,-12.74415 3.64747,-0.002 -0.0291,-42.32293 -3.64747,0.002 -0.009,-12.74413 16.43554,-0.011 0.002,3.60352 4.08452,-3.60625 z m -4.44481,55.07006 -0.0291,-42.32293 -14.10644,1.23587 0.0291,42.32293 z"
         id="path4261"
         inkscape:connector-curvature="0"
         sodipodi:nodetypes="ccccccccccccccccccc"
         style="fill:#d40000;stroke:#000000" />
      <path
         d="m 353.23432,562.30235 -1.45653,-12.66063 3.57991,-0.41185 -1.7293,-5.41893 -12.13674,2.62313 -0.45357,5.67005 3.66721,-0.42189 1.45654,12.66064 -19.95141,2.2953 -1.45654,-12.66064 3.36161,-0.38674 4.74243,-57.21084 17.81219,-3.27606 17.61015,54.63931 3.44893,-0.39678 1.45653,12.66063 z m -10.62341,-28.82524 7.02883,-0.80863 -5.56032,-17.18708 z"
         id="path4263"
         inkscape:connector-curvature="0"
         sodipodi:nodetypes="ccccccccccccccccccccc"
         style="fill:#d40000;stroke:#000000" />
      <path
         d="m 270.57009,560.87319 -8.2217,7.20256 -23.73046,-1.23977 -8.12595,-7.21148 0.0297,-53.35318 8.13383,-7.24655 23.73047,1.23976 8.21381,7.25546 z m -12.78508,-5.54407 0.0237,-42.32294 -14.54588,-1.23486 -0.0237,42.32293 z"
         id="path4259"
         inkscape:connector-curvature="0"
         sodipodi:nodetypes="cccccccccccccc"
         style="fill:#d40000;stroke:#000000" />
    </g>
    <path
       inkscape:connector-curvature="0"
       id="path4359"
       d="m 218.57209,384.72781 17.71654,0 0,343.14285 -17.71654,0 z"
       style="opacity:0.332;fill:#ffffff;fill-rule:evenodd;stroke:none;stroke-width:1px;stroke-linecap:butt;stroke-linejoin:miter;stroke-opacity:1;filter:url(#filter4355)" />
    <path
       sodipodi:nodetypes="scccccs"
       style="opacity:1;fill:#ffffff;fill-opacity:1;stroke:none;stroke-width:0.89468133;stroke-linecap:round;stroke-linejoin:bevel;stroke-miterlimit:4;stroke-dasharray:none;stroke-dashoffset:0;stroke-opacity:1;filter:url(#filter4373)"
       d="m 272.98801,251.61128 c -59.83516,7e-5 -104.73759,33.21017 -114.40217,46.59156 0.0144,0.70541 0.14275,1.41039 0.38476,2.11328 20.59251,-15.96144 57.54852,-42.25753 114.36261,-42.27214 56.48614,0.005 92.77562,28.17575 112.44457,42.10907 0.21894,-0.62759 0.34728,-1.25689 0.38477,-1.88672 -16.22331,-16.08104 -53.33861,-46.65524 -113.17454,-46.65505 z"
       id="path4234"
       inkscape:connector-curvature="0"
       transform="matrix(1.1518924,0.0040811,0,-0.70041278,-39.975463,545.9778)" />
  </g>
</svg>
