<?xml version="1.0" encoding="iso-8859-1"?>
<!-- Uploaded to: SVG Repo, www.svgrepo.com, Generator: SVG Repo Mixer Tools -->
<svg fill="green" height="800px" width="800px" version="1.1" id="Layer_1" xmlns="http://www.w3.org/2000/svg" xmlns:xlink="http://www.w3.org/1999/xlink" 
	 viewBox="0 0 462.988 462.988" xml:space="preserve">
<g>
	<g>
		<path d="M299.044,132.188L299.044,132.188l-23.1-43.4c-5.7-10.4-9.2-22.5-9.8-33.7h1.9c4.1,0,7.5-3.4,7.5-7.5v-37.3
			c0-3.7-2.6-6.8-6.2-7.4c-22.4-3.8-49.3-3.9-75.7,0c-3.7,0.5-6.4,3.7-6.4,7.4v37.3c0,4.1,3.4,7.5,7.5,7.5h1.9
			c-0.7,11.2-4.2,23.3-9.9,33.8l-23,43.4c-8.1,13.6-11.8,28.2-11.8,46v94.5c0,0.6,0.1,1.2,0.2,1.8l13.6,55.9
			c2.2,10.3,1.4,21.3-2.5,31.8c0,0.1-0.1,0.2-0.1,0.3l-5.3,17.1c-4.5,11-6,22.3-4.4,33.4c0,0.3,0.1,0.6,0.2,1
			c1.7,6.3,2.3,9.4,2.9,12.6c0.3,1.6,0.6,3.2,1,5.2c0.9,7.6,4.7,14.4,10.9,19c7.2,5.4,16.8,7.5,26.4,5.8c0.1,0,0.2,0,0.3-0.1
			l6.9-1.6c6.9,5.8,15.5,8,21.3,8h16.3c8.1,0,13.3-3.5,17.9-6.6c0.8-0.5,1.6-1.1,2.4-1.6l7.9,1.8c0.1,0,0.2,0,0.3,0.1
			c9.6,1.8,19.2-0.4,26.4-5.8c6.2-4.6,10-11.4,10.9-19c0.4-2,0.7-3.7,1-5.2c0.6-3.2,1.1-6.3,2.9-12.6c0.1-0.3,0.2-0.6,0.2-1
			c1.5-11.1,0-22.4-4.4-33.4l-5.3-17.1c0-0.1-0.1-0.2-0.1-0.3c-3.8-10.5-4.7-21.5-2.5-31.8l13.6-55.9c0.1-0.6,0.2-1.2,0.2-1.8v-94.5
			C310.844,160.388,307.044,145.788,299.044,132.188z M202.144,16.888L202.144,16.888c20.4-2.4,40.7-2.5,58.4-0.1v23.4h-58.4V16.888
			z M176.644,139.688c0.1-0.1,0.1-0.2,0.2-0.3l0,0l23.1-43.4c6.9-12.5,11-27.2,11.7-40.9h39.5c0.7,13.6,4.8,28.3,11.6,40.8
			l23.1,43.5c0.1,0.1,0.1,0.2,0.2,0.3c4.8,8.1,7.7,16.4,9,26h-127.4C168.944,156.088,171.844,147.788,176.644,139.688z
			 M294.644,410.488c-1.8,6.6-2.4,10.1-3,13.4c-0.3,1.6-0.6,3.2-1,5.1c-0.1,0.3-0.1,0.6-0.1,0.9c-0.5,4.6-3,7.5-5.1,9
			c-3.8,2.8-9.2,4-14.5,3l-10.7-2.4c-1.8-0.4-3.7-0.1-5.3,0.7c-2.2,1.2-4.2,2.6-5.9,3.7c-4,2.7-6.1,4.1-9.5,4.1h-16.3
			c-3.9,0-9.7-1.9-13.4-6.1c-1.8-2.1-4.6-3-7.3-2.4l-10.7,2.4c-5.3,0.9-10.7-0.2-14.5-3c-2.1-1.5-4.6-4.4-5.1-9
			c0-0.3-0.1-0.6-0.1-0.9c-0.4-1.9-0.7-3.5-1-5.1c-0.6-3.3-1.2-6.8-3-13.4c-1.1-8.5,0.1-16.9,3.6-25.5c0.1-0.2,0.2-0.4,0.2-0.6
			l5.4-17.2c4.8-13.2,5.8-27,2.9-40.1c0-0.1,0-0.1,0-0.2l-11.3-46.7h124.9l-11.3,46.7c0,0.1,0,0.1,0,0.2c-2.8,13-1.8,26.9,2.9,40.1
			l5.4,17.2c0.1,0.2,0.1,0.4,0.2,0.6C294.544,393.588,295.744,401.988,294.644,410.488z M295.844,265.188h-129v-84.5h129V265.188z"
			/>
	</g>
</g>
</svg>