<?xml version="1.0" encoding="UTF-8" standalone="no"?>
<!-- Created with Inkscape (http://www.inkscape.org/) -->

<svg
   xmlns:dc="http://purl.org/dc/elements/1.1/"
   xmlns:cc="http://creativecommons.org/ns#"
   xmlns:rdf="http://www.w3.org/1999/02/22-rdf-syntax-ns#"
   xmlns:svg="http://www.w3.org/2000/svg"
   xmlns="http://www.w3.org/2000/svg"
   xmlns:xlink="http://www.w3.org/1999/xlink"
   xmlns:sodipodi="http://sodipodi.sourceforge.net/DTD/sodipodi-0.dtd"
   xmlns:inkscape="http://www.inkscape.org/namespaces/inkscape"
   id="svg1310"
   sodipodi:docname="hotdog.svg"
   viewBox="0 0 345.15 231.42"
   sodipodi:version="0.32"
   version="1.0"
   inkscape:output_extension="org.inkscape.output.svg.inkscape"
   inkscape:version="0.92.3 (2405546, 2018-03-11)">
  <title
     id="title4755">Hot Dog with sausage, bun and mustard</title>
  <defs
     id="defs15">
    <linearGradient
       inkscape:collect="always"
       id="linearGradient4751">
      <stop
         style="stop-color:#ffbc2a;stop-opacity:1;"
         offset="0"
         id="stop4747" />
      <stop
         style="stop-color:#ffce25;stop-opacity:1"
         offset="1"
         id="stop4749" />
    </linearGradient>
    <linearGradient
       id="linearGradient4741"
       inkscape:collect="always">
      <stop
         id="stop4737"
         offset="0"
         style="stop-color:#9e2d20;stop-opacity:1" />
      <stop
         id="stop4739"
         offset="1"
         style="stop-color:#bc482b;stop-opacity:1" />
    </linearGradient>
    <linearGradient
       inkscape:collect="always"
       id="linearGradient4588">
      <stop
         style="stop-color:#b17c3c;stop-opacity:1;"
         offset="0"
         id="stop4584" />
      <stop
         style="stop-color:#f6e0a1;stop-opacity:1"
         offset="1"
         id="stop4586" />
    </linearGradient>
    <linearGradient
       inkscape:collect="always"
       id="linearGradient21">
      <stop
         style="stop-color:#ffffff;stop-opacity:1;"
         offset="0"
         id="stop17" />
      <stop
         style="stop-color:#ffffff;stop-opacity:0;"
         offset="1"
         id="stop19" />
    </linearGradient>
    <linearGradient
       inkscape:collect="always"
       xlink:href="#linearGradient21"
       id="linearGradient23"
       x1="393.96512"
       y1="330.35223"
       x2="309.11459"
       y2="230.69194"
       gradientUnits="userSpaceOnUse" />
    <linearGradient
       inkscape:collect="always"
       xlink:href="#linearGradient4588"
       id="linearGradient4590"
       x1="810.66028"
       y1="463.73102"
       x2="731.17896"
       y2="309.60992"
       gradientUnits="userSpaceOnUse"
       gradientTransform="matrix(1.2515,0,0,1.2515,-630.07557,-230.14017)" />
    <linearGradient
       inkscape:collect="always"
       xlink:href="#linearGradient4588"
       id="linearGradient4639"
       gradientUnits="userSpaceOnUse"
       x1="741.01196"
       y1="344.70709"
       x2="713.05371"
       y2="279.66138"
       gradientTransform="matrix(1.2515,0,0,1.2515,-629.16,-229.81)" />
    <linearGradient
       inkscape:collect="always"
       xlink:href="#linearGradient21"
       id="linearGradient4645"
       gradientUnits="userSpaceOnUse"
       x1="393.96512"
       y1="330.35223"
       x2="309.11459"
       y2="230.69194"
       gradientTransform="matrix(1.2515,0,0,1.2515,-628.52884,-229.81)" />
    <linearGradient
       inkscape:collect="always"
       xlink:href="#linearGradient4741"
       id="linearGradient4743"
       gradientUnits="userSpaceOnUse"
       x1="295.50412"
       y1="143.52884"
       x2="322.26532"
       y2="218.25819" />
    <linearGradient
       inkscape:collect="always"
       xlink:href="#linearGradient4751"
       id="linearGradient4753"
       x1="320.24561"
       y1="188.46744"
       x2="343.97723"
       y2="219.26807"
       gradientUnits="userSpaceOnUse" />
  </defs>
  <sodipodi:namedview
     id="namedview1314"
     bordercolor="#666666"
     inkscape:pageshadow="2"
     inkscape:window-y="-8"
     pagecolor="#ffffff"
     inkscape:window-height="1377"
     inkscape:zoom="2.2627417"
     inkscape:window-x="-8"
     borderopacity="1.0"
     inkscape:current-layer="g1322"
     inkscape:cx="95.048354"
     inkscape:cy="76.529405"
     inkscape:window-width="2560"
     inkscape:pageopacity="0.0"
     inkscape:document-units="pt"
     showgrid="false"
     inkscape:window-maximized="1" />
  <g
     id="layer1"
     inkscape:label="Layer 1"
     inkscape:groupmode="layer"
     transform="translate(-41.798 -96.791)">
    <path
       style="fill:#ffbc2a;fill-opacity:0;stroke-width:1.21041667;stroke-miterlimit:4;stroke-dasharray:none"
       d="m 132.69343,227.04601 c -13.4004,-1.02586 -26.61913,-3.74761 -39.348833,-8.10198 -7.351778,-2.51478 -11.940303,-4.45565 -20.421168,-8.63782 -8.853447,-4.3659 -10.750342,-5.70407 -16.952725,-11.95928 -6.611563,-6.66787 -11.524258,-14.57338 -13.32228,-21.43821 -1.13203,-4.32207 -1.195108,-10.0129 -0.154138,-13.90625 3.554063,-13.29261 16.932333,-22.76766 34.886643,-24.70818 4.591312,-0.49623 12.386178,-0.2035 17.303631,0.64983 8.01302,1.3905 14.38337,3.52985 23.98223,8.05394 7.8045,3.67838 12.80571,5.37443 19.79752,6.71388 3.13949,0.60145 4.61127,0.68847 11.41662,0.67507 7.16476,-0.0141 8.16614,-0.0848 12.07784,-0.85216 8.0975,-1.58854 15.42033,-4.17412 24.01591,-8.47964 14.35973,-7.19279 27.80418,-16.82365 53.4375,-38.2797 29.73588,-24.890037 42.00599,-34.689099 49.64524,-39.647299 5.78513,-3.754799 12.19983,-6.534173 17.85476,-7.736146 5.2212,-1.109782 11.73908,-0.502216 16.30468,1.519845 14.00726,6.203678 20.7424,25.782183 16.61972,48.31218 -2.06479,11.28386 -7.81279,24.4129 -15.19889,34.71588 -7.19258,10.03303 -17.11653,19.77905 -27.88176,27.38184 -10.14703,7.1662 -32.69033,19.98872 -49.87323,28.36766 -31.96511,15.58723 -59.11747,24.0161 -86.68927,26.91082 -5.60827,0.5888 -22.13246,0.85663 -27.5,0.44572 z"
       id="path4562"
       inkscape:connector-curvature="0"
       transform="translate(41.798,96.791)" />
    <path
       style="fill:#ffbc2a;fill-opacity:0;stroke-width:1.21041667;stroke-miterlimit:4;stroke-dasharray:none"
       d="m 132.69343,227.04601 c -13.4004,-1.02586 -26.61913,-3.74761 -39.348833,-8.10198 -7.351778,-2.51478 -11.940303,-4.45565 -20.421168,-8.63782 -8.853447,-4.3659 -10.750342,-5.70407 -16.952725,-11.95928 -6.611563,-6.66787 -11.524258,-14.57338 -13.32228,-21.43821 -1.13203,-4.32207 -1.195108,-10.0129 -0.154138,-13.90625 3.554063,-13.29261 16.932333,-22.76766 34.886643,-24.70818 4.591312,-0.49623 12.386178,-0.2035 17.303631,0.64983 8.01302,1.3905 14.38337,3.52985 23.98223,8.05394 7.8045,3.67838 12.80571,5.37443 19.79752,6.71388 3.13949,0.60145 4.61127,0.68847 11.41662,0.67507 7.16476,-0.0141 8.16614,-0.0848 12.07784,-0.85216 8.0975,-1.58854 15.42033,-4.17412 24.01591,-8.47964 14.35973,-7.19279 27.80418,-16.82365 53.4375,-38.2797 29.73588,-24.890037 42.00599,-34.689099 49.64524,-39.647299 5.78513,-3.754799 12.19983,-6.534173 17.85476,-7.736146 5.2212,-1.109782 11.73908,-0.502216 16.30468,1.519845 14.00726,6.203678 20.7424,25.782183 16.61972,48.31218 -2.06479,11.28386 -7.81279,24.4129 -15.19889,34.71588 -7.19258,10.03303 -17.11653,19.77905 -27.88176,27.38184 -10.14703,7.1662 -32.69033,19.98872 -49.87323,28.36766 -31.96511,15.58723 -59.11747,24.0161 -86.68927,26.91082 -5.60827,0.5888 -22.13246,0.85663 -27.5,0.44572 z"
       id="path4566"
       inkscape:connector-curvature="0"
       transform="translate(41.798,96.791)" />
    <path
       style="fill:#ffbc2a;fill-opacity:0;stroke-width:1.21041667;stroke-miterlimit:4;stroke-dasharray:none"
       d="m 132.69343,227.04601 c -13.4004,-1.02586 -26.61913,-3.74761 -39.348833,-8.10198 -7.351778,-2.51478 -11.940303,-4.45565 -20.421168,-8.63782 -8.853447,-4.3659 -10.750342,-5.70407 -16.952725,-11.95928 -6.611563,-6.66787 -11.524258,-14.57338 -13.32228,-21.43821 -1.13203,-4.32207 -1.195108,-10.0129 -0.154138,-13.90625 3.554063,-13.29261 16.932333,-22.76766 34.886643,-24.70818 4.591312,-0.49623 12.386178,-0.2035 17.303631,0.64983 8.01302,1.3905 14.38337,3.52985 23.98223,8.05394 7.8045,3.67838 12.80571,5.37443 19.79752,6.71388 3.13949,0.60145 4.61127,0.68847 11.41662,0.67507 7.16476,-0.0141 8.16614,-0.0848 12.07784,-0.85216 8.0975,-1.58854 15.42033,-4.17412 24.01591,-8.47964 14.35973,-7.19279 27.80418,-16.82365 53.4375,-38.2797 29.73588,-24.890037 42.00599,-34.689099 49.64524,-39.647299 5.78513,-3.754799 12.19983,-6.534173 17.85476,-7.736146 5.2212,-1.109782 11.73908,-0.502216 16.30468,1.519845 14.00726,6.203678 20.7424,25.782183 16.61972,48.31218 -2.06479,11.28386 -7.81279,24.4129 -15.19889,34.71588 -7.19258,10.03303 -17.11653,19.77905 -27.88176,27.38184 -10.14703,7.1662 -32.69033,19.98872 -49.87323,28.36766 -31.96511,15.58723 -59.11747,24.0161 -86.68927,26.91082 -5.60827,0.5888 -22.13246,0.85663 -27.5,0.44572 z"
       id="path4568"
       inkscape:connector-curvature="0"
       transform="translate(41.798,96.791)" />
    <path
       style="fill:#ffbc2a;fill-opacity:0;stroke-width:1.21041667;stroke-miterlimit:4;stroke-dasharray:none"
       d="m 132.69343,227.04601 c -13.4004,-1.02586 -26.61913,-3.74761 -39.348833,-8.10198 -7.351778,-2.51478 -11.940303,-4.45565 -20.421168,-8.63782 -8.853447,-4.3659 -10.750342,-5.70407 -16.952725,-11.95928 -6.611563,-6.66787 -11.524258,-14.57338 -13.32228,-21.43821 -1.13203,-4.32207 -1.195108,-10.0129 -0.154138,-13.90625 3.554063,-13.29261 16.932333,-22.76766 34.886643,-24.70818 4.591312,-0.49623 12.386178,-0.2035 17.303631,0.64983 8.01302,1.3905 14.38337,3.52985 23.98223,8.05394 7.8045,3.67838 12.80571,5.37443 19.79752,6.71388 3.13949,0.60145 4.61127,0.68847 11.41662,0.67507 7.16476,-0.0141 8.16614,-0.0848 12.07784,-0.85216 8.0975,-1.58854 15.42033,-4.17412 24.01591,-8.47964 14.35973,-7.19279 27.80418,-16.82365 53.4375,-38.2797 29.73588,-24.890037 42.00599,-34.689099 49.64524,-39.647299 5.78513,-3.754799 12.19983,-6.534173 17.85476,-7.736146 5.2212,-1.109782 11.73908,-0.502216 16.30468,1.519845 14.00726,6.203678 20.7424,25.782183 16.61972,48.31218 -2.06479,11.28386 -7.81279,24.4129 -15.19889,34.71588 -7.19258,10.03303 -17.11653,19.77905 -27.88176,27.38184 -10.14703,7.1662 -32.69033,19.98872 -49.87323,28.36766 -31.96511,15.58723 -59.11747,24.0161 -86.68927,26.91082 -5.60827,0.5888 -22.13246,0.85663 -27.5,0.44572 z"
       id="path4570"
       inkscape:connector-curvature="0"
       transform="translate(41.798,96.791)" />
    <path
       style="fill:#ffbc2a;fill-opacity:0;stroke-width:1.21041667;stroke-miterlimit:4;stroke-dasharray:none"
       d="m 132.69343,227.04601 c -13.4004,-1.02586 -26.61913,-3.74761 -39.348833,-8.10198 -7.351778,-2.51478 -11.940303,-4.45565 -20.421168,-8.63782 -8.853447,-4.3659 -10.750342,-5.70407 -16.952725,-11.95928 -6.611563,-6.66787 -11.524258,-14.57338 -13.32228,-21.43821 -1.13203,-4.32207 -1.195108,-10.0129 -0.154138,-13.90625 3.554063,-13.29261 16.932333,-22.76766 34.886643,-24.70818 4.591312,-0.49623 12.386178,-0.2035 17.303631,0.64983 8.01302,1.3905 14.38337,3.52985 23.98223,8.05394 7.8045,3.67838 12.80571,5.37443 19.79752,6.71388 3.13949,0.60145 4.61127,0.68847 11.41662,0.67507 7.16476,-0.0141 8.16614,-0.0848 12.07784,-0.85216 8.0975,-1.58854 15.42033,-4.17412 24.01591,-8.47964 14.35973,-7.19279 27.80418,-16.82365 53.4375,-38.2797 29.73588,-24.890037 42.00599,-34.689099 49.64524,-39.647299 5.78513,-3.754799 12.19983,-6.534173 17.85476,-7.736146 5.2212,-1.109782 11.73908,-0.502216 16.30468,1.519845 14.00726,6.203678 20.7424,25.782183 16.61972,48.31218 -2.06479,11.28386 -7.81279,24.4129 -15.19889,34.71588 -7.19258,10.03303 -17.11653,19.77905 -27.88176,27.38184 -10.14703,7.1662 -32.69033,19.98872 -49.87323,28.36766 -31.96511,15.58723 -59.11747,24.0161 -86.68927,26.91082 -5.60827,0.5888 -22.13246,0.85663 -27.5,0.44572 z"
       id="path4572"
       inkscape:connector-curvature="0"
       transform="translate(41.798,96.791)" />
    <path
       style="fill:#ffbc2a;fill-opacity:0;stroke-width:1.21041667;stroke-miterlimit:4;stroke-dasharray:none"
       d="m 132.69343,227.04601 c -13.4004,-1.02586 -26.61913,-3.74761 -39.348833,-8.10198 -7.351778,-2.51478 -11.940303,-4.45565 -20.421168,-8.63782 -8.853447,-4.3659 -10.750342,-5.70407 -16.952725,-11.95928 -6.611563,-6.66787 -11.524258,-14.57338 -13.32228,-21.43821 -1.13203,-4.32207 -1.195108,-10.0129 -0.154138,-13.90625 3.554063,-13.29261 16.932333,-22.76766 34.886643,-24.70818 4.591312,-0.49623 12.386178,-0.2035 17.303631,0.64983 8.01302,1.3905 14.38337,3.52985 23.98223,8.05394 7.8045,3.67838 12.80571,5.37443 19.79752,6.71388 3.13949,0.60145 4.61127,0.68847 11.41662,0.67507 7.16476,-0.0141 8.16614,-0.0848 12.07784,-0.85216 8.0975,-1.58854 15.42033,-4.17412 24.01591,-8.47964 14.35973,-7.19279 27.80418,-16.82365 53.4375,-38.2797 29.73588,-24.890037 42.00599,-34.689099 49.64524,-39.647299 5.78513,-3.754799 12.19983,-6.534173 17.85476,-7.736146 5.2212,-1.109782 11.73908,-0.502216 16.30468,1.519845 14.00726,6.203678 20.7424,25.782183 16.61972,48.31218 -2.06479,11.28386 -7.81279,24.4129 -15.19889,34.71588 -7.19258,10.03303 -17.11653,19.77905 -27.88176,27.38184 -10.14703,7.1662 -32.69033,19.98872 -49.87323,28.36766 -31.96511,15.58723 -59.11747,24.0161 -86.68927,26.91082 -5.60827,0.5888 -22.13246,0.85663 -27.5,0.44572 z"
       id="path4574"
       inkscape:connector-curvature="0"
       transform="translate(41.798,96.791)" />
    <path
       style="fill:#ffbc2a;fill-opacity:0;stroke-width:1.21041667;stroke-miterlimit:4;stroke-dasharray:none"
       d="m 132.69343,227.04601 c -13.4004,-1.02586 -26.61913,-3.74761 -39.348833,-8.10198 -7.351778,-2.51478 -11.940303,-4.45565 -20.421168,-8.63782 -8.853447,-4.3659 -10.750342,-5.70407 -16.952725,-11.95928 -6.611563,-6.66787 -11.524258,-14.57338 -13.32228,-21.43821 -1.13203,-4.32207 -1.195108,-10.0129 -0.154138,-13.90625 3.554063,-13.29261 16.932333,-22.76766 34.886643,-24.70818 4.591312,-0.49623 12.386178,-0.2035 17.303631,0.64983 8.01302,1.3905 14.38337,3.52985 23.98223,8.05394 7.8045,3.67838 12.80571,5.37443 19.79752,6.71388 3.13949,0.60145 4.61127,0.68847 11.41662,0.67507 7.16476,-0.0141 8.16614,-0.0848 12.07784,-0.85216 8.0975,-1.58854 15.42033,-4.17412 24.01591,-8.47964 14.35973,-7.19279 27.80418,-16.82365 53.4375,-38.2797 29.73588,-24.890037 42.00599,-34.689099 49.64524,-39.647299 5.78513,-3.754799 12.19983,-6.534173 17.85476,-7.736146 5.2212,-1.109782 11.73908,-0.502216 16.30468,1.519845 14.00726,6.203678 20.7424,25.782183 16.61972,48.31218 -2.06479,11.28386 -7.81279,24.4129 -15.19889,34.71588 -7.19258,10.03303 -17.11653,19.77905 -27.88176,27.38184 -10.14703,7.1662 -32.69033,19.98872 -49.87323,28.36766 -31.96511,15.58723 -59.11747,24.0161 -86.68927,26.91082 -5.60827,0.5888 -22.13246,0.85663 -27.5,0.44572 z"
       id="path4576"
       inkscape:connector-curvature="0"
       transform="translate(41.798,96.791)" />
    <path
       style="fill:#ffbc2a;fill-opacity:0;stroke-width:1.21041667;stroke-miterlimit:4;stroke-dasharray:none"
       d="M 34.880929,164.87207 C 21.591489,160.76865 12.45244,154.08072 8.0307595,145.22319 5.7235282,140.60134 4.8795879,137.47148 4.4158304,131.81678 l -0.3000073,-3.65806 1.2786409,-2.58577 c 1.6353514,-3.30716 4.788458,-6.76888 7.273952,-7.9859 1.083478,-0.53053 2.526151,-0.93115 3.772143,-1.0475 2.067319,-0.19305 2.71037,-0.57671 3.096381,-1.84735 0.13088,-0.43082 -0.0352,-0.95135 -0.486636,-1.52527 -0.670455,-0.85234 -0.738647,-0.86759 -3.143136,-0.70278 -3.14951,0.21587 -6.3838376,1.68172 -8.8435998,4.00806 -0.9426393,0.89151 -1.7138897,1.52389 -1.7138897,1.4053 0,-1.11622 1.7987744,-7.07527 2.6755738,-8.86374 4.9230397,-10.041883 17.0236547,-10.693188 41.9644447,-2.2587 9.560138,3.23306 16.04656,5.71783 16.308663,6.2474 0.127597,0.25782 0.38365,1.3125 0.569009,2.34375 0.612163,3.4058 5.883897,13.09671 9.453272,17.37774 l 1.200816,1.44023 -2.202125,0.20466 c -9.384469,0.8722 -19.651941,5.26875 -26.931703,11.53223 -4.948994,4.25809 -9.142685,11.4974 -10.316529,17.80879 l -0.377671,2.03063 z"
       id="path4578"
       inkscape:connector-curvature="0"
       transform="translate(41.798,96.791)" />
    <path
       style="fill:#ffbc2a;fill-opacity:0;stroke-width:1.21041667;stroke-miterlimit:4;stroke-dasharray:none"
       d="m 149.10453,147.95745 c -6.45849,-7.41168 -7.63848,-8.69955 -9.14756,-9.98396 -3.03968,-2.58712 -4.22603,-3.40917 -6.3738,-4.41654 -1.84193,-0.86393 -2.56142,-1.02082 -5.16944,-1.1272 -3.90315,-0.15922 -5.83335,0.40703 -12.84953,3.76956 l -5.25423,2.5181 -3.65202,-1.12469 c -7.531617,-2.31945 -12.91846,-3.318 -19.229313,-3.56448 l -4.639791,-0.18121 -2.036154,-2.3754 c -3.346912,-3.90455 -7.053259,-9.83391 -9.023489,-14.43564 -1.034442,-2.41607 -1.370806,-6.55222 -0.757137,-9.31024 0.849318,-3.81711 3.565043,-7.67942 6.073174,-8.637279 1.198827,-0.457836 1.447277,-0.461931 2.45597,-0.04047 2.523198,1.054259 4.658765,5.395479 6.752155,13.725909 1.631611,6.49283 2.522907,8.74296 4.407608,11.12728 1.588992,2.01023 4.906425,4.17607 7.981872,5.21111 2.202475,0.74124 2.828875,0.82025 5.456835,0.68827 4.84238,-0.24318 7.1315,-1.33124 17.15065,-8.15198 2.22994,-1.51807 4.87313,-3.09676 5.87376,-3.50821 3.02396,-1.24339 6.36651,-0.90753 10.25684,1.03061 2.74036,1.36523 7.49742,6.06564 10.47093,10.34622 5.80589,8.35798 7.09415,9.66712 11.75668,11.94729 9.4089,4.60132 18.86341,1.77959 21.63378,-6.45669 0.34208,-1.017 0.77412,-3.48831 0.9601,-5.49182 0.63861,-6.87991 3.01177,-12.7279 6.84625,-16.87069 4.99085,-5.39215 10.53627,-6.93968 17.39476,-4.85426 1.54687,0.47035 6.38044,1.88133 10.74125,3.13552 l 7.92875,2.28034 -5.2725,4.17104 c -2.89988,2.29408 -5.74993,4.54408 -6.33345,5.00002 l -1.06094,0.82898 -2.37656,-1.0268 c -6.52907,-2.82091 -10.82928,-2.57867 -13.86456,0.78104 -1.47757,1.63549 -1.78398,2.26626 -3.35414,6.90477 -0.7251,2.14209 -1.84148,5.02698 -2.48083,6.41085 l -1.16246,2.51614 -5.13228,2.55079 c -10.85409,5.39458 -20.29187,8.22798 -30.00778,9.00889 l -2.68799,0.21605 z"
       id="path4580"
       inkscape:connector-curvature="0"
       transform="translate(41.798,96.791)" />
    <g
       id="g1322"
       inkscape:label="Ebene 1"
       transform="matrix(.6189 0 0 .6189 30.473 85.006)"
       style="fill-opacity:1;fill:url(#linearGradient23)">
      <path
         inkscape:connector-curvature="0"
         d="m 482.53494,84.89219 c -37.55752,-40.110575 -94.3631,-33.903135 -128.29127,27.10749 -33.91565,60.99811 -78.14366,88.78141 -139.90518,57.2311 -61.76153,-31.5378 -123.43545,-41.19938 -118.642205,19.611 l 6.557865,36.98183 35.50505,55.22869 111.37294,12.17524 120.42519,-33.16888 129.84571,-97.04037 z"
         style="fill:url(#linearGradient4639);fill-opacity:1;fill-rule:evenodd;stroke:#000000;stroke-width:6.25750017"
         sodipodi:nodetypes="czzccccccc"
         id="path8344" />
      <path
         id="path13644"
         style="fill:url(#linearGradient4743);fill-opacity:1;stroke:#000000;stroke-width:6.25750017;stroke-linecap:round"
         d="m 541.7434,31.340505 c -12.08949,0.888565 -27.12,3.52923 -32.35127,16.16938 M 47.2311,203.87229 C 34.44077,203.43427 25.73033,215.44867 22.07595,226.33672 M 468.2428,60.875905 C 432.29972,148.6436 332.71787,225.52324 232.22242,220.83012 165.19208,234.50902 42.397968,136.24204 25.487135,200.85618 c -2.113471,8.0753 -3.267002,15.45876 -3.594861,22.2108 -0.327858,6.75204 0.169955,12.87265 1.359173,18.42227 2.378437,11.09924 7.522493,19.9145 14.35803,26.92916 13.671068,14.02931 34.108068,20.85624 52.717872,24.34793 C 222.79447,346.50993 393.9651,270.26579 443.44805,233.91097 492.931,197.55615 558.58704,102.51178 547.97586,119.23335 611.45195,53.016485 504.17337,-26.904305 468.2428,60.875905 Z" />
      <path
         inkscape:connector-curvature="0"
         d="m 517.31412,123.81384 c -18.08417,-0.12515 -36.30601,-10.04954 -59.75912,-16.89525 -23.45311,-6.85822 -44.15292,-6.65798 -52.01234,25.55563 -7.90948,32.50146 25.65574,43.31442 18.20932,62.62506 -19.38573,14.85531 -46.90622,0.60072 -68.46957,-4.20504 -26.93227,-10.91308 -45.70478,15.13063 -46.16783,39.7977 -2.19013,24.26659 -32.23864,20.01149 -43.08914,4.4178 -9.62404,-14.11692 -20.76239,-32.42637 -40.93657,-29.41025 -15.83148,5.11863 -29.54792,26.45671 -48.67083,18.00908 -19.13544,-8.43511 -11.50129,-26.20641 -23.0276,-43.12669 -11.51381,-16.90776 -31.58786,9.81176 -22.00138,29.71061 9.58649,19.88634 24.51689,41.52477 49.0588,37.16955 20.437,6.73307 36.41866,-21.31304 55.96709,-7.5966 19.53591,13.72895 23.95371,35.24224 47.85736,36.24343 26.3691,1.85223 43.57723,-26.93227 50.12257,-50.18515 7.48397,-22.114 31.27499,1.55187 49.49682,5.73187 18.22184,4.18001 49.85976,-5.0936 64.31459,-22.18909 19.36071,-27.35779 -29.64804,-60.33482 -14.34219,-78.45654 14.25458,-16.87022 30.67426,12.95303 45.86747,16.40717 11.70153,0.68832 65.36585,-24.92988 37.58255,-23.60329"
         style="fill:url(#linearGradient4753);fill-opacity:1;fill-rule:evenodd;stroke:#000000;stroke-width:6.25750017"
         sodipodi:nodetypes="czzccccczzzczcczczcc"
         id="path8350" />
      <path
         inkscape:connector-curvature="0"
         d="M 486.60034,306.3904 C 623.92743,222.3772 576.88355,54.88896 476.43816,128.55225 375.99277,202.22805 303.40577,300.32062 209.64339,252.78865 115.89352,205.25668 28.776598,283.76328 119.73563,354.31033 233.44692,418.49977 349.21067,390.41611 486.60034,306.3904 Z"
         style="fill:url(#linearGradient4590);fill-opacity:1;fill-rule:evenodd;stroke:#000000;stroke-width:6.25841522;stroke-miterlimit:4;stroke-dasharray:none"
         sodipodi:nodetypes="czzcz"
         id="path8340" />
    </g>
  </g>
  <metadata
     id="metadata12">
    <rdf:RDF>
      <cc:Work>
        <dc:format>image/svg+xml</dc:format>
        <dc:type
           rdf:resource="http://purl.org/dc/dcmitype/StillImage" />
        <cc:license
           rdf:resource="http://creativecommons.org/publicdomain/zero/1.0/" />
        <dc:publisher>
          <cc:Agent
             rdf:about="http://openclipart.org/">
            <dc:title>Openclipart</dc:title>
          </cc:Agent>
        </dc:publisher>
        <dc:title>Hot Dog with sausage, bun and mustard</dc:title>
        <dc:date>2018-06-26T00:00:00</dc:date>
        <dc:description>A colored line-drawing of a hotdog with sausage, bun and mustard.

The original by SRD has open ended paths, making it hard to color.
Completed the paths and added gradient colors for a more realistic hot dog feel.

Used for our Patriotic Sausage BBQ Hotdog T-Shirt:
https://bzh314.com/shop/food/Sausage/

About @BZH314:
We make games.
Support us by shopping for cool t-shirts: 
https://bzh314.com/shop/

Follow us on Twitter @BZH314:
https://twitter.com/bzh314</dc:description>
        <dc:source>https://openclipart.org/detail/3425</dc:source>
        <dc:creator>
          <cc:Agent>
            <dc:title>SRD</dc:title>
          </cc:Agent>
        </dc:creator>
        <dc:subject>
          <rdf:Bag>
            <rdf:li>remix+3425</rdf:li>
            <rdf:li>Fast food</rdf:li>
            <rdf:li>Food</rdf:li>
            <rdf:li>Hotdog</rdf:li>
            <rdf:li>Sausage</rdf:li>
            <rdf:li>Mustard</rdf:li>
            <rdf:li>Bun</rdf:li>
            <rdf:li>Hotdawg</rdf:li>
            <rdf:li>Dog</rdf:li>
            <rdf:li>Hot Dog</rdf:li>
            <rdf:li>Meal</rdf:li>
            <rdf:li>Wiener</rdf:li>
            <rdf:li>Gradient</rdf:li>
            <rdf:li>Bread</rdf:li>
            <rdf:li>Condiment</rdf:li>
            <rdf:li>Lunch</rdf:li>
            <rdf:li>Dinner</rdf:li>
            <rdf:li>Barbecue</rdf:li>
            <rdf:li>BBQ</rdf:li>
            <rdf:li>Snack</rdf:li>
            <rdf:li>Ball Park</rdf:li>
            <rdf:li>Frank</rdf:li>
            <rdf:li>Frankfurter</rdf:li>
            <rdf:li>July 4th</rdf:li>
            <rdf:li>Independence Day</rdf:li>
          </rdf:Bag>
        </dc:subject>
        <dc:contributor>
          <cc:Agent>
            <dc:title>BZH314</dc:title>
          </cc:Agent>
        </dc:contributor>
      </cc:Work>
      <cc:License
         rdf:about="http://creativecommons.org/publicdomain/zero/1.0/">
        <cc:permits
           rdf:resource="http://creativecommons.org/ns#Reproduction" />
        <cc:permits
           rdf:resource="http://creativecommons.org/ns#Distribution" />
        <cc:permits
           rdf:resource="http://creativecommons.org/ns#DerivativeWorks" />
      </cc:License>
    </rdf:RDF>
  </metadata>
</svg>
