<?xml version="1.0" encoding="UTF-8" standalone="no"?>
<svg
   xmlns:dc="http://purl.org/dc/elements/1.1/"
   xmlns:cc="http://creativecommons.org/ns#"
   xmlns:rdf="http://www.w3.org/1999/02/22-rdf-syntax-ns#"
   xmlns:svg="http://www.w3.org/2000/svg"
   xmlns="http://www.w3.org/2000/svg"
   version="1.1"
   id="svg14410"
   viewBox="0 0 591.3297 571.1467"
   height="161.19029mm"
   width="166.88638mm">
  <defs
     id="defs14412" />
  <metadata
     id="metadata14415">
    <rdf:RDF>
      <cc:Work
         rdf:about="">
        <dc:format>image/svg+xml</dc:format>
        <dc:type
           rdf:resource="http://purl.org/dc/dcmitype/StillImage" />
        <dc:title></dc:title>
      </cc:Work>
    </rdf:RDF>
  </metadata>
  <g
     transform="translate(-59.218927,-199.63123)"
     id="layer1">
    <g
       id="g15067">
      <g
         id="g15106">
        <path
           id="path14958"
           d="M 69.167753,459.64776 337.32581,245.75979 648.04864,395.80061 636.34333,596.91915 442.67362,761.85764 67.039515,594.79091 Z"
           style="fill:#b1b7b1;fill-opacity:1;fill-rule:evenodd;stroke:#000000;stroke-width:5;stroke-linecap:round;stroke-linejoin:round;stroke-miterlimit:4;stroke-dasharray:none;stroke-opacity:1" />
        <path
           id="path14962"
           d="M 104.28369,513.91785 71.295992,350.04348 217.08033,484.12251 105.34781,510.72549 Z"
           style="fill:#d0a547;fill-opacity:1;fill-rule:evenodd;stroke:#000000;stroke-width:5;stroke-linecap:round;stroke-linejoin:round;stroke-miterlimit:4;stroke-dasharray:none;stroke-opacity:1" />
        <path
           id="path14964"
           d="m 168.13085,536.26435 -6.38472,-222.40093 90.45014,114.92488 -52.14184,90.45014 z"
           style="fill:#d0a547;fill-opacity:1;fill-rule:evenodd;stroke:#000000;stroke-width:5;stroke-linecap:round;stroke-linejoin:round;stroke-miterlimit:4;stroke-dasharray:none;stroke-opacity:1" />
        <path
           id="path14966"
           d="M 204.3109,409.63416 218.14445,252.1445 309.65871,396.86473 Z"
           style="fill:#d0a547;fill-opacity:1;fill-rule:evenodd;stroke:#000000;stroke-width:5;stroke-linecap:round;stroke-linejoin:round;stroke-miterlimit:4;stroke-dasharray:none;stroke-opacity:1" />
        <path
           id="path14968"
           d="m 260.70922,367.06939 c 3.19236,-17.02591 23.41063,-153.23318 23.41063,-153.23318 0,0 84.06542,122.37372 78.74483,122.37372 -5.3206,0 -102.15546,30.85946 -102.15546,30.85946 z"
           style="fill:#d0a547;fill-opacity:1;fill-rule:evenodd;stroke:#000000;stroke-width:5;stroke-linecap:round;stroke-linejoin:round;stroke-miterlimit:4;stroke-dasharray:none;stroke-opacity:1" />
        <path
           id="path14970"
           d="m 326.68462,327.69697 57.46244,-125.56607 73.42423,150.04082 -120.24548,14.89767 -25.53886,0 z"
           style="fill:#d0a547;fill-opacity:1;fill-rule:evenodd;stroke:#000000;stroke-width:5;stroke-linecap:round;stroke-linejoin:round;stroke-miterlimit:4;stroke-dasharray:none;stroke-opacity:1" />
        <path
           id="path14972"
           d="m 223.46505,497.95606 c 1.06412,-8.51296 4.25648,-133.01491 4.25648,-133.01491 l 107.47604,77.68071 z"
           style="fill:#d0a547;fill-opacity:1;fill-rule:evenodd;stroke:#000000;stroke-width:5;stroke-linecap:round;stroke-linejoin:round;stroke-miterlimit:4;stroke-dasharray:none;stroke-opacity:1" />
        <path
           id="path14974"
           d="M 420.32712,392.60825 430.96831,230.86212 538.44436,384.0953 Z"
           style="fill:#d0a547;fill-opacity:1;fill-rule:evenodd;stroke:#000000;stroke-width:5;stroke-linecap:round;stroke-linejoin:round;stroke-miterlimit:4;stroke-dasharray:none;stroke-opacity:1" />
        <path
           id="path14976"
           d="M 308.59459,641.61216 351.15936,510.72549 449.05834,656.50983 304.33811,643.7404 Z"
           style="fill:#d0a547;fill-opacity:1;fill-rule:evenodd;stroke:#000000;stroke-width:5;stroke-linecap:round;stroke-linejoin:round;stroke-miterlimit:4;stroke-dasharray:none;stroke-opacity:1" />
        <path
           id="path14978"
           d="M 485.23839,495.82782 C 479.9178,500.0843 372.44175,619.26566 372.44175,619.26566 l 147.91258,13.83355 z"
           style="fill:#d0a547;fill-opacity:1;fill-rule:evenodd;stroke:#000000;stroke-width:5;stroke-linecap:round;stroke-linejoin:round;stroke-miterlimit:4;stroke-dasharray:none;stroke-opacity:1" />
        <path
           id="path14980"
           d="m 542.70083,420.27535 -58.52656,170.25909 126.6302,-20.21827 -64.91128,-148.9767 z"
           style="fill:#d0a547;fill-opacity:1;fill-rule:evenodd;stroke:#000000;stroke-width:5;stroke-linecap:round;stroke-linejoin:round;stroke-miterlimit:4;stroke-dasharray:none;stroke-opacity:1" />
        <path
           id="path14984"
           d="M 585.26561,315.99166 469.2766,422.40359 615.06095,474.54543 588.45796,311.73518 Z"
           style="fill:#d0a547;fill-opacity:1;fill-rule:evenodd;stroke:#000000;stroke-width:5;stroke-linecap:round;stroke-linejoin:round;stroke-miterlimit:4;stroke-dasharray:none;stroke-opacity:1" />
        <path
           id="path14986"
           d="m 201.11854,587.34208 45.75713,-124.50196 95.77074,146.84846 z"
           style="fill:#d0a547;fill-opacity:1;fill-rule:evenodd;stroke:#000000;stroke-width:5;stroke-linecap:round;stroke-linejoin:round;stroke-miterlimit:4;stroke-dasharray:none;stroke-opacity:1" />
        <path
           id="path14988"
           d="m 147.91258,556.48262 c 4.25648,-3.19236 58.52656,-113.86076 58.52656,-113.86076 l 56.39832,121.30959 z"
           style="fill:#d0a547;fill-opacity:1;fill-rule:evenodd;stroke:#000000;stroke-width:5;stroke-linecap:round;stroke-linejoin:round;stroke-miterlimit:4;stroke-dasharray:none;stroke-opacity:1" />
        <path
           id="path14990"
           d="m 305.40223,305.35047 c 0,0 -46.82124,129.82255 -39.37241,129.82255 7.44884,0 128.75843,-39.37241 128.75843,-39.37241 z"
           style="fill:#d0a547;fill-opacity:1;fill-rule:evenodd;stroke:#000000;stroke-width:5;stroke-linecap:round;stroke-linejoin:round;stroke-miterlimit:4;stroke-dasharray:none;stroke-opacity:1" />
        <path
           id="path14992"
           d="m 396.91649,339.40229 c -29.66845,-4.85506 -58.67353,4.02622 -88.15657,5.96419 -12.68597,2.37347 -29.03489,4.18127 -27.04719,20.49138 -15.70108,11.0262 -24.5091,28.45801 -23.42617,46.41086 -3.38104,20.4136 -20.44776,34.81944 -22.7783,55.36091 -3.24344,17.49648 -15.70934,38.71489 -1.91119,54.28223 12.40697,16.56373 34.58126,1.12987 50.17874,8.96032 19.63536,8.95241 43.92591,-7.63147 58.29663,14.74741 10.55774,9.84077 20.29749,18.48404 35.77211,15.11951 17.3626,-0.62084 35.10874,1.96959 52.09638,-2.0452 16.64165,-7.62304 40.83438,-8.14991 48.54326,-27.62095 8.18968,-20.02848 9.2495,-44.33484 23.49433,-61.89586 13.28483,-12.80409 28.81526,-25.96323 23.75074,-46.50359 -0.84828,-18.79655 -12.78178,-34.96668 -31.34468,-39.66224 -19.53981,-4.03985 -36.01377,-13.64947 -53.10112,-23.2512 -12.38998,-9.43788 -31.20529,-16.98758 -43.43609,-18.2177"
           style="fill:#f8bf6b;fill-opacity:1;fill-rule:evenodd;stroke:#000000;stroke-width:5;stroke-linecap:round;stroke-linejoin:round;stroke-miterlimit:4;stroke-dasharray:none;stroke-opacity:1" />
        <path
           style="fill:#d0a547;fill-opacity:1;fill-rule:evenodd;stroke:#000000;stroke-width:5;stroke-linecap:round;stroke-linejoin:round;stroke-miterlimit:4;stroke-dasharray:none;stroke-opacity:1"
           d="m 267.09395,605.43211 c 1.06412,-8.51296 4.25648,-133.01491 4.25648,-133.01491 l 107.47604,77.68071 z"
           id="path15006" />
        <path
           id="path14996"
           d="m 371.37763,360.68467 c -1.49157,2.73818 -6.08359,-0.10852 -1.18584,-0.15905 -7.55899,2.04904 -13.88257,7.03766 -21.29651,9.19306 -6.20051,4.44635 -12.77814,7.99473 -19.63712,11.44055 -7.13136,3.92684 -14.59732,8.62631 -19.48578,15.08729 -3.8263,10.84179 -1.6303,22.51813 -2.26322,33.76869 -1.6218,7.66115 3.97661,13.3112 7.9605,19.2054 4.91056,6.21786 10.98274,13.98584 19.68217,13.89248 3.40372,5.95215 9.59662,1.25412 14.11648,6.34149 7.46661,3.47318 12.36554,10.36378 19.8358,13.89372 6.30976,5.02585 14.19921,6.36065 22.05678,6.38639 8.68594,1.76119 16.90045,6.07667 26.17154,5.14059 12.5401,-0.23381 25.21297,0.59672 37.62086,-1.51441 6.63641,-3.02978 9.44219,-11.12755 15.16573,-15.92718 2.72976,-7.51816 1.65866,-17.23812 -0.27403,-25.16474 -5.97637,-8.89624 4.09972,-17.35206 3.66929,-26.08725 -2.64688,-9.05927 -11.77748,-13.75416 -18.89167,-18.86921 -5.80488,-6.58396 -14.50487,-9.79868 -19.46206,-17.10313 -5.7456,-6.11248 -10.05335,-14.2543 -18.71363,-17.00798 -7.11556,-2.88752 -15.34518,-5.5163 -20.91868,-9.60394 -5.44161,-3.72871 -12.15458,-4.15259 -18.49898,-5.02693 -2.04935,0.1535 -3.95283,1.00141 -5.65163,2.11416 z"
           style="fill:#ca524b;fill-opacity:1;fill-rule:evenodd;stroke:#000000;stroke-width:5;stroke-linecap:round;stroke-linejoin:round;stroke-miterlimit:4;stroke-dasharray:none;stroke-opacity:1" />
        <path
           id="path14982"
           d="m 488.43075,428.78831 -68.10364,109.60428 133.01491,15.96179 z"
           style="fill:#d0a547;fill-opacity:1;fill-rule:evenodd;stroke:#000000;stroke-width:5;stroke-linecap:round;stroke-linejoin:round;stroke-miterlimit:4;stroke-dasharray:none;stroke-opacity:1" />
        <path
           id="path15001"
           d="m 351.15936,414.95475 c -9.48595,-3.01554 -16.34638,5.62403 -22.99051,10.73905 -8.83087,3.37902 -15.67391,9.65391 -21.82899,16.96939 -7.78065,5.04276 -6.56425,13.84841 -7.30539,21.84379 -0.62164,6.88104 -1.77218,13.78565 -4.34263,20.23161 7.45939,9.05344 20.2588,3.18771 29.75821,7.45294 12.84823,3.50555 17.77492,20.65226 32.06249,20.82832 5.75744,-2.36911 12.42088,-5.413 18.89636,-2.85412 12.61523,4.24326 18.5463,17.62166 29.29616,24.53009 7.72281,2.80299 10.82427,-7.4185 16.9931,-10.6429 5.51515,-5.79335 8.89004,-16.88124 1.25408,-22.43522 -10.75714,-4.20685 -20.13368,-11.99345 -31.96087,-13.2805 -10.93453,-3.47066 -19.08642,-12.13739 -29.35199,-16.94194 -9.35648,-6.64264 -12.85663,-19.50455 -11.15971,-30.39312 2.94316,-8.11127 13.19189,-7.0412 19.80436,-4.93638 10.73793,2.96917 21.09476,7.30141 30.04622,14.03616 9.14965,7.05965 20.31897,10.66198 29.42353,17.76699 7.73987,6.48753 19.7288,6.46754 27.43586,10e-4 8.12487,-7.45637 6.895,-19.66545 5.03236,-29.43715 -3.70359,-9.50014 -13.8616,-13.80124 -20.35071,-21.06551 -6.23806,-5.58689 -16.15777,-6.9216 -19.36039,-15.46877 -8.14053,-6.52626 -15.02056,-13.97752 -21.18563,-22.17388 -5.89308,-6.53449 -13.37612,-14.63028 -23.14325,-12.65434 -13.1986,-0.23841 -26.51175,0.54856 -39.53537,2.73879 -7.78636,1.5639 -15.50799,5.3627 -19.95192,12.15766 -5.01571,2.04764 -13.34696,5.84047 -6.47771,11.84266 4.42243,8.93113 15.15744,7.83219 18.62921,-0.68595 11.21315,-5.35777 22.86218,2.04329 34.05387,3.67169 4.28029,3.27692 -5.4633,8.34279 -6.35786,12.15877 -1.86045,2.66875 -4.19077,5.02052 -7.38288,6.00077 z"
           style="fill:#74c05d;fill-opacity:1;fill-rule:evenodd;stroke:#000000;stroke-width:5;stroke-linecap:round;stroke-linejoin:round;stroke-miterlimit:4;stroke-dasharray:none;stroke-opacity:1" />
        <path
           style="fill:#d0a547;fill-opacity:1;fill-rule:evenodd;stroke:#000000;stroke-width:5;stroke-linecap:round;stroke-linejoin:round;stroke-miterlimit:4;stroke-dasharray:none;stroke-opacity:1"
           d="m 556.53438,383.03118 -76.61659,85.12954 133.01491,42.56477 z"
           id="path15008" />
        <path
           id="path14960"
           d="M 69.167753,458.58364 438.41715,615.00918 648.04864,400.05709 640.59981,596.91915 445.86597,767.17824 61.718918,593.72679 Z"
           style="fill:#d8d5d5;fill-opacity:1;fill-rule:evenodd;stroke:#000000;stroke-width:5;stroke-linecap:round;stroke-linejoin:round;stroke-miterlimit:4;stroke-dasharray:none;stroke-opacity:1" />
        <path
           id="path15010"
           d="m 440.54539,612.88094 6.38471,155.36142"
           style="fill:none;fill-rule:evenodd;stroke:#000000;stroke-width:5;stroke-linecap:round;stroke-linejoin:round;stroke-miterlimit:4;stroke-dasharray:none;stroke-opacity:1" />
        <g
           transform="matrix(1.9579627,0.81502125,-1.1154092,2.6795986,980.582,-1554.7046)"
           id="text15012"
           style="font-style:normal;font-weight:normal;font-size:40px;line-height:125%;font-family:sans-serif;letter-spacing:0px;word-spacing:0px;fill:#918a6f;fill-opacity:1;stroke:none;stroke-width:1px;stroke-linecap:butt;stroke-linejoin:miter;stroke-opacity:1">
          <path
             id="path15017"
             d="m 4.1917613,772.36534 c 6.5918627,1.17147 13.9511867,21.15632 16.7258757,8.82881 -0.308133,-5.14602 -8.411584,-9.52003 1.129887,-8.75205 6.424069,-0.85036 8.638004,2.93219 2.299066,5.09011 -1.818891,4.94404 2.721354,25.39174 -6.688847,14.19858 -3.058583,-4.93676 -13.0494791,-15.64922 -10.4334946,-2.65094 1.8663955,4.39088 9.0248456,6.31327 0.1458529,6.34176 -5.7679125,0.30264 -11.3014267,-1.50369 -3.9482391,-4.65998 5.2587642,-6.30712 -5.1573443,-14.74492 -1.2839312,-18.50825 l 2.0538303,0.11196 0,0 z"
             style="font-style:normal;font-variant:normal;font-weight:normal;font-stretch:normal;font-family:Trattatello;-inkscape-font-specification:Trattatello;fill:#918a6f" />
          <path
             id="path15019"
             d="m 43.559886,771.28534 c 3.525084,6.69719 6.241916,19.73951 7.60094,23.48769 -5.792749,1.90239 -8.336702,-1.03946 -5.54521,-5.35545 -4.379457,-7.58183 -7.887162,3.23541 -8.015656,5.77825 -13.171558,1.50314 1.77463,-8.6532 1.506655,-15.30324 1.604946,-2.48728 1.140584,-7.76999 4.453271,-8.60725 z m -0.48,7.32 c -4.825394,4.26629 3.830434,7.03076 0,0 z"
             style="font-style:normal;font-variant:normal;font-weight:normal;font-stretch:normal;font-family:Trattatello;-inkscape-font-specification:Trattatello;fill:#918a6f" />
          <path
             id="path15021"
             d="m 66.382386,771.84534 c 4.056801,6.91994 -15.572318,6.46393 -7.18683,17.24747 2.344566,5.66127 12.501813,-3.77152 6.654208,4.60261 -10.213485,8.38551 -14.48043,-9.33269 -10.033058,-16.22851 1.679777,-4.29221 6.474303,-5.35644 10.56568,-5.62157 z"
             style="font-style:normal;font-variant:normal;font-weight:normal;font-stretch:normal;font-family:Trattatello;-inkscape-font-specification:Trattatello;fill:#918a6f" />
          <path
             id="path15023"
             d="m 73.567386,772.36534 c 5.053848,-0.9872 7.501018,1.85268 3.104506,5.24004 1.616276,10.61292 16.335538,2.92655 10.501863,-4.83423 13.087915,-2.08399 0.698278,9.58282 4.510061,16.53369 4.481717,5.89752 -1.697827,8.70517 -5.98189,4.67147 10.412226,-10.82765 -15.747817,-12.39253 -7.471154,-1.10626 0.233275,6.0138 -12.311991,0.68783 -5.847404,-4.26461 2.25401,-5.42934 -1.749516,-13.18994 -0.760626,-16.12466 l 1.944644,-0.11544 z"
             style="font-style:normal;font-variant:normal;font-weight:normal;font-stretch:normal;font-family:Trattatello;-inkscape-font-specification:Trattatello;fill:#918a6f" />
          <path
             id="path15025"
             d="m 108.40051,772.36534 c 11.2394,-0.35573 14.12871,16.11096 4.95986,21.27767 -7.46465,4.89742 -18.568121,-1.64129 -16.917481,-10.80527 0.0062,-6.52049 5.387641,-11.46921 11.957621,-10.4724 z m -3.44,3.12 c -8.745978,4.55388 -0.87905,22.14415 7.68112,14.63265 4.61581,-5.60836 -0.20127,-15.44557 -7.68112,-14.63265 z"
             style="font-style:normal;font-variant:normal;font-weight:normal;font-stretch:normal;font-family:Trattatello;-inkscape-font-specification:Trattatello;fill:#918a6f" />
          <path
             id="path15027"
             d="m 123.98114,775.84534 c -0.49106,-8.65041 16.81893,-2.08646 7.0481,-0.5674 -7.90088,3.32464 11.23229,5.09786 8.0712,12.97691 0.18632,8.90144 -16.39858,12.71625 -18.27448,3.24529 2.37952,-8.9082 8.85857,9.71786 12.76073,-0.52968 4.56512,-8.1068 -12.05689,-7.22004 -9.60555,-15.12512 z"
             style="font-style:normal;font-variant:normal;font-weight:normal;font-stretch:normal;font-family:Trattatello;-inkscape-font-specification:Trattatello;fill:#918a6f" />
        </g>
        <g
           style="font-style:normal;font-weight:normal;font-size:40px;line-height:125%;font-family:sans-serif;letter-spacing:0px;word-spacing:0px;fill:#918a6f;fill-opacity:1;stroke:none;stroke-width:1px;stroke-linecap:butt;stroke-linejoin:miter;stroke-opacity:1"
           id="g15053"
           transform="matrix(1.0796092,-0.93082994,0.71486348,0.85832526,-90.038368,2.2349207)">
          <path
             style="font-style:normal;font-variant:normal;font-weight:normal;font-stretch:normal;font-family:Trattatello;-inkscape-font-specification:Trattatello;fill:#918a6f"
             d="m 4.1917613,772.36534 c 6.5918627,1.17147 13.9511867,21.15632 16.7258757,8.82881 -0.308133,-5.14602 -8.411584,-9.52003 1.129887,-8.75205 6.424069,-0.85036 8.638004,2.93219 2.299066,5.09011 -1.818891,4.94404 2.721354,25.39174 -6.688847,14.19858 -3.058583,-4.93676 -13.0494791,-15.64922 -10.4334946,-2.65094 1.8663955,4.39088 9.0248456,6.31327 0.1458529,6.34176 -5.7679125,0.30264 -11.3014267,-1.50369 -3.9482391,-4.65998 5.2587642,-6.30712 -5.1573443,-14.74492 -1.2839312,-18.50825 l 2.0538303,0.11196 0,0 z"
             id="path15055" />
          <path
             style="font-style:normal;font-variant:normal;font-weight:normal;font-stretch:normal;font-family:Trattatello;-inkscape-font-specification:Trattatello;fill:#918a6f"
             d="m 43.559886,771.28534 c 3.525084,6.69719 6.241916,19.73951 7.60094,23.48769 -5.792749,1.90239 -8.336702,-1.03946 -5.54521,-5.35545 -4.379457,-7.58183 -7.887162,3.23541 -8.015656,5.77825 -13.171558,1.50314 1.77463,-8.6532 1.506655,-15.30324 1.604946,-2.48728 1.140584,-7.76999 4.453271,-8.60725 z m -0.48,7.32 c -4.825394,4.26629 3.830434,7.03076 0,0 z"
             id="path15057" />
          <path
             style="font-style:normal;font-variant:normal;font-weight:normal;font-stretch:normal;font-family:Trattatello;-inkscape-font-specification:Trattatello;fill:#918a6f"
             d="m 66.382386,771.84534 c 4.056801,6.91994 -15.572318,6.46393 -7.18683,17.24747 2.344566,5.66127 12.501813,-3.77152 6.654208,4.60261 -10.213485,8.38551 -14.48043,-9.33269 -10.033058,-16.22851 1.679777,-4.29221 6.474303,-5.35644 10.56568,-5.62157 z"
             id="path15059" />
          <path
             style="font-style:normal;font-variant:normal;font-weight:normal;font-stretch:normal;font-family:Trattatello;-inkscape-font-specification:Trattatello;fill:#918a6f"
             d="m 73.567386,772.36534 c 5.053848,-0.9872 7.501018,1.85268 3.104506,5.24004 1.616276,10.61292 16.335538,2.92655 10.501863,-4.83423 13.087915,-2.08399 0.698278,9.58282 4.510061,16.53369 4.481717,5.89752 -1.697827,8.70517 -5.98189,4.67147 10.412226,-10.82765 -15.747817,-12.39253 -7.471154,-1.10626 0.233275,6.0138 -12.311991,0.68783 -5.847404,-4.26461 2.25401,-5.42934 -1.749516,-13.18994 -0.760626,-16.12466 l 1.944644,-0.11544 z"
             id="path15061" />
          <path
             style="font-style:normal;font-variant:normal;font-weight:normal;font-stretch:normal;font-family:Trattatello;-inkscape-font-specification:Trattatello;fill:#918a6f"
             d="m 108.40051,772.36534 c 11.2394,-0.35573 14.12871,16.11096 4.95986,21.27767 -7.46465,4.89742 -18.568121,-1.64129 -16.917481,-10.80527 0.0062,-6.52049 5.387641,-11.46921 11.957621,-10.4724 z m -3.44,3.12 c -8.745978,4.55388 -0.87905,22.14415 7.68112,14.63265 4.61581,-5.60836 -0.20127,-15.44557 -7.68112,-14.63265 z"
             id="path15063" />
          <path
             style="font-style:normal;font-variant:normal;font-weight:normal;font-stretch:normal;font-family:Trattatello;-inkscape-font-specification:Trattatello;fill:#918a6f"
             d="m 123.98114,775.84534 c -0.49106,-8.65041 16.81893,-2.08646 7.0481,-0.5674 -7.90088,3.32464 11.23229,5.09786 8.0712,12.97691 0.18632,8.90144 -16.39858,12.71625 -18.27448,3.24529 2.37952,-8.9082 8.85857,9.71786 12.76073,-0.52968 4.56512,-8.1068 -12.05689,-7.22004 -9.60555,-15.12512 z"
             id="path15065" />
        </g>
      </g>
    </g>
  </g>
</svg>
