<?xml version="1.0" standalone="no"?>
<!DOCTYPE svg PUBLIC "-//W3C//DTD SVG 20010904//EN"
 "http://www.w3.org/TR/2001/REC-SVG-20010904/DTD/svg10.dtd">
<svg version="1.0" xmlns="http://www.w3.org/2000/svg"
 width="442.000000pt" height="613.000000pt" viewBox="0 0 442.000000 613.000000"
 preserveAspectRatio="xMidYMid meet">

<g transform="translate(0.000000,613.000000) scale(0.100000,-0.100000)"
fill="#000000" stroke="none">
<path d="M2060 6000 c-610 -42 -1171 -232 -1655 -561 -55 -37 -112 -80 -127
-94 l-28 -26 0 -1514 c0 -1114 3 -1515 11 -1515 8 0 8 -4 0 -14 -8 -10 -10
-280 -9 -1004 l3 -992 165 -3 165 -4 3 -46 3 -47 290 -1 c159 -1 295 -2 302
-3 7 -1 14 17 17 47 3 26 7 47 10 46 3 -2 14 3 26 9 15 8 32 8 59 1 26 -8 41
-7 48 0 8 8 8 11 -1 11 -20 0 -34 38 -22 60 16 30 50 26 50 -5 0 -14 -4 -25
-10 -25 -5 0 -10 9 -10 21 0 11 -4 17 -10 14 -16 -10 -12 -45 6 -52 9 -3 25
-1 35 6 15 9 19 8 19 -4 0 -8 -4 -15 -10 -15 -5 0 -10 -5 -10 -10 0 -7 324 -9
970 -8 l969 3 3 -49 3 -48 305 1 305 0 3 52 c3 47 5 50 25 46 12 -3 88 -2 170
2 l147 6 0 1520 c0 836 0 1731 0 1988 0 372 -3 467 -12 461 -10 -6 -10 -5 -1
7 11 14 16 465 13 1045 0 29 -10 39 -137 125 -341 231 -709 393 -1113 489
-106 25 -127 26 -110 5 9 -11 9 -15 1 -15 -6 0 -14 7 -17 15 -8 20 -42 29 -59
15 -23 -19 0 -53 31 -47 16 3 24 0 24 -9 0 -21 -44 -17 -65 6 -11 13 -15 27
-11 44 6 23 3 25 -62 35 -190 30 -509 45 -702 31z m730 -147 c-1 -26 -2 -27
-14 -10 -11 14 -15 15 -19 3 -3 -8 0 -22 7 -32 13 -17 15 -17 39 -1 35 23 44
21 22 -3 -20 -22 -55 -26 -73 -8 -18 18 -15 55 6 67 27 16 32 13 32 -16z
m-142 -47 c28 0 52 -4 52 -7 0 -3 35 -12 78 -18 108 -17 337 -74 467 -117 247
-81 480 -194 713 -346 l92 -61 0 -178 c0 -99 -3 -179 -7 -179 -5 0 -51 12
-103 26 -182 49 -637 139 -838 165 -42 5 -111 14 -152 20 -400 53 -955 51
-1406 -5 -267 -33 -689 -113 -913 -172 -73 -19 -136 -33 -138 -30 -7 7 -11
306 -5 334 3 15 34 43 93 83 48 32 91 59 93 59 3 0 36 19 73 42 155 95 431
211 658 277 216 62 366 89 640 115 33 3 262 0 603 -8z m-488 -1006 l0 -50
-325 0 -325 0 0 50 0 50 325 0 325 0 0 -50z m982 0 l-4 -50 -424 0 -424 0 0
50 0 50 428 0 427 0 -3 -50z m-2042 -307 c1 -83 5 -125 15 -143 22 -39 19
-102 -8 -141 -31 -47 -62 -61 -125 -56 -98 7 -154 95 -117 183 13 30 16 68 15
157 l-1 117 111 0 110 0 0 -117z m351 105 c1 -7 1 -59 0 -115 -2 -75 2 -110
14 -132 22 -44 19 -113 -6 -145 -63 -80 -185 -72 -239 16 -24 39 -25 73 -5
112 11 21 15 62 15 152 l0 124 110 0 c81 0 110 -3 111 -12z m363 -120 c2 -73
7 -154 11 -179 21 -143 -170 -207 -251 -84 -19 29 -22 111 -5 128 7 7 11 60
11 139 l0 128 114 0 115 0 5 -132z m346 11 c0 -67 5 -129 11 -141 16 -30 13
-106 -6 -134 -40 -61 -130 -82 -192 -44 -47 28 -66 72 -58 129 4 25 9 106 11
179 l5 132 115 0 114 0 0 -121z m350 -3 c0 -91 4 -134 16 -162 13 -30 14 -45
5 -74 -33 -110 -184 -136 -249 -43 -32 46 -35 78 -11 132 18 43 20 65 17 160
l-3 111 113 0 112 0 0 -124z m203 117 c-13 -2 -33 -2 -45 0 -13 2 -3 4 22 4
25 0 35 -2 23 -4z m135 -80 l-2 -88 -5 80 -6 80 -35 6 -35 6 43 2 42 1 -2 -87z
m1070 -53 c11 0 13 -55 11 -285 l-3 -285 -223 0 -223 0 0 284 0 285 53 3 c40
2 305 1 385 -2z m-3498 -3 c0 -2 -12 -14 -27 -28 l-28 -24 24 28 c23 25 31 32
31 24z m2235 -46 c3 -5 1 -12 -5 -16 -5 -3 -10 1 -10 9 0 18 6 21 15 7z m177
-13 c9 -1 16 -5 16 -8 -1 -3 8 -25 20 -50 27 -55 27 -73 2 -128 -22 -48 -64
-72 -125 -72 -104 0 -165 105 -119 203 30 63 74 74 206 55z m-2472 -1 c0 -2
-12 -14 -27 -28 l-28 -24 24 28 c23 25 31 32 31 24z m2866 -299 c43 -85 29
-208 -30 -257 -14 -12 -16 -10 -16 7 0 12 7 25 16 30 13 7 17 26 18 84 1 67
-2 79 -29 119 -16 24 -28 47 -27 52 1 4 -2 7 -8 7 -11 0 -14 33 -3 43 11 11
53 -34 79 -85z m964 68 c0 -2 -8 -10 -17 -17 -16 -13 -17 -12 -4 4 13 16 21
21 21 13z m-1335 -63 c-4 -10 -14 -36 -22 -59 -12 -35 -18 -41 -43 -41 -27 0
-28 3 -23 31 11 60 31 86 64 86 26 0 30 -3 24 -17z m-1806 -38 c13 -7 15 -55
2 -55 -4 0 -6 10 -4 23 3 14 -2 29 -11 36 -9 8 -16 21 -15 30 0 11 3 10 9 -5
5 -12 13 -25 19 -29z m88 39 c-3 -3 -12 -4 -19 -1 -8 3 -5 6 6 6 11 1 17 -2
13 -5z m1971 -25 c54 -42 79 -157 42 -193 -9 -8 -10 5 -5 57 7 62 6 67 -12 67
-11 0 -29 11 -41 25 -17 20 -31 25 -68 25 -37 0 -50 -5 -66 -25 -11 -14 -28
-25 -38 -25 -10 0 -21 -8 -23 -17 -3 -12 -5 -10 -6 7 -1 32 22 66 63 91 38 25
116 18 154 -12z m-2117 -66 c13 -16 12 -17 -3 -4 -10 7 -27 11 -38 8 -11 -3
-18 -1 -14 4 9 15 41 10 55 -8z m115 -93 l154 0 0 -240 0 -240 -243 0 -244 0
0 240 -1 239 61 4 c34 2 75 2 91 0 16 -1 98 -3 182 -3z m1854 -237 l0 -243
-245 0 -245 0 0 240 0 239 153 3 c83 2 194 3 245 3 l92 0 0 -242z m-1135 -5
l0 -238 -242 0 -243 0 0 240 0 240 243 -2 242 -3 0 -237z m565 2 l0 -240 -240
0 -240 0 0 240 0 240 240 0 240 0 0 -240z m-1984 -72 c16 -18 20 -26 9 -18
-28 21 -45 38 -45 44 0 11 6 6 36 -26z m4 -161 c0 -2 -10 -12 -22 -23 l-23
-19 19 23 c18 21 26 27 26 19z m850 -319 l0 -243 -202 2 c-112 2 -220 3 -240
3 l-38 0 0 240 0 240 240 0 240 0 0 -242z m565 -3 l0 -240 -240 0 -240 0 -3
243 -2 242 242 -2 243 -3 0 -240z m563 3 l-3 -243 -240 0 c-222 0 -240 1 -239
18 0 9 1 118 2 242 l2 225 240 0 240 0 -2 -242z m570 0 l-3 -243 -242 -2 -243
-2 0 245 0 244 245 0 245 0 -2 -242z m1132 -62 c0 -2 -8 -10 -17 -17 -16 -13
-17 -12 -4 4 13 16 21 21 21 13z m-2830 -491 l0 -245 -240 2 -240 3 -1 235 c0
129 0 238 0 243 1 4 109 7 241 7 l240 0 0 -245z m561 228 c2 -10 3 -120 1
-245 l-3 -228 -239 0 -240 0 0 240 0 240 233 3 c127 1 235 3 238 5 4 1 8 -6
10 -15z m569 -228 l0 -245 -240 0 -240 0 0 245 0 245 240 0 240 0 0 -245z
m523 235 l48 0 -3 -237 -3 -238 -242 -3 -243 -2 0 240 0 240 178 3 c97 1 186
2 197 0 11 -1 42 -3 68 -3z m1013 -32 c-3 -13 -6 -35 -6 -50 l0 -28 -220 0
-220 0 0 50 0 50 226 0 226 0 -6 -22z m-542 -387 c3 -5 -3 -11 -13 -14 -14 -3
-18 -11 -14 -26 3 -12 10 -21 16 -21 6 0 7 -3 4 -6 -4 -4 -13 -1 -22 6 -15 13
-20 51 -8 63 9 10 31 9 37 -2z m36 -61 c0 -5 -5 -10 -11 -10 -5 0 -7 5 -4 10
3 6 8 10 11 10 2 0 4 -4 4 -10z m-88 -40 c18 -16 28 -30 22 -30 -6 0 -19 9
-29 20 -10 11 -24 20 -31 20 -26 0 -25 -22 2 -51 15 -16 23 -29 17 -29 -5 0
-18 9 -28 20 -10 11 -24 20 -31 20 -24 0 -26 -21 -5 -44 27 -28 28 -45 1 -21
-35 32 -35 54 1 91 18 19 36 34 41 34 4 0 22 -13 40 -30z m-372 -271 l0 -239
-85 -1 c-47 -1 -96 -2 -110 -2 -14 0 -86 1 -160 2 l-135 1 0 240 0 239 138 3
c75 2 185 2 245 0 l107 -3 0 -240z m-1700 2 l0 -239 -202 -6 c-112 -3 -221 -2
-243 2 l-40 7 -3 238 -3 237 245 0 246 0 0 -239z m570 -1 l-1 -240 -245 0
-244 0 0 240 0 240 245 0 245 0 0 -240z m560 0 l0 -240 -240 0 -240 0 0 240 0
240 240 0 240 0 0 -240z m793 79 c-7 -7 -12 -3 -15 16 -5 25 -4 25 10 11 12
-11 13 -19 5 -27z m967 -3 c0 -2 -8 -10 -17 -17 -16 -13 -17 -12 -4 4 13 16
21 21 21 13z m-1470 -469 c-3 -2 -20 15 -39 37 l-35 41 39 -37 c22 -21 37 -39
35 -41z m-65 0 c-9 -33 16 -52 46 -37 17 10 20 9 17 -2 -6 -18 -46 -23 -64 -8
-14 13 -19 51 -7 63 11 12 14 8 8 -16z m-2224 -54 c13 -16 12 -17 -3 -4 -10 7
-18 15 -18 17 0 8 8 3 21 -13z m1329 -403 c290 -14 808 -11 1225 5 204 8 450
15 548 15 l178 0 -3 -22 c-3 -24 -11 -27 -183 -72 -190 -50 -385 -85 -695
-123 -183 -22 -821 -26 -995 -5 -314 37 -529 74 -724 124 -86 22 -166 42 -178
45 -17 4 -23 13 -23 31 l0 25 328 -7 c180 -4 415 -11 522 -16z m-1320 -804 c0
-2 -8 -10 -17 -17 -16 -13 -17 -12 -4 4 13 16 21 21 21 13z"/>
<path d="M1737 5693 c-4 -3 -7 -109 -7 -235 l0 -228 538 2 537 3 0 230 0 230
-56 3 c-54 3 -57 2 -61 -23 -5 -23 -3 -25 33 -25 l39 0 0 -185 0 -184 -267 -3
c-148 -2 -368 -2 -490 0 l-223 3 0 184 0 185 415 0 415 0 -12 25 -11 25 -422
0 c-232 0 -425 -3 -428 -7z"/>
<path d="M2625 5680 c14 -15 21 -17 32 -9 22 19 15 29 -19 29 -30 0 -31 0 -13
-20z"/>
<path d="M946 4339 c-54 -43 -23 -129 47 -129 69 0 101 77 52 125 -30 30 -64
32 -99 4z"/>
<path d="M1296 4339 c-33 -26 -36 -79 -6 -109 30 -30 83 -27 109 6 12 15 21
37 21 49 0 57 -78 90 -124 54z m24 -24 c7 -9 8 -15 2 -15 -5 0 -12 7 -16 15
-3 8 -4 15 -2 15 2 0 9 -7 16 -15z"/>
<path d="M1646 4339 c-54 -43 -23 -129 47 -129 70 0 104 87 51 129 -15 12 -37
21 -49 21 -12 0 -34 -9 -49 -21z"/>
<path d="M1996 4339 c-55 -43 -21 -129 50 -129 69 0 101 87 48 129 -15 12 -37
21 -49 21 -12 0 -34 -9 -49 -21z"/>
<path d="M2346 4339 c-54 -42 -21 -129 49 -129 46 0 75 29 75 74 0 39 -37 76
-75 76 -12 0 -34 -9 -49 -21z"/>
<path d="M2695 4335 c-30 -30 -32 -64 -4 -99 15 -19 30 -26 55 -26 73 0 103
78 48 128 -33 29 -69 28 -99 -3z"/>
</g>
</svg>
