<?xml version="1.0" encoding="UTF-8" standalone="no"?>
<svg id="svg2" xmlns:rdf="http://www.w3.org/1999/02/22-rdf-syntax-ns#" xmlns="http://www.w3.org/2000/svg" height="1351pt" width="907pt" version="1.1" xmlns:cc="http://creativecommons.org/ns#" xmlns:dc="http://purl.org/dc/elements/1.1/" viewBox="0 0 907 1351">
<g id="g4597">
<path id="path4366" d="m1026.4 7.8711c-4.7-0.1688-9.7 1.3469-13.7 3.6409-13 6.412-37.18 6.726-39.14 24.539-11.02-1.325-19.74-9.763-30.77-11.375-21.85-6.763-45.09 5.424-57.44 23.512-4.13 18.15 32.01 14.236 31.26 26.074-26.82 1.087-47.73 23.913-54.08 48.448-12.88 7-31.47-9.74-47.6-10.61-38.7-9.23-77.67 9.27-112.44 24.1-27.26 10.1-53.59 24.05-74.68 44.11-34.31 24.17-65.83 57.02-69.95 101.03-17.87 12.52-30.55 31.87-25.77 54.45-10.41-0.34-12.99 9.26-14.88 17.61-39.98 78.05-66.92 163.54-94.83 242.72-16.54 34.78-22.53 71.9-42.58 101.19-52.2 122.53-85.68 252.29-141.49 373.79-19.62 57.1-45.49 112.4-67.06 168.9-25.07 53.1-39.02 110.7-65.54 163.3-15.235 40.7-29.335 81-48.335 120.3-14.025 50.7-47.862 95.7-50.449 149 5.312 11.4 23.011 8.3 30.924 1.2 15.55-2.9 21.376-19.4 33.576-27.4 32.214-38.6 75.074-66.9 108.72-103.8 39.15-44.3 77.66-85.6 117.94-128.2 11.89-19.1 38.5-31.1 50.96-52.8 28.35-33.1 61.51-68.5 93.44-101.6 69.47-77.1 138.49-153.6 212.32-227.7 26.3-19.2 44.75-47.32 68.72-68.8 9.62-15.5 27.43-23.89 36.23-39.93 18.74-15.07 30.44-37.24 50.09-51.21 24.27-27.31 54.99-49.07 75.72-79.25 27.07-36.5 63.3-70.55 86.72-109.58 15.42-14.7 27.57-37.62 39.11-51 4.9-14.77 25-22.58 20.2-41.37 9.8-3.64 17.8-13.08 18.4-23.61 5.4-3.72 4.4-15.2 9.3-20.7 8.6-3.44 13.1-12.26 18.2-19.38 36.6-47.6 57.8-110.34 45.1-170.11-8.1-39.66-16.8-84.07-50.1-111.11-5.1-5.59-17.6-10.11-11.9-19.32 6-26.79 28.3-45.62 34-72.32 11.2-28.22-2.2-68.086-33.7-75.473-4.2-18.475-22.8-26.787-38.1-34.475 4.3-9.562 16.2-18.237 15.7-30.324-2.9-4.4439-7.3-6.2982-12.1-6.4669z" transform="scale(.8)" fill="#c39b64"/>
<path id="path4" fill="#423f3c" d="m810.15 9.21c6.44-3.67 16.02-4.85 20.66 2.26 0.4 9.67-9.16 16.61-12.58 24.26 12.26 6.15 27.1 12.8 30.53 27.58 25.14 5.91 35.85 37.8 26.88 60.38-4.51 21.36-22.38 36.42-27.17 57.85-4.59 7.37 5.45 10.99 9.54 15.46 26.65 21.63 33.57 57.16 40.07 88.89 10.14 47.81-6.81 98.01-36.1 136.09-4.07 5.69-7.63 12.75-14.53 15.5-3.94 4.4-3.09 13.58-7.42 16.56 6.34-7.99-7.27-19.32-8.81-7.89-2.39-3.9-12.74 2.26-17.85 1.25-17.41-1.01-34.66-17.15-32.67-35.7 10.78-20.01 21.89-43.55 15.27-66.43-13.09-8.53-29.18 7.15-43.8 1.65-12.33 1.66-15.99-11.37-20.31-20.04-2.3-16.25-1.31-33.08-5.51-49.05-3.85-6.24-10.51 0.94-15.34 2.17-13.13 4.44-37.81 5.9-36.14-14.27-0.29-16.82 12.18-31.72 9.87-48.39-2.35-10.18-14.73-9.28-21.53-4.13-9.61 3.92-15.67 13.1-23.13 19.87-14.7 24.6-31.78 47.27-49.2 69.8-3.84 3.52-7.6 7.14-10.94 11.14-7.91 10.91-24.1 16.47-35.96 8.71-2.83-1.13-5.75-2.06-8.74-2.63-1.84-2.69-3.36-5.6-5.41-8.14-6.24-2.5-5.04-9.65-2.65-14.74 2.44-17.82 18.26-29.28 27.59-43.71 2.94-7.37 5.47-17.51-1.67-23.55-24.04-1.4-28.41 31.44-51.24 34.02-20.62 9.66-47.92-2.96-52.87-24.88-4.16 1.01-6.61 4.81-8.69 8.23-7.34-5.09-15.48 11.97-9.68 17.89-2.17 3.48-0.49 6.71-6.47 7.47 2.05 8.15-4.12 10.39-10.38 10.03 1.51-6.68 3.57-14.36 11.9-14.09-3.82-18.06 6.32-33.54 20.62-43.56 3.29-35.21 28.51-61.49 55.96-80.82 16.87-16.05 37.93-27.21 59.74-35.29 15.62-1.31 33.24-18.3 50.96-9.9-3.66 1.91-9.43-2.04-10.7 3.36-40.17 11.59-76.45 34.21-106.34 62.52-6.47 5.92-13.33 11.59-18.28 18.93-1.22 1.1-2.1 2.49-2.78 3.97-11.41 9.85-13.08 26.85-13.71 40.82 4.62 12.74 16.21 25.72 31.25 23.74 12.02-0.65 21-9.94 27.57-19.17 8.27-11.29 22.62-20.32 36.97-17.21 8.24 4.75 15.63 14.55 13.21 24.43 0.53 21.26-19 33.44-27.21 50.6-8.05 14.81 17.05 26.26 27.11 15.01 25.29-23.49 42.22-54.23 61.92-82.11 3.15-6.73 10.23-9.69 14.15-15.83 12.39-9.48 32.53-23.02 45.87-7.01 1.45 1.61 2.81 3.32 4.1 5.07 5.8 11.22 1.13 23-0.29 34.47-4.7 8.91-12.31 32.4 4.49 28.85 12.85-2.67 26.2-15.58 37.8-2.47 7.43 19.34 0.67 42.84 10.07 61.76 16.38 14.9 37.13-8.35 54.53 2.41 2.71 2.36 5.18 5.02 7.32 7.91 0.95 6.56 1.46 13.17 1.91 19.78-1.41 15.82-3.35 32.25-11.95 46.03-3.8 5.82-6.12 15.02 0.04 20.09 10.61 14.59 33.22 7.58 45.01-2.02 16.31-20.66 31.74-43.5 35.58-70.11 15.25-40.81 5.22-86.71-12.36-125.14-8.5-9.62-17.27-23.32-30.7-24.93-2.62 5.6-6.84 10.19-11.32 14.37 5.44-4.63 7.01-19.61 16.62-15.57-2.53-10.25 9.35-3.65 2.49-9.51-1.44-3.9 1.23-8.87-1.39-12.78 3.98 3.7 5.66-2.81 3.62-5.71 0.33-4.63 7.54-11 3.34-13.77 10.37-1.71 2.26-10.77 11.1-13.7-1.38-5.12-8.4 4.18-4.75-1.73 5.7-1.79 4.37-9.68 11.08-7.88 4.15-6.42 8.57-16.37 4.11-23.74 4.89-11.2 0.29-19.95-1.41-30.81 1.14 4.07-8.83 10.04-4.53 3.47 5.21-2.54-1.63-10.48-3.5-4.8-0.25-3.7-0.7-7.85-5.3-5.63-1.58-11.51-14.9-6.59-22.88-7.93-1.41-20.72-34.81-11.05-36.72-30.86 2.05-6.89 12.57-7.51 12.92-15.03-16.1 0.09-21.68 17.72-35.78 20.69-11.72-9.43-32.72-21.04-45.66-8.28-7.53 8.12 5.79 9.57 10.54 13.17-2.63 2.7-6.2 5.07-6.97 9 8.81-8.97 10.99 14.07 0.82 8.82-6.92-3.43-9.04 5.79-15.78 6.03-1.37-5.53-0.14 5.35-4.75 0.76-6.99-0.85 5.12 4.62-1.85 3-3.64-4.29-11.84 9.73-5.39 3.81 5.08-4.2 0.22 11.78-0.49 3.48-5.45-2.02-3.58 7.43-4.54 7.94-7.12-6.69-3.53 9.48-11.13 9.36l-0.01-0.81c5.08-19.63 21.81-37.89 43.27-38.76 0.6-9.47-28.31-6.34-25.01-20.86 9.88-14.47 28.47-24.22 45.95-18.81 8.83 1.29 15.8 8.04 24.62 9.1 1.57-14.25 20.91-14.5 31.3-19.63z"/>
<path id="path6" fill="#708e37" d="m775.23 41.89c14.1-2.97 19.68-20.6 35.78-20.69-0.35 7.52-10.87 8.14-12.92 15.03 1.91 19.81 35.31 10.14 36.72 30.86-4.87-1.8-9.61 8.23-8.48 0.28-8.03-0.46-16.15-1.55-24.14-0.09-0.91 7.6-0.07 15.89-4.21 22.79-8.62-4.2-11.39-14.94-19.24-19.79-14.11 3.54-21.34 20.63-36.53 22.41 0.45-13.18 9.67-23.46 18.64-32.16 5.78-13.66-15.19-6.23-20.74-13.75-4.75-3.6-18.07-5.05-10.54-13.17 12.94-12.76 33.94-1.15 45.66 8.28z"/>
<path id="path8" fill="#423938" d="m733.14 55.78c0.77-3.93 4.34-6.3 6.97-9 5.55 7.52 26.52 0.09 20.74 13.75-8.97 8.7-18.19 18.98-18.64 32.16 15.19-1.78 22.42-18.87 36.53-22.41 7.85 4.85 10.62 15.59 19.24 19.79 4.14-6.9 3.3-15.19 4.21-22.79 7.99-1.46 16.11-0.37 24.14 0.09-1.13 7.95 3.61-2.08 8.48-0.28 7.98 1.34 21.3-3.58 22.88 7.93 4.6-2.22 5.05 1.93 5.3 5.63 1.87-5.68 8.71 2.26 3.5 4.8-4.3 6.57 5.67 0.6 4.53-3.47 1.7 10.86 6.3 19.61 1.41 30.81 4.46 7.37 0.04 17.32-4.11 23.74-6.71-1.8-5.38 6.09-11.08 7.88-3.65 5.91 3.37-3.39 4.75 1.73-8.84 2.93-0.73 11.99-11.1 13.7 4.2 2.77-3.01 9.14-3.34 13.77 2.04 2.9 0.36 9.41-3.62 5.71 2.62 3.91-0.05 8.88 1.39 12.78 6.86 5.86-5.02-0.74-2.49 9.51-9.61-4.04-11.18 10.94-16.62 15.57-3.02 2.98-6.12 5.86-9.12 8.86-21.26 10.43-53.29 9.88-65.01-14.11-10.02-21.15-22.78-42.22-43.09-54.9-8.22-10.15-18.87-20.71-19.01-34.7 1.62-15.4-19.19-15.64-28.17-22.18 7.06-12.76 23.17 12.54 28.22-1.17 7.6 0.12 4.01-16.05 11.13-9.36 0.96-0.51-0.91-9.96 4.54-7.94 0.71 8.3 5.57-7.68 0.49-3.48-6.45 5.92 1.75-8.1 5.39-3.81 6.97 1.62-5.14-3.85 1.85-3 4.61 4.59 3.38-6.29 4.75-0.76 6.74-0.24 8.86-9.46 15.78-6.03 10.17 5.25 7.99-17.79-0.82-8.82m-30.88 62.99c2.3 18.52 16.98 31.81 32.44 40.5 13.22 14.29 22.63 31.68 32.82 48.2 13.77 22.68 51.95 14.06 59.28-9.58 9.48-12.05 12.48-27.71 18.58-41.51 5.72-10.98 13.22-21.2 16.63-33.25 9.24-14.3 3.72-38.26-10.62-48.02-12.14 2.28-24.87 4.04-37.06 0.96-7.2 9-1.3 24.61-11.79 31.68-12.77 0.16-16.88-15.74-27.01-20.71-15.78 2.71-26.96 25.51-44.65 19.28-9.29-11.02 7.12-25.35 3.87-36.11-22.79-1.7-37.6 28.42-32.49 48.56z"/>
<path id="path10" fill="#b63437" d="m702.26 118.77c-5.11-20.14 9.7-50.26 32.49-48.56 3.25 10.76-13.16 25.09-3.87 36.11 17.69 6.23 28.87-16.57 44.65-19.28 10.13 4.97 14.24 20.87 27.01 20.71 10.49-7.07 4.59-22.68 11.79-31.68 12.19 3.08 24.92 1.32 37.06-0.96 14.34 9.76 19.86 33.72 10.62 48.02 5.14-15.46 4.05-38.05-12.18-45.99-11.53 2.95-23.41 2.25-35.11 2.45-4.71 8.5-0.36 21.94-9.87 28.56-14.69 7.69-19.09-17.37-31.52-18.74-12.52 6.53-22.93 19.08-37.81 20.49-19.54-4.31-2.32-25.88-2.97-37.69-30.12 3.66-38.15 47.35-18.58 67.8 4.03 3.98 7.91 8.11 12.1 11.92 24.82 13.08 31.33 43.65 50.38 62.6 17.88 10.33 41.15 0.77 50.35-16.64-7.33 23.64-45.51 32.26-59.28 9.58-10.19-16.52-19.6-33.91-32.82-48.2-15.46-8.69-30.14-21.98-32.44-40.5z"/>
<path id="path12" fill="#ff333f" d="m713.97 140.01c-19.57-20.45-11.54-64.14 18.58-67.8 0.65 11.81-16.57 33.38 2.97 37.69 14.88-1.41 25.29-13.96 37.81-20.49 12.43 1.37 16.83 26.43 31.52 18.74 9.51-6.62 5.16-20.06 9.87-28.56 11.7-0.2 23.58 0.5 35.11-2.45 16.23 7.94 17.32 30.53 12.18 45.99-3.41 12.05-10.91 22.27-16.63 33.25-6.1 13.8-9.1 29.46-18.58 41.51-9.2 17.41-32.47 26.97-50.35 16.64-19.05-18.95-25.56-49.52-50.38-62.6-4.19-3.81-8.07-7.94-12.1-11.92z"/>
<path id="path14" fill="#4d4d51" d="m561.99 108.96c27.82-11.86 58.99-26.66 89.95-19.28 12.91 0.7 27.78 14.09 38.08 8.49l0.01 0.81c-5.05 13.71-21.16-11.59-28.22 1.17 8.98 6.54 29.79 6.78 28.17 22.18-0.43-1.38-1.29-4.13-1.72-5.5 0.1-3.49-3.29-4.33-5.96-5.22-24.37-13.65-53.34-19.48-80.05-9.19 1.27-5.4 7.04-1.45 10.7-3.36-17.72-8.4-35.34 8.59-50.96 9.9z"/>
<path id="path16" fill="#eaeafa" d="m602.25 102.42c26.71-10.29 55.68-4.46 80.05 9.19 10.01 6.61-6.87 11.22-3.99 19.52 2.45 22.83 13.59 43.94 18.07 66.45 3.48 6.21-1.92 3.79-4.4 3.53-13.34-16.01-33.48-2.47-45.87 7.01-5.11 0.15-9.93 9.12-13.89 1.59 2.04-5.89 1.92-15.01-3.04-18.48-18.6 10.93-35 26.65-48.94 43.21-2.68-0.25-5.06 2.96-7.44 1.67-0.38-8.48-6.58-15.39-13-20.34-4.09-15.92 9.7-30.75 5.16-46.73-22.69 5.9-38.14 25.61-60.29 32.72-9.69 4.52-12.94-10.26-19.85-14.64-9.03-8.98 9.82-13.75 11.09-22.18 29.89-28.31 66.17-50.93 106.34-62.52z"/>
<path id="path18" fill="#f1d3b4" d="m682.3 111.61c2.67 0.89 6.06 1.73 5.96 5.22-7.3 23.68 21.96 38.11 18.92 61.08-7.24-6.23-1.75 8.18-8.7 6.29 0.51 6.33 4.47 19.41-2.4 21.98-1.29-1.75-2.65-3.46-4.1-5.07 2.48 0.26 7.88 2.68 4.4-3.53-4.48-22.51-15.62-43.62-18.07-66.45-2.88-8.3 14-12.91 3.99-19.52z"/>
<path id="path20" fill="#f1c89e" d="m688.26 116.83c0.43 1.37 1.29 4.12 1.72 5.5 0.14 13.99 10.79 24.55 19.01 34.7 20.31 12.68 33.07 33.75 43.09 54.9 11.72 23.99 43.75 24.54 65.01 14.11 13.53-3.33 4.35 9.35-2.83 7.54 2.03-4.78-5.04-5.72-5.47-0.95-12.6-2.35-24.78 7.85-36.88 1.42-8.64-4.62-4.51 9.99-7.12 13.64-8.37 1.02-2.38-13.35-10.23-11.06-1.22 5.69-3.17 12.52 0.11 17.36-3.63 4.76-4.04-7.83-6.52-1.84-1.27 4.57-5.74-3.91-7.23 0.87-4.1 4.11-2.91 12.39 3 13.94 7.11 1.36 7.54 12.72 2.17 16.36 2.67 8.76 1.63 17.06 6.91 25.53 4.02 5.38-7.06 2.78-4.36 7.69 4.05 0.47 6.75-3.26 11.35-3.01-2.87 9.16 14.68 20.32 20.18 9.88 7.4 2.74 16.51 1.91 22.51 7.79-17.4-10.76-38.15 12.49-54.53-2.41-9.4-18.92-2.64-42.42-10.07-61.76-11.6-13.11-24.95-0.2-37.8 2.47-3.71-9.12-5.17-19.05-4.49-28.85 1.42-11.47 6.09-23.25 0.29-34.47 6.87-2.57 2.91-15.65 2.4-21.98 6.95 1.89 1.46-12.52 8.7-6.29 3.04-22.97-26.22-37.4-18.92-61.08z"/>
<path id="path22" fill="#eee0d6" d="m477.63 183.87c4.95-7.34 11.81-13.01 18.28-18.93-1.27 8.43-20.12 13.2-11.09 22.18 6.91 4.38 10.16 19.16 19.85 14.64 22.15-7.11 37.6-26.82 60.29-32.72 4.54 15.98-9.25 30.81-5.16 46.73 6.42 4.95 12.62 11.86 13 20.34 2.38 1.29 4.76-1.92 7.44-1.67-0.75 5.96-6.5 9.54-10.27 13.6-0.01-2.54 0.04-5.07 0.17-7.59 2.42-9.88-4.97-19.68-13.21-24.43-0.66-0.8-1.3-1.6-1.93-2.4 0.18-7.19-9.85-8.57-7.61-16.45-0.93-8.59-6.9 0.25-9.52 3.59-12.38-8.85-26.34 10.25-40.15 3.6-5.88-4.13-8.52-11.58-14.9-15.16-2.05-1.45-4.31-2.85-5.19-5.33z"/>
<path id="path24" fill="#f4c597" d="m474.85 187.84c0.68-1.48 1.56-2.87 2.78-3.97 0.88 2.48 3.14 3.88 5.19 5.33 9.82 13.9 23.36 30.7 41.75 31.78 8.6-6.28 19.99-7.47 30.43-7.36 0.63 0.8 1.27 1.6 1.93 2.4-14.35-3.11-28.7 5.92-36.97 17.21-4.46-2.45-7.3-8.73-13.99-6.55 2.72-4.2 1.74-8.56-6.32-8.21 0.2-8.67-7.6-11.72-14.16-14.54 1.12-7.7-4.01-13.28-10.64-16.09z"/>
<path id="path26" fill="#f7bb81" d="m461.14 228.66c0.63-13.97 2.3-30.97 13.71-40.82 6.63 2.81 11.76 8.39 10.64 16.09 6.56 2.82 14.36 5.87 14.16 14.54 8.06-0.35 9.04 4.01 6.32 8.21 6.69-2.18 9.53 4.1 13.99 6.55-6.57 9.23-15.55 18.52-27.57 19.17-15.04 1.98-26.63-11-31.25-23.74z"/>
<path id="path28" fill="#f0d8bf" d="m482.82 189.2c6.38 3.58 9.02 11.03 14.9 15.16 13.81 6.65 27.77-12.45 40.15-3.6 2.62-3.34 8.59-12.18 9.52-3.59-2.24 7.88 7.79 9.26 7.61 16.45-10.44-0.11-21.83 1.08-30.43 7.36-18.39-1.08-31.93-17.88-41.75-31.78z"/>
<path id="path30" fill="#eedac3" d="m580.24 234.44c13.94-16.56 30.34-32.28 48.94-43.21 4.96 3.47 5.08 12.59 3.04 18.48 3.96 7.53 8.78-1.44 13.89-1.59-3.92 6.14-11 9.1-14.15 15.83-5.73 2.71-7.99 14.76-15.71 11.64 3.62 9.58-11.62 10.3-12.77 18.95-0.53 4.27-4.27 1.4-4.61-1.37-8.02 0.64-1.53 15.96-10.29 15.45-4.26-5.53-3.78 2.2-1.97 5.2-1.08 3.84-7.49 1.1-4.87 6.09-2.72-5.69-7.92-12.65-8.89-2.3-8.53-0.51-0.13-11.49-8.34-10.24 1.11-5.74 5.96-12.34 5.46-19.33 3.77-4.06 9.52-7.64 10.27-13.6z"/>
<path id="path32" fill="#e8dde1" d="m837.53 202.81c13.43 1.61 22.2 15.31 30.7 24.93 3.74 9.13-3.6 8.18-8.5 1.47-3.83-6.86-13.07 5.58-15.21-2.07 2.18-9.45-5.49-16.19-6.99-24.33z"/>
<path id="path34" fill="#f1d2b2" d="m826.21 217.18c4.48-4.18 8.7-8.77 11.32-14.37 1.5 8.14 9.17 14.88 6.99 24.33 2.14 7.65 11.38-4.79 15.21 2.07 4.9 6.71 12.24 7.66 8.5-1.47 17.58 38.43 27.61 84.33 12.36 125.14-3.84 26.61-19.27 49.45-35.58 70.11-7.09 5.79-15.43 0.81-23.02 3.94-7.57 6.28-15.03 2.31-21.99-1.92-6.16-5.07-3.84-14.27-0.04-20.09 8.6-13.78 10.54-30.21 11.95-46.03 1.13 6.32 0.33 12.9 2.81 18.95-7.23 1.7 0.63 6.5 3.2 9.34 2.99 4.6 7.36-2.12 11.18-0.13 5.82 3.3 8.28-12.1 13.58-4.67 3.11-8.49 15.1-11.5 18.3-25.32 1.84 3.14 5.96 3.28 5.12-1.18-4.36-1.65-8.3-3.98-8.04-9.29 11.35 1.6 1.12-13.82 4.68-19.52 3.86-24.86-4.75-48.43-9.51-72.49-2-4.18-1.93-10.07-7.27-11.59-2.8 8.62-12.18 18.83-19.23 19.56-2.62-1.22-14.67 6.35-16.64-4.58-5.62-0.41-4.37-11.27-10.27-6.13 5.14-5.06-4.8-7.42-6.6-2.21-10.07-5.81-12.64 7.72-20.62 10.97-6.26 9.43-16.63 24.12-9.17 35.19 9.91 1.07 17.03 11.58 26.9 11.6 3.28-4.21 11.05 5.33 2 2.31-7.97 0.24 4.52 12.3 6.69 4.43 5.72 3.02 6.73 7.32 1.86 11.74 9.74-6.28 9.51 6.65 9.12 13.24-2.14-2.89-4.61-5.55-7.32-7.91-6-5.88-15.11-5.05-22.51-7.79-5.5 10.44-23.05-0.72-20.18-9.88-4.6-0.25-7.3 3.48-11.35 3.01-2.7-4.91 8.38-2.31 4.36-7.69-5.28-8.47-4.24-16.77-6.91-25.53 5.37-3.64 4.94-15-2.17-16.36-5.91-1.55-7.1-9.83-3-13.94 1.49-4.78 5.96 3.7 7.23-0.87 2.48-5.99 2.89 6.6 6.52 1.84-3.28-4.84-1.33-11.67-0.11-17.36 7.85-2.29 1.86 12.08 10.23 11.06 2.61-3.65-1.52-18.26 7.12-13.64 12.1 6.43 24.28-3.77 36.88-1.42 0.43-4.77 7.5-3.83 5.47 0.95 7.18 1.81 16.36-10.87 2.83-7.54 3-3 6.1-5.88 9.12-8.86z"/>
<path id="path36" fill="#c9733f" d="m663.21 213.21c6.8-5.15 19.18-6.05 21.53 4.13 2.31 16.67-10.16 31.57-9.87 48.39-6.26 8.74 7.37 26.17 17.39 18.47 3.8-1.24 2.15 5.09 5.77 5.24-6.66-9.79 9.87-2.92 14.94-7.61 6.99-3.7 5.27 6.78 8.24 9.85 10.79-4.45 4.51 25.71 0.86 8.38-2.56 19.56-1.61-9.6-10.95 1.06 7.69-4.65-6.59-11.08-5.89-3.02-1.73 4.67-6.88-4.88-9.98-0.93-2.92 2.6-11.74 7-10.85 0.02-8.74 5.31-7.4-5.99-14.62-8.03-6.23-11.66-11.62-25.12-23.96-31.79-12.18 3.89-15.37 22.34-29.7 21.41-1.17-5.49 7.86-3.82 6.97-9.36-0.26-5.22 4.96-15.91 8.8-7.53 5.63-11.91 6.75-24.06 16.42-34.6 6.37-3.2 8.81-10.4 14.9-14.08z"/>
<path id="path38" fill="#c27c46" d="m640.08 233.08c7.46-6.77 13.52-15.95 23.13-19.87-6.09 3.68-8.53 10.88-14.9 14.08-9.67 10.54-10.79 22.69-16.42 34.6-3.84-8.38-9.06 2.31-8.8 7.53 0.89 5.54-8.14 3.87-6.97 9.36 14.33 0.93 17.52-17.52 29.7-21.41 12.34 6.67 17.73 20.13 23.96 31.79 7.22 2.04 5.88 13.34 14.62 8.03-0.89 6.98 7.93 2.58 10.85-0.02 3.1-3.95 8.25 5.6 9.98 0.93-0.7-8.06 13.58-1.63 5.89 3.02 9.34-10.66 8.39 18.5 10.95-1.06 3.65 17.33 9.93-12.83-0.86-8.38-2.97-3.07-1.25-13.55-8.24-9.85-5.07 4.69-21.6-2.18-14.94 7.61-3.62-0.15-1.97-6.48-5.77-5.24-10.02 7.7-23.65-9.73-17.39-18.47-1.67 20.17 23.01 18.71 36.14 14.27 4.83-1.23 11.49-8.41 15.34-2.17 4.2 15.97 3.21 32.8 5.51 49.05 4.32 8.67 7.98 21.7 20.31 20.04 14.62 5.5 30.71-10.18 43.8-1.65 6.62 22.88-4.49 46.42-15.27 66.43-1.99 18.55 15.26 34.69 32.67 35.7 5.11 1.01 15.46-5.15 17.85-1.25-2.47 18.9-25.92 26.45-41.93 21.89-6.22 2.71-12.97 0.95-19.18-0.83 1.93-3.75 0.66-7.93 0.24-11.86 0-7.04 12.36-8.13 7.61-16.22-3-5.86-3.52 4.13-7.58 2.57-12.77-12.3-34.56-1.51-48.66-12.23-4.34-3.29-1.99 5.91-7.67 2.71 8.7 14.23-20.28 27.52-4.45 37.63 3.92-9.16 9.58 4.72 14.14-2.56 4.29 6.77 5.65-2.42 6.76-6.08 2.78 1.83 7.74 0.93 5.5 6.29 4.75-2.78 10.55-5.37 12.28 2.45-3.96 1.2-7.55 3.18-11.21 5.03-11.41-7.07-17.12 9.56-24 16.2-2.11-3.1 4.03-13.24-1.42-9.36-3.16 3.39-3.46-4.36-7.12-4.24 0.52 3.68 3.59 11.23-2.07 11.65 1.8-3.67 1.13-9.19-3.92-9.29-0.27 5.96 4.23 11.97-1.46 17.04-4.36 6.24-4.41-6.43-6.03-7.63-4.66 2.74-6.32 3.66-8.85 8.59-2.52-8.59-12.1-3.13-5.3 2.99 1.93-6.42 5.68-1.66 5.25 2.82-5.94 0.14-18.51 2.88-15.39 12.12-12.03-2.6-11.2 13.83-22.31 11.85 11.71-17.83 23.59-36.04 31.22-56.04 2.29-16.22 12.88-31.87 28.78-37.15 8.73-2.85-2.83-13.03 2.03-19.09 13.04-1.01 17.99 16.92 31.39 15.77 9.17-0.14 20.43 6.4 28.55 0.25-5.78-14.38-7.85-33.94-1.48-49.35-12.65-6.38-22.49-18.7-28.53-31.38-8.81-6.34-14.07-15.5-17.55-25.56-1.77-6.53-1.15-13.7-4.34-19.81-10.81 1.28-20.95-1.94-31.54-1.14-21.41-4.26-17.95-36.33-38.34-39.45-11.51 6.88-22.85 18.27-32.66 28.46-3.6 7.16-13.37 17.2-21.1 9.69 17.42-22.53 34.5-45.2 49.2-69.8z"/>
<path id="path40" fill="#eccca9" d="m616.25 235.59c7.72 3.12 9.98-8.93 15.71-11.64-19.7 27.88-36.63 58.62-61.92 82.11-10.06 11.25-35.16-0.2-27.11-15.01 8.21-17.16 27.74-29.34 27.21-50.6-0.13 2.52-0.18 5.05-0.17 7.59 0.5 6.99-4.35 13.59-5.46 19.33 8.21-1.25-0.19 9.73 8.34 10.24 0.97-10.35 6.17-3.39 8.89 2.3-2.62-4.99 3.79-2.25 4.87-6.09-1.81-3-2.29-10.73 1.97-5.2 8.76 0.51 2.27-14.81 10.29-15.45 0.34 2.77 4.08 5.64 4.61 1.37 1.15-8.65 16.39-9.37 12.77-18.95z"/>
<path id="path42" fill="#c06f3b" d="m501.86 263.98c22.83-2.58 27.2-35.42 51.24-34.02 7.14 6.04 4.61 16.18 1.67 23.55-9.33 14.43-25.15 25.89-27.59 43.71-2.39 5.09-3.59 12.24 2.65 14.74-6.89 0.31-7.93 6.24-2.76 9.66-5.13-0.21-9.37 10.89-1.97 9.85 2.48 8.03-9.61-2.14-11.08 4.72-6.07 6.38 4.73-0.91 3.81 6.26-4.59-0.34-12.63 0.51-12.49 6.39 5.08 2.73 9.63-0.34 13.69-2.57 4.04 3.76 14.17-1.34 12.8 5.91 1.8 11.78-5.64-7.98-10.46-0.32-6.39 6.64 3.17 12.75 7.57 16.84 9.35 2.76 13.37 14.47 24.29 13.9 2.6 2.64 7.19 3.78 8.69 7.38-21.44-6.96-38.86-22.76-56.44-36.47-17.13-20.24-42.14-33.63-53.55-58.41-7.96-13.32-8.18-27.81-11.02-42.43 3.25 0.88 5.54-0.95 6.93-3.77 12.67 16.55 35.64 27.49 54.02 15.08m6.83 15.51c-10.55 7.3-20.81 4.79-31.83 6.79-11.28-12.29-3.15 18.18 4.94 10.96 1.39 4.47 8.86 4.16 10.78 0.03 7.82-2.72 6.99 5.64 2.46 6.65 6.17 3.12-1.64 9.88 2.61 14.45 8.24 2.26-3.88-21.81 7.62-12.6 9.3-4.98 9.2 12.23 18 7.21 4.12-4.81-8.42-2.26-6.65-6.46 2.18-3.41-7.11-10.28 0.38-8.65-3.04-6.11 2.15-19.28-8.31-18.38z"/>
<path id="path44" fill="#a2653c" d="m440.3 247.33c2.08-3.42 4.53-7.22 8.69-8.23 4.95 21.92 32.25 34.54 52.87 24.88-18.38 12.41-41.35 1.47-54.02-15.08-1.39 2.82-3.68 4.65-6.93 3.77 2.84 14.62 3.06 29.11 11.02 42.43-6.85-7.32-11.35-17.17-9.37-27.39-4.81-5.78-5.04-13.66-2.26-20.38z"/>
<path id="path46" fill="#d9d4d6" d="m700.28 269.5c-16.8 3.55-9.19-19.94-4.49-28.85-0.68 9.8 0.78 19.73 4.49 28.85z"/>
<path id="path48" fill="#efdbca" d="m845.96 242.99c5.34 1.52 5.27 7.41 7.27 11.59 4.76 24.06 13.37 47.63 9.51 72.49-3.56 5.7 6.67 21.12-4.68 19.52-0.26 5.31 3.68 7.64 8.04 9.29 0.84 4.46-3.28 4.32-5.12 1.18-3.2 13.82-15.19 16.83-18.3 25.32-5.3-7.43-7.76 7.97-13.58 4.67-3.82-1.99-8.19 4.73-11.18 0.13-2.57-2.84-10.43-7.64-3.2-9.34-2.48-6.05-1.68-12.63-2.81-18.95-0.45-6.61-0.96-13.22-1.91-19.78 0.39-6.59 0.62-19.52-9.12-13.24 4.87-4.42 3.86-8.72-1.86-11.74-2.17 7.87-14.66-4.19-6.69-4.43 9.05 3.02 1.28-6.52-2-2.31-9.87-0.02-16.99-10.53-26.9-11.6-7.46-11.07 2.91-25.76 9.17-35.19 7.98-3.25 10.55-16.78 20.62-10.97 1.8-5.21 11.74-2.85 6.6 2.21 5.9-5.14 4.65 5.72 10.27 6.13 1.97 10.93 14.02 3.36 16.64 4.58 7.05-0.73 16.43-10.94 19.23-19.56m-0.56 14.18c-6.8 7.25-18.74 11.29-14.84 23.53-10.24 16.1-3.73 37.04-15.5 52.27-7.03 7.01-1.49 16.68-1.51 25.06 9.33 4.34 1.43 21.72 10.07 23.83 5.36-8.94 16.08-14.1 20.15-24.03 20.84-26.34 16.25-64.59 6.22-94.07 0.72-2.58-1.01-7.96-4.59-6.59m-65.93 3.1c-6.84 2.62-6.24 12.19-11.45 16.68-4.52 4.22-8.65 16.73 1.11 16.55 17.22-3.61 34.3-11.02 48.08-21.62-13.32-1.2-26.12-7.02-37.74-11.61z"/>
<path id="path50" fill="#424039" d="m430.62 265.22c-5.8-5.92 2.34-22.98 9.68-17.89-2.78 6.72-2.55 14.6 2.26 20.38-1.98 10.22 2.52 20.07 9.37 27.39 11.41 24.78 36.42 38.17 53.55 58.41 17.58 13.71 35 29.51 56.44 36.47 11.35 6.08 22.44 13.01 34.66 17.18 8.58 6.33 19.93 5.87 28.26 12.05 6.24 3.59 18.55 7 11.3 15.68 14.96 27.04 7.34 59.84-4.75 86.51-7.24 22.06-28.95 33.94-44.61 49.5-11.96 5.42-18.48 30.55-1.25 32.72 29.65 7.09 50.28-18.98 69.14-36.99 15.29-20.49 31.57-40.32 47.17-60.76 13.13-8.72 20.82-24.24 35.23-30.93 3.66-1.85 7.25-3.83 11.21-5.03 7.39-0.01 14.47-2.36 21.83-2.7 6.21 1.78 12.96 3.54 19.18 0.83 16.01 4.56 39.46-2.99 41.93-21.89 1.54-11.43 15.15-0.1 8.81 7.89-0.47 8.42-6.93 15.98-14.74 18.89 3.86 15.03-12.23 21.28-16.15 33.09-9.25 10.71-18.97 29.04-31.31 40.8-18.73 31.23-47.72 58.47-69.37 87.67-16.59 24.14-41.16 41.55-60.58 63.4-15.72 11.17-25.08 28.91-40.07 40.97-7.04 12.83-21.29 19.54-28.99 31.94-19.17 17.18-33.93 39.65-54.97 55.06-59.07 59.26-114.28 120.46-169.86 182.14-25.54 26.5-52.07 54.8-74.75 81.3-9.97 17.3-31.26 27-40.77 42.2-32.22 34.1-63.03 67.1-94.35 102.6-26.92 29.5-61.21 52.1-86.98 83.1-9.76 6.3-14.42 19.5-26.86 21.8-6.33 5.7-20.49 8.2-24.74-0.9 2.07-42.6 29.14-78.7 40.36-119.2 15.2-31.4 26.48-63.7 38.67-96.3 21.21-42 32.37-88.1 52.43-130.57 17.26-45.23 37.95-89.45 53.65-135.19 44.65-97.16 71.43-200.97 113.19-298.99 16.04-23.43 20.83-53.13 34.06-80.95 22.33-63.35 43.88-131.74 75.87-194.18 6.26 0.36 12.43-1.88 10.38-10.03 5.98-0.76 4.3-3.99 6.47-7.47m-4.99 17.39c-2.27 10.12-9.7 18.05-12.4 28.06-14.02 27.84-26.82 57.23-35.09 87.38-9.96 16.29-15.31 36.65-21.89 54.91-1.73 9.01-6.5 17.11-9.13 25.86-5.31 18.61-16.37 35.22-21.08 54.15-18.83 50.05-43.46 98.3-55.99 150-21.72 60.03-46.8 119.19-67.93 179.54-13.13 24.58-21.46 55.23-33.88 81.42-6.59 11.81-13.34 25.4-16.25 38.91-10.99 25.26-19.54 51.76-29.04 78.06-12.57 20-14.41 44-25.37 64.8-2.73 8.6-8.91 16.1-9.63 25.3-1.08 1.5-1.46 3.4-1.85 5.2-1.97 7.2-4.72 17.8-11.16 20.2-5.67 16.7-15.04 32.3-20.32 49.3-2.11 18.7-16.07 32.7-19.43 51.1-6.21 15.7-14.9 32.3-14.3 49.8 15.81 1.9 20.52-16 32.18-22.5 27.02-31.5 64.38-52.4 90.79-84.3 18.09-21.1 38.66-40.4 56.13-62 6.13-3.1 9.44-10 13.96-14.9 27.56-26.1 53.98-53.5 79.08-82 2.79-1.2 3.54-4.4 4.87-6.9 30.34-34.6 62.7-66.68 91.95-102.2 15.91-13.26 28.69-30.16 41.26-46.69 29.06-28.52 55.34-59.27 84.98-87.1 23.16-19.68 43.21-43.52 63.93-65.99 25.12-20.5 43.13-49.83 67.7-69.9 12.5-8.28 23.07-21.51 33.83-30.48 2.91-5.09 6.25-2.65 8.62-10.92 2.27-2.71 6.1-5.73 7.55-8.39 19.74-26.48 42.96-50.06 61.69-77.31 17.02-22.44 34.46-45.23 47.47-70.27-1.04-3.11-11.91-0.8-14.83-0.84l-0.01 0.84c-17.26-3.62-39-5.78-53.24 6.11-15.67 10.43-29.54 24.08-40.75 39.23-5.86 10.64-15.43 18.71-22.03 28.91-21.55 25.31-45.14 57.25-82.01 58.99-2.9-1.83-6.78 0.53-10.07-0.91-21.85-0.66-27.69-25.4-19.11-42.19 8.56-9.87 18.92-17.7 29.16-25.74 25.01-19.85 40.66-55.11 35.69-86.42 0.58-15.1-8.44-33.43-23.71-37.72-14.91-4.24-30.28-9.83-42.55-19.56-0.96-0.37-1.95-0.49-2.95-0.34-5.23-6.11-14.46-6.72-21.76-9.83-6.33-6.91-17.98-10.19-24.73-17.04-6.65-4.16-11.85-11.49-18.78-15.44-10.66-12.23-21.58-24.76-35.14-33.86-0.7-6.27-9.32-7.98-11.13-14.19-7.81-10.02-12.94-21.58-19.15-32.57-0.87-1.62-4.01-1.77-4.15 0.43z"/>
<path id="path52" fill="#eae8f6" d="m845.4 257.17c3.58-1.37 5.31 4.01 4.59 6.59 10.03 29.48 14.62 67.73-6.22 94.07-4.07 9.93-14.79 15.09-20.15 24.03-8.64-2.11-0.74-19.49-10.07-23.83 0.02-8.38-5.52-18.05 1.51-25.06 11.77-15.23 5.26-36.17 15.5-52.27-3.9-12.24 8.04-16.28 14.84-23.53z"/>
<path id="path54" fill="#eae5f1" d="m779.47 260.27c11.62 4.59 24.42 10.41 37.74 11.61-13.78 10.6-30.86 18.01-48.08 21.62-9.76 0.18-5.63-12.33-1.11-16.55 5.21-4.49 4.61-14.06 11.45-16.68z"/>
<path id="path56" fill="#c8a06c" d="m611.98 293.19c9.81-10.19 21.15-21.58 32.66-28.46 20.39 3.12 16.93 35.19 38.34 39.45 10.59-0.8 20.73 2.42 31.54 1.14 3.19 6.11 2.57 13.28 4.34 19.81 0.89 5.59 2 11.14 3.18 16.68-6.67 2.31 3.68 17.05-7.64 18.72-6.46-1.53 5.53-15.1-1.15-18.32-1.46 5.48-4.91 10.74-11.23 10.05-1.41-14.42-15.02 6.37-18.7-5.08 4.45-6.86 17.85 5.24 13.82-7.69-4.55-0.8-9.83-9.28-14.2-1.66-1.14 5.37-9.66 1.54-8.73 6.64 6.99-0.02-1.45 4.16-3.49 2.64-2.75-3.08 5.81-10.68-0.34-7.94-3.55 1.77-2.22-2.96 0.17-3.57 5.53-2.56-2.12-6.94-0.36-10.96 3.44-1.84 1.23 6.68 5.57 4.06 5.47-8.98-1.41-19.01-4.79-27.84-5.79 1.45 1.16 10.52-3.53 8.39-0.35-12.96-4.14 4.06-9.28-1.31-3.98-5.43-14.26-0.87-11.7 5.98 4.88 0.76 11.41-3.63 15.44-0.07-1.68 2.6-5.16 8.1 0.38 8.23-0.75 3.43-5.26 5.78-6.3 9.56 4.41-1.66 8.79 2.94 5.81 7.02-3.17 5.28 9.4 3.05 5.53 8.71-10-3.44-8.83 18.91-1.16 12.71 1.34 5.33-6.46 10.61 1.57 13.08-3.02 8.88-14.41-0.73-10.77-6.93 2.16-5.62-6.43-6.72-9.09-9.14-2.49-7 6.77-0.65 9.2 0.59-0.65-4.14-0.39-8.33-0.48-12.5-4.19-4.08-11.19 7.46-12.68-0.61 4.18-0.66 7.86-3.04 12.14-3.23 0.69-8.34-8.25-0.53-10.02-7.53-3.85-6.04-7.02 5.91-10.26 3.19-2.75-9.85 9.95-17.45 7.14-26.88-5.43-4.07-4.67 3.11-3.07 6.83-5.31 0.04-6.63-10.42-11.98-2.99-1 10.55-13.27 12.41-20.46 16.77-7.21-5.64-3.37 9.41-9.01 2.98-8.57-4.95 4.38-20.24 4.97-6.11 11.21 0.23-1.69-5.47-1.95-10.97-3.17-7.33-0.54 7.61-6.98 2.16-6.16 2.78-13.65 10.08-22.87 9.15-0.77-6.25 8.28-7.72 8.38-13.92 3.34-4 7.1-7.62 10.94-11.14 7.73 7.51 17.5-2.53 21.1-9.69z"/>
<path id="path58" fill="#c27d46" d="m508.69 279.49c10.46-0.9 5.27 12.27 8.31 18.38-7.49-1.63 1.8 5.24-0.38 8.65-1.77 4.2 10.77 1.65 6.65 6.46-8.8 5.02-8.7-12.19-18-7.21-11.5-9.21 0.62 14.86-7.62 12.6-4.25-4.57 3.56-11.33-2.61-14.45 4.53-1.01 5.36-9.37-2.46-6.65-1.92 4.13-9.39 4.44-10.78-0.03-8.09 7.22-16.22-23.25-4.94-10.96 11.02-2 21.28 0.51 31.83-6.79z"/>
<path id="path60" fill="#f8ee4a" d="m425.63 282.61c0.14-2.2 3.28-2.05 4.15-0.43 6.21 10.99 11.34 22.55 19.15 32.57-5.78 4.58-1 13.41-1.82 19.76-3.54 3.36-6.4 7.39-10.08 10.61-14.63 3.61-27.65 12.48-42.81 12.73 5.2-15.47 15.78-30.72 19.01-47.18 2.7-10.01 10.13-17.94 12.4-28.06z"/>
<path id="path62" fill="#c39b64" d="m667.44 309.25c4.69 2.13-2.26-6.94 3.53-8.39 3.38 8.83 10.26 18.86 4.79 27.84-4.34 2.62-2.13-5.9-5.57-4.06-1.76 4.02 5.89 8.4 0.36 10.96-2.39 0.61-3.72 5.34-0.17 3.57 6.15-2.74-2.41 4.86 0.34 7.94 2.04 1.52 10.48-2.66 3.49-2.64-0.93-5.1 7.59-1.27 8.73-6.64 4.37-7.62 9.65 0.86 14.2 1.66 4.03 12.93-9.37 0.83-13.82 7.69 3.68 11.45 17.29-9.34 18.7 5.08 6.32 0.69 9.77-4.57 11.23-10.05 6.68 3.22-5.31 16.79 1.15 18.32 11.32-1.67 0.97-16.41 7.64-18.72-1.18-5.54-2.29-11.09-3.18-16.68 3.48 10.06 8.74 19.22 17.55 25.56 6.04 12.68 15.88 25 28.53 31.38-6.37 15.41-4.3 34.97 1.48 49.35-8.12 6.15-19.38-0.39-28.55-0.25-13.4 1.15-18.35-16.78-31.39-15.77-4.86 6.06 6.7 16.24-2.03 19.09-15.9 5.28-26.49 20.93-28.78 37.15-7.63 20-19.51 38.21-31.22 56.04-15.58 12.22-26.49 29.44-43.3 40.39-2.81 5.21-11.16 10.07-14.37 2.83 15.66-15.56 37.37-27.44 44.61-49.5 12.09-26.67 19.71-59.47 4.75-86.51 7.25-8.68-5.06-12.09-11.3-15.68-0.71-1.16-2.85-3.56-0.27-3.76 15.89-4.98 25.25-20.49 31.01-35.12 2.17-8.87-10.06-11.97-16.62-10.87-18.07-5.5-37.76-2.91-55.97-8.48-18.12-6.69-33.57-19.21-42.9-36.26 0.23-1.9 2.52-1.62 3.89-1.99 11.86 7.76 28.05 2.2 35.96-8.71-0.1 6.2-9.15 7.67-8.38 13.92 9.22 0.93 16.71-6.37 22.87-9.15 6.44 5.45 3.81-9.49 6.98-2.16 0.26 5.5 13.16 11.2 1.95 10.97-0.59-14.13-13.54 1.16-4.97 6.11 5.64 6.43 1.8-8.62 9.01-2.98 7.19-4.36 19.46-6.22 20.46-16.77 5.35-7.43 6.67 3.03 11.98 2.99-1.6-3.72-2.36-10.9 3.07-6.83 2.81 9.43-9.89 17.03-7.14 26.88 3.24 2.72 6.41-9.23 10.26-3.19 1.77 7 10.71-0.81 10.02 7.53-4.28 0.19-7.96 2.57-12.14 3.23 1.49 8.07 8.49-3.47 12.68 0.61 0.09 4.17-0.17 8.36 0.48 12.5-2.43-1.24-11.69-7.59-9.2-0.59 2.66 2.42 11.25 3.52 9.09 9.14-3.64 6.2 7.75 15.81 10.77 6.93-8.03-2.47-0.23-7.75-1.57-13.08-7.67 6.2-8.84-16.15 1.16-12.71 3.87-5.66-8.7-3.43-5.53-8.71 2.98-4.08-1.4-8.68-5.81-7.02 1.04-3.78 5.55-6.13 6.3-9.56-5.54-0.13-2.06-5.63-0.38-8.23-4.03-3.56-10.56 0.83-15.44 0.07-2.56-6.85 7.72-11.41 11.7-5.98 5.14 5.37 8.93-11.65 9.28 1.31z"/>
<path id="path64" fill="#dbbc60" d="m378.14 398.05c8.27-30.15 21.07-59.54 35.09-87.38-3.23 16.46-13.81 31.71-19.01 47.18 15.16-0.25 28.18-9.12 42.81-12.73-3.31 3.67-12.77 5.05-8.31 11.05-8.55-7.16-7.39 6.05-14.55 5.4-4.29 7.3-7.72 15.23-12.08 22.53 3.86 10.53 19.73 13.61 27.53 5.31 5.46 0.14 12.83 1.66 14.67-5.29-2.21-8.83 3.86-1.89 7.45-4.95 4.09-0.66 2.93-9.34 7.27-7.17-2.28 4.59-5.6 8.56-9 12.36-10.6 0.9-13.24 17.46-6.24 23.16 1.99 16.04 20.87-2.15 29.8-3.27l0.73-0.18c-1.4 2.65 9.11 3.89 3.98 6.31-6.82 3.57 3.22 10.31 0.25 16.07-2.92 1.27-5.85-0.76-8.67-1.4 2.4 3.99 3.47 12.01 9.73 8.9-3.93 2.86 3.29 8.34-2.09 7.87-6.53 7.88 13.03 5.18 11.95-0.86 0.98-6.89 5 2.96 6.34 5.35 2.22-4.4 4.36-8.83 6.31-13.35 7.04 5.78 15.15 10.79 20.15 18.25-9.58 11.5-28.54 11.18-35.7 26.25 12.86-1.58-7.57 10.4 1.8 12.18 3.62 0.1-0.07 5.98-2.15 3.18-5.15-2.63-2.7 6.22-5.39 7.81-11.65 2.14 3.69 20.24-8.09 22.19 0.89-7.95-8.78-0.23-1.38 1.9 8.9-2.08-1.25 11.58 6.28 8.06 5.73 0.24 5.79-9.22 11.52-5.28 11.16-3.14 20.06-9.17 30.46-13.46 3.27 3.67 8.79 4.38 7.77 10.59 1.44 9-9.95 1.37-13.45 4.67-0.59 6.68-7.41 11.66-4.47 18.25-0.23 8.9-14.98 2.1-7.63 11.37-7.81 2.4-3.83 11.33-1.94 16.58-5.64-2.56-4.46 8.67 0.16 5.47 7.48-3.03 1.37 8.02-2.11 8.93-5.63-2.2-12.21-6.3-7.31-13.44 2.1-6-1.96 1.21-4.87-1.95 1.77 6.43-10.92 19.31-0.48 18.77-1.04 7.1-10.06 4.86-13.22 10.3-9.11-3.93-3.54 6.3-10.01 9.28-3.65-19.06-3.15-38.75-8.36-57.53-2.97 2.21-7.68 20.27-15.77 11.73-6.02 8.08-17.54 1.98-20.58 11.57 5.44 3.88-1.6 5.66-4.79 2.72-2.1 10.79 7.81 19.7 7.58 29.55-6.16 4.59 1.97 3.69-1.43 8.45 1.64 4.24 0.11 12.92 5.46 3.88 8.78 11.73 10.43-16.77 16.08-5.91-6.33 12.52 8.11-3.33 10.81 5.65 2.06-3.53 4.83-6.25 9.08-6.78-7.35 8.34 3.57 14.5 7.35 21.32-0.92 12.14 0.47 26.35-7.04 36.85-5.32-0.65-2.86 3.84-2.35 7.32-11.41-6.05-16.34 8.91-26.65 11.69-5.85 5.15-15.44 14.11-22.78 9.14-9.41 5.87-11.6 33.28 4.22 35.13 0.79-6.32 7.17-7.75 12.21-9.55 13.61-4.19 26-11.15 39.65-14.99 2.69 1.23 9.51 9.66 3.4 8.13 3.79 6.14-3.47 11.22-2.88 17.46 2.09 1.42 5.35 2.86 4.33 6.01-9.49 20.4-26.82 36.8-46.83 45.04-4.31 6.06-3.16 15.64 5.98 16.24 4.58-11.29 19.43-9.18 27.44-16.86 16.49-7.14 33.54-14.56 46.38-27.57 4.67-4.13 11.75-2.95 16.32 0.71-3.35 8.76 8 6.19 0.47 13.09 2.94 5.9-0.84 17.93-8.2 14.26 7.86 16-8.18 28.66-15.15 41.37-2.85 3.15-5.59 6.59-9.42 8.58-16.15 8.36-29.25 21.56-45.96 28.63-12.62-1.8-20.93 11.01-33.41 10.36-3.92 8.32-15.63 3.67-21.43 10.02-7.41-3.74-12.58 4.8-18.56 7.6-10.17 7.62-23.65 7.15-35.44 4.37-3.68-1.09-8.6 4.82-10.86 0.62-3.57-4.04 9.37-3.39 3.44-7.45-6.53-2.35-3.2-7.93-1.66-12.11-3.61-4.74-6.23-15-0.04-16.63 3.6-13.83-11.09-9.7-3.73-21.51-6.86 0.06 0.58-3.32 1.28-6.37 6.98-8.64 19.69-5.46 27.98-11.75 3.24 0.03 5.51 2.81 7.65 4.91 1.02 9.17 6.58 11.24 8.11 18.47 2.21-3.75 6.6-2.43 3.47 1.65 3.25-1.58 3.97-9.48 8.28-6.06 3.84 1.88 1.6-6.84 6.31-5.87 7.09 7.8 8.45-11.87 7.4-15.72-7.28 0.86-1.02-11.89-8.69-11.59-5.8 0.57-11.68 4.78-17.14 5.07-4.77-6.66-5.64 5.42-11.34 3.66-4.9-5.5 3.97-10.63-1.3-15.68-5.31-1.9-5.58-9.96-0.02-11.65-7.19 0.7-6.44-6.99-7.6-11.7 0.87-9.74-13.2-13.34-9.2-23.27 6.44 4.01 11.37 11.25 10.38 19.09 0.76 12.41 13.59-3.25 17.52 3.29 1.9-9.38-2.67-19.06-0.89-29.33 4.98-0.07 9.53-3.48 10.88-8.31 4.36 5.56 14.79-11.64 7.06-7.77-0.62-6.68 7.79-0.44 7.86 3.46 5.95-5.66 2.02-19.04-7.39-15.13-0.09-3.3 2.57-8.29 5.12-3.47 14.88 1.69 17.3-12.87 18.24-24.46 13.57-4.45-6.39-21.75 4.26-15.43 2.56-5.73-4.11-18.12 4.67-21.63 7.6-11.42 28.86-12.05 32.47-25.03-10.91-9.86-25.02-1.46-36.73 1.53-11.22 2.81-0.98-17.42-13.18-13.98-0.65 13.29-14.25 25.84-4.22 38.33-7.83 2.11-12.47 12.52-21.12 8.57-6.95-1.05-8.05 11.75-14.23 6.74 11.16-5.91 7.28-18.28 10.92-28.09-2.13-1.54-6.17-1.02-8.08-3.84-1.55 8.67-6.66-2.06-11.1-2.63-11.35-7.22-2.53-21.06-3.1-31.26 8.86-11.39 22.56-12.48 34.34-15.8 6.57 5.91 8.97 19.03 17.94 21.04 4.43-10.23-4.8-28.28 9.43-34.25 3.44-6.51 16.28-3.37 14.69-12.45-7.64 0.3-14.01 2.39-8.34-7.61-17.83-2.3-23-26.44-16.2-41.91-5.29-11.68 10.14-17.3 18.08-21.88 7.31-2.92-4.75-14.32-6.28-5.1-2.3-1.38-3.93-8.45-5.08-12.29 4.84 2.12 8.99 2.16 6.86-5.19-10.05 2.48-24.86-0.56-21.45-14.47 4.07-6.08-2.65-7.5-5.49-2.19 1.13-6.33-2.69-7.19-4.81-1.23-2.4-6.36-7.59 1.17-6.08-6.9 14.88 0.34 18.07-16.51 31.25-21.64 4.69-2.43-6.09-4.46-2.52-8.27 4.34 6.65 7.69-1.87 4.87-6.13 2.69-3.18 13.83-15.26 1.94-13.21-0.29-10.66-11.39-17.65-12.88-28.34-4.7-1.07-5.86 4.07-6.92 7.44-2.64 6.84-5.38 13.66-8.66 20.22m62.42 20.2c-1.83 2.47-2.54 6.3-5.81 2.91 3.29 2.07 1.51 10.09-1.31 4.42-2.83-4.98-1.36 5.76-4.62 2.75-1.59-5.75-10.53-5.92-10.84 0.52-3.67-7.41-9.62 4.55-1.51 2.71 9.17-4.91 0.78 6.47-1.27 9.34-1.89-5.17-4.03-9.97-6.04-12.85-1.97 5.41-10.78 0.61-11.38 7.52 5.31-2.04 2.9 7.11-0.76 6.27-4.02-10.81-3.51 15.04 4.13 7.22 3.15 4.76-2.01 6.32-5.8 5.14-3.82 5.43 13.83 23.53 5.92 9.45 5.98 3.6 9.67 5.04 17.36 6.59-0.64 14.01 14.36-9.66 15.22 1.34 12.45 2.79-5.02 4.29-6.1 10.03 8.68-3.37 6.29 11.87 3.36 14.21-0.04-6.8-4.42-19.71-4.75-4.76-8.67 4.43-20.06 10.04-12 20.68-9.69-10.51-2.74 11.41-8.17 10 4.98 3.39-9.9 15.41-0.78 12.97 7.62 4.94-9.76 9.62-1.41 11.97 3.85-3.74 3.77 2.79 3.46 5.56 7.51-4.89 13.16 5.37 20.29 1.36 5.05-4.68 11.78-4.71 17.28-2.58 7.65-4.96 13.5-12.65 17.95-21.08 3.84-0.69 5.85-4.1 3.99-7.72-2.74 0.29-7.43 3.54-8.88 1.98 6.51-5.16-4.09-7.93-1.56-15.44-4.27-13.37-5.36-28.77-9.87-42.49 0.25-14.44 10.88-40.42-6.1-48.02m34.81 31.08c-8.71 3.21-17.82 6.71-25.3 12.04 1.79 7.24-1.41 17.05 4.44 22.57 7.17-0.28 13.17-5.03 20.29-5.87 6.33-6.4 9.19-25.78 0.57-28.74m3.85 85.02c-13.1 3.3-30.81 9.44-22 26.41 7.96 4.33 14.13-5.61 22.19-6.18 4.53-4.55 8.43-19.23-0.19-20.23m-76.13 202.95c-2.36 0.63-5.87 1.25-4.28 5.27-4.38 1.28 2.32-9.47-5.23-4.35-5.58 7.51-12.16 12.53-18.5 18.66 8.55 5.19-3.17 19.89-4.34 9.72-6.97 3.06 3.96 13.71 4.36 4.68 7.34 7.07-4.59 11.48-8.14 4.75 0.93 3.45 3.99 8.36-1.22 9.67 4.33 10.5 9.95 29.59 25.71 21.13 3.96-5.59 12.37-2.36 15.81-8.42 10.83 0.89 20.97-14.82 8.85-19.83 0.98-3.31-1.48-9.19 3.9-8.22-0.29 3.45 1.23 7.78 4.99 8.6-1.84-4.5-3.2-12.41-9.44-11.64-1.6-8.98-5.09-22.57-12.47-30.02z"/>
<path id="path66" fill="#c6753f" d="m527.07 321.62c-5.17-3.42-4.13-9.35 2.76-9.66 2.05 2.54 3.57 5.45 5.41 8.14 4.45 6.07-8.12 11.65-0.42 15.82 4.68-8.41 9.38-3.1 4.23 3.91 12.54-5.64 9.39 20 19.78 11.36 3.03 6.92 23.88 6.76 15.16 16.8-2.11 6.8 7.28-2.74 9.74 1.23-1.97 8.3 9.82 7.29 9.69 15.38 2.43 6.19 3.06-2.49 3.01-5.47 4.93-0.17 12.34-0.39 11.24 6.69-13.02 3.44 2.4 8.72 8.07 9.75 0.21 4.53 0.64 10.05-5.51 9.45 5.52-6.59-5.97-8.82-6.69-3.51 9.33 2.7-6.44 4.53-1.99-3.19-4.32-0.83-0.76 6.91-4.97 8.84-12.22-4.17-23.31-11.1-34.66-17.18-1.5-3.6-6.09-4.74-8.69-7.38-10.92 0.57-14.94-11.14-24.29-13.9-4.4-4.09-13.96-10.2-7.57-16.84 4.82-7.66 12.26 12.1 10.46 0.32 1.37-7.25-8.76-2.15-12.8-5.91-4.06 2.23-8.61 5.3-13.69 2.57-0.14-5.88 7.9-6.73 12.49-6.39 0.92-7.17-9.88 0.12-3.81-6.26 1.47-6.86 13.56 3.31 11.08-4.72-7.4 1.04-3.16-10.06 1.97-9.85z"/>
<path id="path68" fill="#e4e0cf" d="m447.11 334.51c0.82-6.35-3.96-15.18 1.82-19.76 1.81 6.21 10.43 7.92 11.13 14.19-0.4 2.7-1.61 5.17-3.12 7.42-3.43 0.89-6.86-0.1-9.83-1.85z"/>
<path id="path70" fill="#c48049" d="m535.24 320.1c2.99 0.57 5.91 1.5 8.74 2.63-1.37 0.37-3.66 0.09-3.89 1.99 9.33 17.05 24.78 29.57 42.9 36.26 18.21 5.57 37.9 2.98 55.97 8.48 6.56-1.1 18.79 2 16.62 10.87-5.76 14.63-15.12 30.14-31.01 35.12-2.58 0.2-0.44 2.6 0.27 3.76-8.33-6.18-19.68-5.72-28.26-12.05 4.21-1.93 0.65-9.67 4.97-8.84-4.45 7.72 11.32 5.89 1.99 3.19 0.72-5.31 12.21-3.08 6.69 3.51 6.15 0.6 5.72-4.92 5.51-9.45-5.67-1.03-21.09-6.31-8.07-9.75 1.1-7.08-6.31-6.86-11.24-6.69 0.05 2.98-0.58 11.66-3.01 5.47 0.13-8.09-11.66-7.08-9.69-15.38-2.46-3.97-11.85 5.57-9.74-1.23 8.72-10.04-12.13-9.88-15.16-16.8-10.39 8.64-7.24-17-19.78-11.36 5.15-7.01 0.45-12.32-4.23-3.91-7.7-4.17 4.87-9.75 0.42-15.82z"/>
<path id="path72" fill="#f9ec32" d="m460.06 328.94c13.56 9.1 24.48 21.63 35.14 33.86 1.61 3.15 6.52 6.2 3.67 10.01-6.95 11.26-8.81 28.97-24.57 31.26l-0.73 0.18c1.41-13.23-12.15-21.68-13.59-34.33 4.47-11.59 1-22.78-3.04-33.56 1.51-2.25 2.72-4.72 3.12-7.42z"/>
<path id="path74" fill="#cfab55" d="m437.03 345.12c3.68-3.22 6.54-7.25 10.08-10.61 2.97 1.75 6.4 2.74 9.83 1.85 4.04 10.78 7.51 21.97 3.04 33.56-0.24 0.52-0.72 1.56-0.97 2.08-4.34-2.17-3.18 6.51-7.27 7.17-3.59 3.06-9.66-3.88-7.45 4.95-1.84 6.95-9.21 5.43-14.67 5.29-7.8 8.3-23.67 5.22-27.53-5.31 4.36-7.3 7.79-15.23 12.08-22.53 7.16 0.65 6-12.56 14.55-5.4-4.46-6 5-7.38 8.31-11.05z"/>
<path id="path76" fill="#d3ae4b" d="m495.2 362.8c6.93 3.95 12.13 11.28 18.78 15.44-0.52 7.34-4.46 14.97-0.22 21.94-1.91 4.18-1.2 8.69-1.03 13.1-1.19 7.87-10.11 11.5-10.63 19.68-1.95 4.52-4.09 8.95-6.31 13.35-1.34-2.39-5.36-12.24-6.34-5.35 1.08 6.04-18.48 8.74-11.95 0.86 5.38 0.47-1.84-5.01 2.09-7.87-6.26 3.11-7.33-4.91-9.73-8.9 2.82 0.64 5.75 2.67 8.67 1.4 2.97-5.76-7.07-12.5-0.25-16.07 5.13-2.42-5.38-3.66-3.98-6.31 15.76-2.29 17.62-20 24.57-31.26 2.85-3.81-2.06-6.86-3.67-10.01z"/>
<path id="path78" fill="#e7cc55" d="m386.8 377.83c1.06-3.37 2.22-8.51 6.92-7.44 1.49 10.69 12.59 17.68 12.88 28.34 11.89-2.05 0.75 10.03-1.94 13.21 2.82 4.26-0.53 12.78-4.87 6.13-3.57 3.81 7.21 5.84 2.52 8.27-13.18 5.13-16.37 21.98-31.25 21.64-0.66-5.82-9.86-10.41-5.38-16.06 5.3 4.93 19.23 1.33 26.09-3.04 1.51-13.42 5.11-26.39 7.84-39.56-3.41-4.24-5.85-16.65-12.81-11.49z"/>
<path id="path80" fill="#f7ef62" d="m459.01 372c0.25-0.52 0.73-1.56 0.97-2.08 1.44 12.65 15 21.1 13.59 34.33-8.93 1.12-27.81 19.31-29.8 3.27 4.03-7.06 5.75-15.12 6.24-23.16 3.4-3.8 6.72-7.77 9-12.36z"/>
<path id="path82" fill="#f8f158" d="m386.8 377.83c6.96-5.16 9.4 7.25 12.81 11.49-2.73 13.17-6.33 26.14-7.84 39.56-6.86 4.37-20.79 7.97-26.09 3.04 3.73-11.44 8.6-22.47 12.46-33.87 3.28-6.56 6.02-13.38 8.66-20.22z"/>
<path id="path84" fill="#dcc178" d="m513.98 378.24c6.75 6.85 18.4 10.13 24.73 17.04-6.1 0.04-19.42-11.4-13.96 0.88 0.14 0.54 0.41 1.63 0.55 2.18-3.94 0.12-7.57 2.71-11.54 1.84-4.24-6.97-0.3-14.6 0.22-21.94z"/>
<path id="path86" fill="#ece2a9" d="m443.77 407.52c-7-5.7-4.36-22.26 6.24-23.16-0.49 8.04-2.21 16.1-6.24 23.16z"/>
<path id="path88" fill="#e8e2da" d="m524.75 396.16c-5.46-12.28 7.86-0.84 13.96-0.88 7.3 3.11 16.53 3.72 21.76 9.83-9.57 20.71-23.15-5.85-35.72-8.95z"/>
<path id="path90" fill="#f3ec7c" d="m524.75 396.16c12.57 3.1 26.15 29.66 35.72 8.95 1-0.15 1.99-0.03 2.95 0.34 0.12 1.18-0.03 2.38-0.55 3.46-4.81 0-4.29 5.87-6.25 8.96-12.28-0.67-19.87-12.08-29.66-17.98-0.42-0.39-1.25-1.16-1.66-1.55-0.14-0.55-0.41-1.64-0.55-2.18z"/>
<path id="path92" fill="#dcc569" d="m356.25 452.96c6.58-18.26 11.93-38.62 21.89-54.91-3.86 11.4-8.73 22.43-12.46 33.87-4.48 5.65 4.72 10.24 5.38 16.06-3.11 4.34-8.09 6.25-12.81 8.25-0.66-1.1-1.34-2.19-2-3.27z"/>
<path id="path94" fill="#e4c845" d="m513.76 400.18c3.97 0.87 7.6-1.72 11.54-1.84 0.41 0.39 1.24 1.16 1.66 1.55 1.93 14.51 3.88 30.57 9.8 44.5 16.8-1.69 22.7-21.78 26.11-35.48 0.52-1.08 0.67-2.28 0.55-3.46 12.27 9.73 27.64 15.32 42.55 19.56 0.67 4.19 19.09 11.14 12.86 19.22-0.06 20.38-4.99 42.56-17.31 59.35-5.63-0.26-3.8-17.2-12.72-10.93-2.79 5.57-13.61-5.74-10.23 1.93 5.87 10.81-12.19 7.78-16.91 13.1-3.42 6.71-3.64 14.87-8.02 21.11-5.83 3.77-13.45 1.66-15.27-5.11-6.18 1.35-11.26-5.57-0.93-5.11 2.36-5.9-5.82-2.6-7.29-5.52 4.92-3.16 7.13-8.64 8.9-13.98 1.1-2.31 2.14-4.64 3.11-7.01 2.7-3.96 4.5-8.58 7.8-12.08 5.51 1.07 5.98 12.62 12.45 7.93 3.75-9.01-6.36-24.31 7.75-27-4.39-5.16-3.98-12.73-10.6-16.43 1.34-5.12 2.24-20.29 7.15-8.39 3.92-8.2-7.62-11.38-7.88-2.1 1.35 9.39-14.19 9.83-9.32 19.21-2.15 4.45-9.42-1.98-13.59-2.24-4.49-1.31-9.15-0.26-13.67 0.25-5-7.46-13.11-12.47-20.15-18.25 0.52-8.18 9.44-11.81 10.63-19.68-0.17-4.41-0.88-8.92 1.03-13.1m64.11 18.15c5.48 12.71 9.4 26.38 12.69 39.91-0.7 11.78 3.48 25.52 13.1 31.45 9.76-15.47 10.86-33.71 11.98-51.21-7.09-13.36-24.57-15.5-37.77-20.15m-26.46 67.99c-12.55 6.12-12.38 21.64-9.75 33.09 19.54 3.8 17.74-25.97 9.75-33.09z"/>
<path id="path96" fill="#faec35" d="m526.96 399.89c9.79 5.9 17.38 17.31 29.66 17.98 1.96-3.09 1.44-8.96 6.25-8.96-3.41 13.7-9.31 33.79-26.11 35.48-5.92-13.93-7.87-29.99-9.8-44.5z"/>
<path id="path98" fill="#d0ac5b" d="m440.56 418.25c16.98 7.6 6.35 33.58 6.1 48.02 4.51 13.72 5.6 29.12 9.87 42.49-2.53 7.51 8.07 10.28 1.56 15.44 1.45 1.56 6.14-1.69 8.88-1.98 1.86 3.62-0.15 7.03-3.99 7.72-4.45 8.43-10.3 16.12-17.95 21.08-5.5-2.13-12.23-2.1-17.28 2.58-7.13 4.01-12.78-6.25-20.29-1.36 0.31-2.77 0.39-9.3-3.46-5.56-8.35-2.35 9.03-7.03 1.41-11.97-9.12 2.44 5.76-9.58 0.78-12.97 5.43 1.41-1.52-20.51 8.17-10-8.06-10.64 3.33-16.25 12-20.68 0.33-14.95 4.71-2.04 4.75 4.76 2.93-2.34 5.32-17.58-3.36-14.21 1.08-5.74 18.55-7.24 6.1-10.03-0.86-11-15.86 12.67-15.22-1.34-7.69-1.55-11.38-2.99-17.36-6.59 7.91 14.08-9.74-4.02-5.92-9.45 3.79 1.18 8.95-0.38 5.8-5.14-7.64 7.82-8.15-18.03-4.13-7.22 3.66 0.84 6.07-8.31 0.76-6.27 0.6-6.91 9.41-2.11 11.38-7.52 2.01 2.88 4.15 7.68 6.04 12.85 2.05-2.87 10.44-14.25 1.27-9.34-8.11 1.84-2.16-10.12 1.51-2.71 0.31-6.44 9.25-6.27 10.84-0.52 3.26 3.01 1.79-7.73 4.62-2.75 2.82 5.67 4.6-2.35 1.31-4.42 3.27 3.39 3.98-0.44 5.81-2.91z"/>
<path id="path100" fill="#f8ea30" d="m577.87 418.33c13.2 4.65 30.68 6.79 37.77 20.15-1.12 17.5-2.22 35.74-11.98 51.21-9.62-5.93-13.8-19.67-13.1-31.45-3.29-13.53-7.21-27.2-12.69-39.91z"/>
<path id="path102" fill="#e1a46d" d="m821.99 426.93c7.59-3.13 15.93 1.85 23.02-3.94-11.79 9.6-34.4 16.61-45.01 2.02 6.96 4.23 14.42 8.2 21.99 1.92z"/>
<path id="path104" fill="#daba58" d="m605.97 425.01c15.27 4.29 24.29 22.62 23.71 37.72-9.8-0.08-13.64 10.22-14.14 18.48 0.69 12.24-11.35 21.51-9.81 33.78-5.76 9-14.99 24.25-11.74 34.16-10.24 8.04-20.6 15.87-29.16 25.74 5.46-5.79 6.26-16.86-1.88-20.87-9.41 5.09-22.7 12.31-20.88 24.86-0.66 2.77-6.47 0.74-3.95 4.14 2.82 8.24-9.35-8.9-7.67 2.16-0.75 4.02-2.06-1.6-3.56-2.08-15.25 4.81-21.6 21.11-39.59 17.41-2.35 4.14-6.52 3.42-10.23 1.68-0.63 3.61-3.14 5.99-6.9 5.99 0.75-1.97 5.49-2.73 1.88-4.6 3.16-5.44 12.18-3.2 13.22-10.3-10.44 0.54 2.25-12.34 0.48-18.77 2.91 3.16 6.97-4.05 4.87 1.95-4.9 7.14 1.68 11.24 7.31 13.44 3.48-0.91 9.59-11.96 2.11-8.93-4.62 3.2-5.8-8.03-0.16-5.47-1.89-5.25-5.87-14.18 1.94-16.58-7.35-9.27 7.4-2.47 7.63-11.37-2.94-6.59 3.88-11.57 4.47-18.25 3.5-3.3 14.89 4.33 13.45-4.67 1.02-6.21-4.5-6.92-7.77-10.59 6.9-4.46 12.96-9.98 19.45-14.97-1.77 5.34-3.98 10.82-8.9 13.98 1.47 2.92 9.65-0.38 7.29 5.52-10.33-0.46-5.25 6.46 0.93 5.11 1.82 6.77 9.44 8.88 15.27 5.11 4.38-6.24 4.6-14.4 8.02-21.11 4.72-5.32 22.78-2.29 16.91-13.1-3.38-7.67 7.44 3.64 10.23-1.93 8.92-6.27 7.09 10.67 12.72 10.93 12.32-16.79 17.25-38.97 17.31-59.35 6.23-8.08-12.19-15.03-12.86-19.22z"/>
<path id="path106" fill="#d8b952" d="m558.83 433.99c0.26-9.28 11.8-6.1 7.88 2.1-4.91-11.9-5.81 3.27-7.15 8.39 6.62 3.7 6.21 11.27 10.6 16.43-14.11 2.69-4 17.99-7.75 27-6.47 4.69-6.94-6.86-12.45-7.93-3.3 3.5-5.1 8.12-7.8 12.08 2.62-13.87 0.3-28.56-6.24-41.1 4.17 0.26 11.44 6.69 13.59 2.24-4.87-9.38 10.67-9.82 9.32-19.21z"/>
<path id="path108" fill="#c4723d" d="m714.05 432.18c5.68 3.2 3.33-6 7.67-2.71 14.1 10.72 35.89-0.07 48.66 12.23 4.06 1.56 4.58-8.43 7.58-2.57 4.75 8.09-7.61 9.18-7.61 16.22 0.42 3.93 1.69 8.11-0.24 11.86-7.36 0.34-14.44 2.69-21.83 2.7-1.73-7.82-7.53-5.23-12.28-2.45 2.24-5.36-2.72-4.46-5.5-6.29-1.11 3.66-2.47 12.85-6.76 6.08-4.56 7.28-10.22-6.6-14.14 2.56-15.83-10.11 13.15-23.4 4.45-37.63z"/>
<path id="path110" fill="#ebd258" d="m358.25 456.23c4.72-2 9.7-3.91 12.81-8.25-1.51 8.07 3.68 0.54 6.08 6.9 2.12-5.96 5.94-5.1 4.81 1.23-1.31 2.57-12.17 9.39-4.71 10.31 20.7 2.1 24.78 30.87 14.26 45.03-0.89 8-12.13 0.25-13.42 7.6 0.8 6.52 14.39 4.2 5.12 10.23 7.26 0.83 0.23 9.17-1.74 2.81-0.56-9.4-3.62 4.7-8.39 4.77 1.49-6.7-2.61-14.29-6.17-18.93-15.56 1.78-8.2 18.82-10.43 28.51-0.45 6.51 10.94-0.64 7.81 3.99-4.49 6.87-10.2-2.9-11.03 4.64 4.65 8.53-9.24 14.76-3.47 23.64-9.8 4.7 1.78 16.27-5.42 22.61-4.54 4.19-5.16 10.65-8.54 15.49-1.87 1.91-9.38 4.07-4.53 6.45 0.78 4.05-0.67 14.04 5.8 9.94 4.71 8.76 12.69 18.16 9.13 28.72 9.32-3.12-0.66 7.47 1.11 11.85-4.41 5.86-7.9 18-17.18 15.69-3.66-0.69-5.22 3.51-8.11 4.57-3.05-2.52-5.86-9.69-10.18-5.23-6.56 1.87-9.37 0.59-15.18-0.08-2.79 5.84-8.3 7.44-11.98 13.14-2.63 8.37-1.53 18.84 3.33 26.02 4.24 10.99 5.35 23.68 7.57 35.53-8.16 10.61-6.01 24.27-2.95 35.85-4.49 16.5 15.16 22.55 21.26 34.81-3.42 5.78-5.07 14.39-12.72 16.02 0.05 6.89 7.83-4.12 9.61 2.08 3.7 2.81-5.42 7.58 0.79 6.13-4.12 4.18-6.63 7.03-6.96 13.42-0.47 8.24-4.12-7.39-8.77-1.01 0.31-5.98-4.22-3.34-7.75-1.8-7.17-3.34-7.66-12.49-11.87-18.24-3.91-1.43-8.51-2.53-7.87-7.72-7.08 1.63-2.58-5.12 1.39-6.35-0.78-6.52-10.04-10.11-7.31-18.42-4.22-0.61-8.94-5.34-4.51-8.99 5.33-10.57 0.05-23.84-6.7-30.91-13.24 5.2-14.77 23.01-12.67 35.1-8.4 9 2.66 21.37-3 30.95-0.25 3.95-1.24 13.24 5.21 10.67-13.08 15.42-5.24 35.95-1.19 53.14 0.32 0.49 0.95 1.46 1.27 1.94 3.5 11.38 15.86 3.98 21.1 10.8-5.15 2.58-1.9 8.82-6.45 11.92 6.47 1.8 7.44 17.25 13.15 11.36-0.47 8.04-3.36 14.01 6.2 11.74-6.39 3.89-1.93 5.11 3.49 4.73 7.33 5.76-9.43 9.13-0.64 12.65-1.21 9.89-14.13 9.93-19.42 18.03-13.34 1.85-25.44 5.51-38.15 10.49-2.54-0.7-4.29-3.09-6.34-4.67-1.55-3.09-2.99-6.23-3.93-9.53 0.46-4.31-1.42-8.32-5.41-10.18 0.15-6.51 0.95-15.9 0.58-20.94-9.04 9.05-14.84-17.64-2.93-11.76 4.76-8.87-2.04-16.68-6.77-23.54 12.7-5.23 24.2-23.37 12.46-35.11 0.93-7.7-10.77-2.48-9.58-9.98 13.89 2.41 21.19-10.47 33.21-12.93 0.78-20.27-1.85-41.29 4.04-60.81-0.02-9.54 9.61-37.58 22.34-23.42 8.75-7.78 22.35-2.3 31.97-9.67 0.37-13.69-3.85-27.05-4.26-40.73-6.37-7.38-18.13-9.11-20.95-19.75 0.61-1.44 1.5-2.72 2.52-3.87 5.64-0.5 10.87-3 16.27-4.58 3.97-21.07 2.31-45.44 15.95-63.49 13.76 2.2 8.42 19.19 13.58 28.51 2.53 6.85 0.66 18.09 7.1 21.61 8.55-4.93 25.84-3.97 22.93-17.84-1.93-8.55-0.13-17.98-3.85-26.07-7.97-5.82-19.48-3.65-27.28-9.92-5-3.31-14.21-9.76-8.52-16 12.28-2.26 24.53-6.7 35.73-12.42 3.01-22.24 6.5-44.71 15.06-65.68 3.64-7.42-9.97-9.86-5.11-17.75 12.23-9.71 31.33-8.11 43.61-18.64-2.77-8.81-2.71-18.81-3.86-28.18-11.27-3.12-23.17-7.29-30.71-16.68 0.07-0.39 0.2-1.16 0.26-1.55m-93.99 337.84c0.5 18.53 8.56 35.54 11.9 53.47 6.65 9.41 17.78-1.99 25.18-4.09 11.79-1.28 4.82-14.31 1.49-20.34-15.34-5.65-23.18-24.42-38.57-29.04m-41.84 115.38c-3.76 2.79-10.63-1.37-12.44 4.7-3.42 14.45-4.04 30.23 0.55 44.35-0.42 12.02 0.18 26.06 5.56 36.56 13.65-0.51 27.45-6.68 41.28-8.55 4.62-0.19 5.88-6.84 3.02-9.79-10.26-21.06-9.11-46.99-22.75-66.53-4.97 3.03-10.35 0.2-15.22-0.74z"/>
<path id="path112" fill="#f6ed60" d="m475.37 449.33c8.62 2.96 5.76 22.34-0.57 28.74-7.12 0.84-13.12 5.59-20.29 5.87-5.85-5.52-2.65-15.33-4.44-22.57 7.48-5.33 16.59-8.83 25.3-12.04z"/>
<path id="path114" fill="#d0ab58" d="m522.25 451.21c4.52-0.51 9.18-1.56 13.67-0.25 6.54 12.54 8.86 27.23 6.24 41.1-0.97 2.37-2.01 4.7-3.11 7.01-6.49 4.99-12.55 10.51-19.45 14.97-10.4 4.29-19.3 10.32-30.46 13.46-5.73-3.94-5.79 5.52-11.52 5.28-7.53 3.52 2.62-10.14-6.28-8.06-7.4-2.13 2.27-9.85 1.38-1.9 11.78-1.95-3.56-20.05 8.09-22.19 2.69-1.59 0.24-10.44 5.39-7.81 2.08 2.8 5.77-3.08 2.15-3.18-9.37-1.78 11.06-13.76-1.8-12.18 7.16-15.07 26.12-14.75 35.7-26.25z"/>
<path id="path116" fill="#e4c95b" d="m381.95 456.11c2.84-5.31 9.56-3.89 5.49 2.19-3.41 13.91 11.4 16.95 21.45 14.47 2.13 7.35-2.02 7.31-6.86 5.19 1.15 3.84 2.78 10.91 5.08 12.29 1.53-9.22 13.59 2.18 6.28 5.1-7.94 4.58-23.37 10.2-18.08 21.88-6.8 15.47-1.63 39.61 16.2 41.91-5.67 10 0.7 7.91 8.34 7.61 1.59 9.08-11.25 5.94-14.69 12.45-14.23 5.97-5 24.02-9.43 34.25-8.97-2.01-11.37-15.13-17.94-21.04-11.78 3.32-25.48 4.41-34.34 15.8 0.57 10.2-8.25 24.04 3.1 31.26 4.44 0.57 9.55 11.3 11.1 2.63 1.91 2.82 5.95 2.3 8.08 3.84-3.64 9.81 0.24 22.18-10.92 28.09-13.01 3.45-8.77 17.32-12.69 27.01-0.31 2.59 2.28 4.16 3.58 6.08-7.65 6.67 7.94 11.74 3.57 19.73 7.45 6.27 24.96 2.57 30.26-3.99 9.41-3.91 13.34 9.47 7.39 15.13-0.07-3.9-8.48-10.14-7.86-3.46 7.73-3.87-2.7 13.33-7.06 7.77-1.35 4.83-5.9 8.24-10.88 8.31-1.78 10.27 2.79 19.95 0.89 29.33-3.93-6.54-16.76 9.12-17.52-3.29 0.99-7.84-3.94-15.08-10.38-19.09-13.05-7.15-16.05 7.44-28.31 6.16-4.65 2.1-8.87 5.43-12.31 9.16-1.97 9.61 7.39 17.73 4.27 27.41-3.83 12.78 9.5 28.52 22.76 23.44 10.32-0.01 22.36 3.6 31.49-3.11 1.63 8.7 6.65 0.51 10.93 4.08-2.64 1.49-5.84 2.51-7.11 5.55-2.14-2.1-4.41-4.88-7.65-4.91-8.29 6.29-21 3.11-27.98 11.75-0.7 3.05-8.14 6.43-1.28 6.37-7.36 11.81 7.33 7.68 3.73 21.51-6.19 1.63-3.57 11.89 0.04 16.63-1.54 4.18-4.87 9.76 1.66 12.11 5.93 4.06-7.01 3.41-3.44 7.45 2.26 4.2 7.18-1.71 10.86-0.62 11.79 2.78 25.27 3.25 35.44-4.37 5.98-2.8 11.15-11.34 18.56-7.6 5.8-6.35 17.51-1.7 21.43-10.02 12.48 0.65 20.79-12.16 33.41-10.36l-0.59 0.46c-20.9 9.13-41.56 20.3-64.21 25.05-8.62 3.51 1.35 12.39-0.07 18.79 3.5 6.95 9.1-5.51 13.57 0.2 3.88 5.26 1.88 12.92 2.19 19.17-3.42 7.52 6.66 0.5 6.16 3.93-3.37 1.27-11.86 7.82-11.41 0.3 4.21-8.91-15.39-1.11-10.04 3.42 6.98-2.39 9.37 8.79 3.93 12.55-22.14 18.01-38.96 40.31-62.24 57.44 1.58 7.3-11.17 10.7-13.57 4.1-1.92-5-7.02 5.6-7.9-1.3-8.47-10.1 7.15-15.79 0.83-24.43 0.16-3.83 4.74-8.75 0.36-11.63-4.56-3.8-7.86 4.64-12.9 2.26-7.77-1.73-8.08 13.44-15.35 8.73 1.81 3.66 0.7 10.01-3.96 5.59 2.86 4.26-2.11 13.88 3.93 14.18 2.07 9.3-6.82 9.3-12.97 7.6-3.76 4.5-8.62 9-9.68 15.2-4.15 1-8.8 1.7-12.56-0.8-4.32-14.9-4.53 13.8-10.5 5.3 6-7.8-7.36-12.5-6.23-20.6 0.54-5.8-1.52-11.3-3.6-16.57 2.05 1.58 3.8 3.97 6.34 4.67 12.71-4.98 24.81-8.64 38.15-10.49 5.29-8.1 18.21-8.14 19.42-18.03-8.79-3.52 7.97-6.89 0.64-12.65-5.42 0.38-9.88-0.84-3.49-4.73-9.56 2.27-6.67-3.7-6.2-11.74-5.71 5.89-6.68-9.56-13.15-11.36 4.55-3.1 1.3-9.34 6.45-11.92-5.24-6.82-17.6 0.58-21.1-10.8 12.68 1.12 24.39 8.16 36.22 10.75 15.65 8.31 21.78-19.25 11.22-27.46-1.52-13.99-9.11-25.69-11.59-39.38-8.65-7.41-9.51 7.92-16.98 2.51-5.09 0.41-8.94 8.76-14.57 4.73-3.88 4.51-5.31 10.86-3.45 16.53 1.17 3.53-7.95 5.24-2.15 6.48-5.03 2.48-0.3 10.04 5.11 7.33 2.52 6.23 1.6 15.47-5.08 16.57-4.05-17.19-11.89-37.72 1.19-53.14-6.45 2.57-5.46-6.72-5.21-10.67 5.66-9.58-5.4-21.95 3-30.95-2.1-12.09-0.57-29.9 12.67-35.1 6.75 7.07 12.03 20.34 6.7 30.91-4.43 3.65 0.29 8.38 4.51 8.99-2.73 8.31 6.53 11.9 7.31 18.42-3.97 1.23-8.47 7.98-1.39 6.35-0.64 5.19 3.96 6.29 7.87 7.72 4.21 5.75 4.7 14.9 11.87 18.24 3.53-1.54 8.06-4.18 7.75 1.8 4.65-6.38 8.3 9.25 8.77 1.01 0.33-6.39 2.84-9.24 6.96-13.42-6.21 1.45 2.91-3.32-0.79-6.13-1.78-6.2-9.56 4.81-9.61-2.08 7.65-1.63 9.3-10.24 12.72-16.02-6.1-12.26-25.75-18.31-21.26-34.81-3.06-11.58-5.21-25.24 2.95-35.85-2.22-11.85-3.33-24.54-7.57-35.53 7.32 3.9 15.28 6.08 23.65 5.64 4.74 4.91 19.05 9.81 19.92-0.35-5.64-2.7-4.48-13.45-2.11-19.22-9.7 1.81-0.71-5.24-5.8-7.67-6.18-3.91-1.71-15.38-9.58-17.08-1.71 7.06-8.92 5.06-2.25-0.4 4.32-4.46 7.13 2.71 10.18 5.23 2.89-1.06 4.45-5.26 8.11-4.57 9.28 2.31 12.77-9.83 17.18-15.69-1.77-4.38 8.21-14.97-1.11-11.85 3.56-10.56-4.42-19.96-9.13-28.72-6.47 4.1-5.02-5.89-5.8-9.94-4.85-2.38 2.66-4.54 4.53-6.45 3.38-4.84 4-11.3 8.54-15.49 7.2-6.34-4.38-17.91 5.42-22.61-5.77-8.88 8.12-15.11 3.47-23.64 0.83-7.54 6.54 2.23 11.03-4.64 3.13-4.63-8.26 2.52-7.81-3.99 2.23-9.69-5.13-26.73 10.43-28.51 3.56 4.64 7.66 12.23 6.17 18.93 4.77-0.07 7.83-14.17 8.39-4.77 1.97 6.36 9-1.98 1.74-2.81 9.27-6.03-4.32-3.71-5.12-10.23 1.29-7.35 12.53 0.4 13.42-7.6 10.52-14.16 6.44-42.93-14.26-45.03-7.46-0.92 3.4-7.74 4.71-10.31m-7.75 88c-1.32 14.05-1.75 31.43 5.62 44.31 8.97-0.03 23.22-6.59 18.36-18.64 4.53-16.24-11.47-23.44-23.98-25.67m-24.67 189.13c-6.33 3.06-22.87 2.07-17.31 13.36-1.56 14.05 10.9 8.04 18.09 5.63 12.57 2.76 8.14-19.04-0.78-18.99m-15.62 173.13c-13 4.36-27.18 6.71-39.56 13.65 2.29 17.32 5.83 34.31 6.31 51.25 20.76-8.38 45.05-19.99 61.3-36.57 1.33-6.57-6.94-8.3-8.96-13.74-5.54-5.49-9.23-17.66-19.09-14.59z"/>
<path id="path118" fill="#e2e3a1" d="m356.25 452.96c0.66 1.08 1.34 2.17 2 3.27-0.06 0.39-0.19 1.16-0.26 1.55-24.58 84.42-61.1 164.67-90.9 247.13-1.02 1.15-1.91 2.43-2.52 3.87-20.17 52.02-37.3 105.39-62.43 155.36-0.01-0.41-0.01-1.22-0.02-1.63 21.13-60.35 46.21-119.51 67.93-179.54 5.55-6.32 6.99-15.13 10.27-22.64 24.27-59.83 49.09-119.6 68.3-181.28-0.37-0.06-1.12-0.17-1.5-0.23 2.63-8.75 7.4-16.85 9.13-25.86z"/>
<path id="path120" fill="#faf35c" d="m357.99 457.78c7.54 9.39 19.44 13.56 30.71 16.68 1.15 9.37 1.09 19.37 3.86 28.18-12.28 10.53-31.38 8.93-43.61 18.64-4.86 7.89 8.75 10.33 5.11 17.75-8.56 20.97-12.05 43.44-15.06 65.68-11.2 5.72-23.45 10.16-35.73 12.42-5.69 6.24 3.52 12.69 8.52 16 8.78 7.6 9.88 24.8 1.1 32.22-5.16-9.32 0.18-26.31-13.58-28.51-13.64 18.05-11.98 42.42-15.95 63.49-5.4 1.58-10.63 4.08-16.27 4.58 29.8-82.46 66.32-162.71 90.9-247.13z"/>
<path id="path122" fill="#dac28f" d="m615.54 481.21c0.5-8.26 4.34-18.56 14.14-18.48 4.97 31.31-10.68 66.57-35.69 86.42-3.25-9.91 5.98-25.16 11.74-34.16-1.54-12.27 10.5-21.54 9.81-33.78z"/>
<path id="path124" fill="#bd9467" d="m713.07 491.14c6.88-6.64 12.59-23.27 24-16.2-14.41 6.69-22.1 22.21-35.23 30.93 2.82-5.58 6.73-10.44 11.23-14.73z"/>
<path id="path126" fill="#cd8046" d="m704.53 477.54c3.66-0.12 3.96 7.63 7.12 4.24 5.45-3.88-0.69 6.26 1.42 9.36-4.5 4.29-8.41 9.15-11.23 14.73-15.6 20.44-31.88 40.27-47.17 60.76-18.86 18.01-39.49 44.08-69.14 36.99-17.23-2.17-10.71-27.3 1.25-32.72 3.21 7.24 11.56 2.38 14.37-2.83 16.81-10.95 27.72-28.17 43.3-40.39 11.11 1.98 10.28-14.45 22.31-11.85-3.12-9.24 9.45-11.98 15.39-12.12 0.43-4.48-3.32-9.24-5.25-2.82-6.8-6.12 2.78-11.58 5.3-2.99 2.53-4.93 4.19-5.85 8.85-8.59 1.62 1.2 1.67 13.87 6.03 7.63 5.69-5.07 1.19-11.08 1.46-17.04 5.05 0.1 5.72 5.62 3.92 9.29 5.66-0.42 2.59-7.97 2.07-11.65z"/>
<path id="path128" fill="#dddfdd" d="m326.04 532.97c4.71-18.93 15.77-35.54 21.08-54.15 0.38 0.06 1.13 0.17 1.5 0.23-19.21 61.68-44.03 121.45-68.3 181.28-3.28 7.51-4.72 16.32-10.27 22.64 12.53-51.7 37.16-99.95 55.99-150z"/>
<path id="path130" fill="#f5eb5a" d="m738.8 490.86c14.24-11.89 35.98-9.73 53.24-6.11 5.54 14.7-11.02 26.21-19.15 35.44 0.21-14.1-17.33-31.46-29.91-18.11-0.59 9.33-12.06 0.61-9.57-5.41 1.74-1.99 3.63-3.84 5.39-5.81z"/>
<path id="path132" fill="#e4dcc6" d="m792.05 483.91c2.92 0.04 13.79-2.27 14.83 0.84-13.01 25.04-30.45 47.83-47.47 70.27 3.21-22.6 26.86-33.89 33.24-55.3 2.17-4.63 6.58-14.35-0.6-15.81z"/>
<path id="path134" fill="#efe773" d="m792.05 483.91c7.18 1.46 2.77 11.18 0.6 15.81-6.38 21.41-30.03 32.7-33.24 55.3-18.73 27.25-41.95 50.83-61.69 77.31-5.39-5.94 1.5-15.96-2.88-23.42v-0.81c15.02-1.17 18.76-13.57 26.08-24.38 6.95 2.37 8.11-2.28 11.61-6.6-6.52-15.07 19.23-8.47 15.05-25.41 11.3-5.62 21.61-18.3 25.31-31.52 8.13-9.23 24.69-20.74 19.15-35.44l0.01-0.84z"/>
<path id="path136" fill="#f6ea4e" d="m551.41 486.32c7.99 7.12 9.79 36.89-9.75 33.09-2.63-11.45-2.8-26.97 9.75-33.09z"/>
<path id="path138" fill="#bea96f" d="m698.05 530.09c11.21-15.15 25.08-28.8 40.75-39.23-1.76 1.97-3.65 3.82-5.39 5.81-8.95 10.23-19.03 19.35-29.17 28.36-1.91 1.87-4.04 3.48-6.19 5.06z"/>
<path id="path140" fill="#e0c24e" d="m704.24 525.03c10.14-9.01 20.22-18.13 29.17-28.36-2.49 6.02 8.98 14.74 9.57 5.41 12.58-13.35 30.12 4.01 29.91 18.11-3.7 13.22-14.01 25.9-25.31 31.52 4.18 16.94-21.57 10.34-15.05 25.41-3.5 4.32-4.66 8.97-11.61 6.6-15.53-9.17-15.08-30.04-15.68-45.8-0.48-3.9 3.22-10.68-1-12.89z"/>
<path id="path142" fill="#ece56f" d="m704.24 525.03c4.22 2.21 0.52 8.99 1 12.89-8.08 11.96-28.6 20.96-22.43 37.85-5.32-1.31-12.76-11.27-6.79-16.77 6.6-10.2 16.17-18.27 22.03-28.91 2.15-1.58 4.28-3.19 6.19-5.06z"/>
<path id="path144" fill="#f6e95f" d="m479.22 534.35c8.62 1 4.72 15.68 0.19 20.23-8.06 0.57-14.23 10.51-22.19 6.18-8.81-16.97 8.9-23.11 22-26.41z"/>
<path id="path146" fill="#f9ee4f" d="m682.81 575.77c-6.17-16.89 14.35-25.89 22.43-37.85 0.6 15.76 0.15 36.63 15.68 45.8-7.32 10.81-11.06 23.21-26.08 24.38-2.72-11.16-5.67-22.63-12.03-32.33z"/>
<path id="path148" fill="#faee4f" d="m374.2 544.11c12.51 2.23 28.51 9.43 23.98 25.67 4.86 12.05-9.39 18.61-18.36 18.64-7.37-12.88-6.94-30.26-5.62-44.31z"/>
<path id="path150" fill="#f7ef5b" d="m542.07 578.88c-1.82-12.55 11.47-19.77 20.88-24.86 8.14 4.01 7.34 15.08 1.88 20.87-8.58 16.79-2.74 41.53 19.11 42.19 1.17 4.37 3.59 8.08 7.31 10.69 2.03 5.01-2.41 13.73 2.59 17.3 3.05-2.14 6.07-4.47 8.76-7.06 2.26 14.06 20.76 26.27 6.5 39.92-4.25 4.22-6.66 10.03-12.41 12.9-2.35 0.44-6.98 2.67-7.52-1.02-2.16-15.65-14.24-27.74-27.01-35.85 1.42-5.12 3.57-10.36 2.63-15.77-8.26-7.12-18.78 7.59-26.31 9.24-2.61-22.18 5.72-45.71 3.59-68.55z"/>
<path id="path152" fill="#d4b35d" d="m437.91 567.06c8.09 8.54 12.8-9.52 15.77-11.73 5.21 18.78 4.71 38.47 8.36 57.53-0.65 1.1-1.24 2.23-1.92 3.33-4.25 0.53-7.02 3.25-9.08 6.78-2.7-8.98-17.14 6.87-10.81-5.65-5.65-10.86-7.3 17.64-16.08 5.91-5.35 9.04-3.82 0.36-5.46-3.88 3.4-4.76-4.73-3.86 1.43-8.45 0.23-9.85-9.68-18.76-7.58-29.55 3.19 2.94 10.23 1.16 4.79-2.72 3.04-9.59 14.56-3.49 20.58-11.57z"/>
<path id="path154" fill="#ddbf58" d="m594.01 617.99c36.87-1.74 60.46-33.68 82.01-58.99-5.97 5.5 1.47 15.46 6.79 16.77 6.36 9.7 9.31 21.17 12.03 32.33v0.81c-1.45 2.76-2.19 5.88-0.34 8.67-3.4-2.31-5.06-9.7-9.07-3.44 1.98 9.26-6.29 16.89-11.58 22.71-6.08-3.64-13.51 0.55-17.8-4.69-4.43 1.37 3.82 6.81 2.65 10.51-7.24 1.54-11.85 11.89-15.61 18.31-4.99 4.59-9.51 2.66-9.02-4.96-2.52 2.86-3.3 7.4-1.62 10.91-1.47 5.85-10.02 11.82-14.56 6.05-2.7 2.17-4.81 5.63-8.79 4.95 14.26-13.65-4.24-25.86-6.5-39.92-4.04-6.74 2.22-20.72-8.59-20.02m53.21-23.58c-5.1 4.17-10.52 9.06-15.22 13.81 2.78 9.59 10.23 17.78 10.56 28.18 6.58 0.29 12.72-8.85 15.46-14.35-5.01-8.35-7.21-19.84-10.8-27.64z"/>
<path id="path156" fill="#e6ce61" d="m538.12 583.02c-2.52-3.4 3.29-1.37 3.95-4.14 2.13 22.84-6.2 46.37-3.59 68.55 7.53-1.65 18.05-16.36 26.31-9.24l-0.86-0.02c-5.74-0.23-11.01 3.25-15.91 5.81-15.86 16.03-37.99 24.27-53.65 40.52-2.99 9.28-5.4 20.48-0.15 29.41 18.31 7.21 46.14 4.21 55.48-16.24 7.92-10.04 12.06 14.45 21.81 15.44-2.38 2.69-0.13 4.62 2.36 6.01 0.83 7.95-1.3 13.3-10.28 9.26-10.83 7.7-25.18 10.53-34.25 20.91 1.17 2.96 1.95 6.98-2.71 6.3-5.61-1.48-3.63 8.37-7.76 6.67-4.57-3.66-11.65-4.84-16.32-0.71-12.84 13.01-29.89 20.43-46.38 27.57-8.01 7.68-22.86 5.57-27.44 16.86-9.14-0.6-10.29-10.18-5.98-16.24 20.01-8.24 37.34-24.64 46.83-45.04 1.02-3.15-2.24-4.59-4.33-6.01-0.59-6.24 6.67-11.32 2.88-17.46 6.11 1.53-0.71-6.9-3.4-8.13-13.65 3.84-26.04 10.8-39.65 14.99-5.04 1.8-11.42 3.23-12.21 9.55-15.82-1.85-13.63-29.26-4.22-35.13 7.34 4.97 16.93-3.99 22.78-9.14 10.31-2.78 15.24-17.74 26.65-11.69-0.51-3.48-2.97-7.97 2.35-7.32 7.51-10.5 6.12-24.71 7.04-36.85-3.78-6.82-14.7-12.98-7.35-21.32 0.68-1.1 1.27-2.23 1.92-3.33 6.47-2.98 0.9-13.21 10.01-9.28 3.61 1.87-1.13 2.63-1.88 4.6 3.76 0 6.27-2.38 6.9-5.99 3.71 1.74 7.88 2.46 10.23-1.68 17.99 3.7 24.34-12.6 39.59-17.41 1.5 0.48 2.81 6.1 3.56 2.08-1.68-11.06 10.49 6.08 7.67-2.16m-48.76 21.31c-10.22 5.75-35.2 6.39-26.08 24.58 10.27-0.7 19.91-12.09 30.6-8.6-0.06 20.23-19.57 31.7-28.81 46.98 1.79 13.66-1.97 28.6 2.23 41.56 8.12-2.41 15.84-8.91 22.31-14.33 1.69-19.17 24.54-24.35 32.05-39.23-10.09-14.01-19.51-28.88-25.79-45.11-1.6-2.48-2.52-7.54-6.51-5.85m63.8 94.85c-7.27 12.41-21.08 17.94-34.14 21.54-8.72 0.52-17.01-3.48-25.61-3.28-10.04 22.03-32.2 36.79-36.38 61.56 1.68 4.7 6.5-0.93 9.54-1.43 20.8-15.49 45.13-25.44 67.53-38.48 12.14-6.85 28.36-9.24 34.86-22.96-5-5.67-8.88-13.62-15.8-16.95z"/>
<path id="path158" fill="#f6ec5d" d="m647.22 594.41c3.59 7.8 5.79 19.29 10.8 27.64-2.74 5.5-8.88 14.64-15.46 14.35-0.33-10.4-7.78-18.59-10.56-28.18 4.7-4.75 10.12-9.64 15.22-13.81z"/>
<path id="path160" fill="#f8ef63" d="m489.36 604.33c3.99-1.69 4.91 3.37 6.51 5.85 6.28 16.23 15.7 31.1 25.79 45.11-7.51 14.88-30.36 20.06-32.05 39.23-6.47 5.42-14.19 11.92-22.31 14.33-4.2-12.96-0.44-27.9-2.23-41.56 9.24-15.28 28.75-26.75 28.81-46.98-10.69-3.49-20.33 7.9-30.6 8.6-9.12-18.19 15.86-18.83 26.08-24.58z"/>
<path id="path162" fill="#dfc46b" d="m694.5 617.58c-1.85-2.79-1.11-5.91 0.34-8.67 4.38 7.46-2.51 17.48 2.88 23.42-1.45 2.66-5.28 5.68-7.55 8.39l-0.25-0.68c-5.04-0.42-13.71-3.09-19.57 0.34-1.15 7.66-6.11 13.42-11.11 18.95-4.9 3.53-11.5 4.71-14.05 10.96-2.06 5.4-2.28-5.67-4.98-1.19-1.56 9.14-13.32 5.88-17.59 12.55-8.46 13.73-25.47 20.89-28.89 37.85-13.95 12.59-26.53 27.78-35.44 43.6-25.16 18.45-38.84 47.75-62.3 67.88 6.97-12.71 23.01-25.37 15.15-41.37 7.36 3.67 11.14-8.36 8.2-14.26 7.53-6.9-3.82-4.33-0.47-13.09 4.13 1.7 2.15-8.15 7.76-6.67 4.66 0.68 3.88-3.34 2.71-6.3 9.07-10.38 23.42-13.21 34.25-20.91 8.98 4.04 11.11-1.31 10.28-9.26 5.49-2.45 2.57-9.03 4.61-13.47 4.34-3.22 2.28 8.61 5.83 3.69 2.46-3.38 3.8 1.41 4.33 3.47 7.53-4.73 14.78-14.03 8.05-21.98 5.75-2.87 8.16-8.68 12.41-12.9 3.98 0.68 6.09-2.78 8.79-4.95 4.54 5.77 13.09-0.2 14.56-6.05-1.68-3.51-0.9-8.05 1.62-10.91-0.49 7.62 4.03 9.55 9.02 4.96 3.76-6.42 8.37-16.77 15.61-18.31 1.17-3.7-7.08-9.14-2.65-10.51 4.29 5.24 11.72 1.05 17.8 4.69 5.29-5.82 13.56-13.45 11.58-22.71 4.01-6.26 5.67 1.13 9.07 3.44z"/>
<path id="path164" fill="#f4ee73" d="m583.94 617.08c3.29 1.44 7.17-0.92 10.07 0.91 10.81-0.7 4.55 13.28 8.59 20.02-2.69 2.59-5.71 4.92-8.76 7.06-5-3.57-0.56-12.29-2.59-17.3-3.72-2.61-6.14-6.32-7.31-10.69z"/>
<path id="path166" fill="#e4c95a" d="m394.38 620.39c12.2-3.44 1.96 16.79 13.18 13.98 11.71-2.99 25.82-11.39 36.73-1.53-3.61 12.98-24.87 13.61-32.47 25.03-8.78 3.51-2.11 15.9-4.67 21.63-10.65-6.32 9.31 10.98-4.26 15.43-1.52-11.84-6.66-26.58-12.73-36.21-10.03-12.49 3.57-25.04 4.22-38.33m2.38 17.96c-10.34 0.9-6.4 13.42-3.3 19.61 17.03 4.02 22.02-24.71 3.3-19.61z"/>
<path id="path168" fill="#fbf14f" d="m311.79 633.13c7.8 6.27 19.31 4.1 27.28 9.92 3.72 8.09 1.92 17.52 3.85 26.07 2.91 13.87-14.38 12.91-22.93 17.84-6.44-3.52-4.57-14.76-7.1-21.61 8.78-7.42 7.68-24.62-1.1-32.22z"/>
<path id="path170" fill="#f7ea55" d="m396.76 638.35c18.72-5.1 13.73 23.63-3.3 19.61-3.1-6.19-7.04-18.71 3.3-19.61z"/>
<path id="path172" fill="#423c2f" d="m548.02 643.98c4.9-2.56 10.17-6.04 15.91-5.81-6.75 19.11-9.19 39.64-14.23 59.5-9.34 20.45-37.17 23.45-55.48 16.24-5.25-8.93-2.84-20.13 0.15-29.41 15.66-16.25 37.79-24.49 53.65-40.52m-5.02 19.37c-13.18 11.71-43.4 17.33-37.81 40.32 8.46 4.72 20.4 0.95 28.55-3.91 8.49-9.19 10.67-26.31 9.26-36.41z"/>
<path id="path174" fill="#dfc25a" d="m563.93 638.17l0.86 0.02c0.94 5.41-1.21 10.65-2.63 15.77 12.77 8.11 24.85 20.2 27.01 35.85 0.54 3.69 5.17 1.46 7.52 1.02 6.73 7.95-0.52 17.25-8.05 21.98-0.53-2.06-1.87-6.85-4.33-3.47-3.55 4.92-1.49-6.91-5.83-3.69-2.04 4.44 0.88 11.02-4.61 13.47-2.49-1.39-4.74-3.32-2.36-6.01-9.75-0.99-13.89-25.48-21.81-15.44 5.04-19.86 7.48-40.39 14.23-59.5z"/>
<path id="path176" fill="#efe889" d="m670.35 640.38c5.86-3.43 14.53-0.76 19.57-0.34-12.71 2.25-22.77 17.25-32.92 25.91 0.79-2.2 1.46-4.43 2.24-6.62 5-5.53 9.96-11.29 11.11-18.95z"/>
<path id="path178" fill="#e2dbcb" d="m657 665.95c10.15-8.66 20.21-23.66 32.92-25.91l0.25 0.68c-2.37 8.27-5.71 5.83-8.62 10.92-10.76 8.97-21.33 22.2-33.83 30.48-6.64-2.7 8.26-9.77 8.31-15.06 0.24-0.28 0.73-0.83 0.97-1.11z"/>
<path id="path180" fill="#d6b35b" d="m369.04 667.29c8.65 3.95 13.29-6.46 21.12-8.57 6.07 9.63 11.21 24.37 12.73 36.21-0.94 11.59-3.36 26.15-18.24 24.46-2.55-4.82-5.21 0.17-5.12 3.47-5.3 6.56-22.81 10.26-30.26 3.99 4.37-7.99-11.22-13.06-3.57-19.73-1.3-1.92-3.89-3.49-3.58-6.08 3.92-9.69-0.32-23.56 12.69-27.01 6.18 5.01 7.28-7.79 14.23-6.74z"/>
<path id="path182" fill="#ddc685" d="m645.19 670.29c2.55-6.25 9.15-7.43 14.05-10.96-0.78 2.19-1.45 4.42-2.24 6.62-0.24 0.28-0.73 0.83-0.97 1.11-20.05 14.53-39.3 22.34-55.35 41.79-3.04 18.89-24.4 25.77-30.79 43-15.14 23.05-41.52 40.11-53.8 66.16-29.64 27.83-55.92 58.58-84.98 87.1-12.57 16.53-25.35 33.43-41.26 46.69-1.02-6.53 20.62-16.45 9.84-16.9 13.09-12.58 24.4-27.12 36.72-40.52 14.42-20.32 36.4-33.97 50.16-54.82 3.83-1.99 6.57-5.43 9.42-8.58 23.46-20.13 37.14-49.43 62.3-67.88 8.91-15.82 21.49-31.01 35.44-43.6 3.42-16.96 20.43-24.12 28.89-37.85 4.27-6.67 16.03-3.41 17.59-12.55 2.7-4.48 2.92 6.59 4.98 1.19z"/>
<path id="path184" fill="#cf7839" d="m543 663.35c1.41 10.1-0.77 27.22-9.26 36.41-8.15 4.86-20.09 8.63-28.55 3.91-5.59-22.99 24.63-28.61 37.81-40.32z"/>
<path id="path186" fill="#dbc498" d="m600.68 708.85c16.05-19.45 35.3-27.26 55.35-41.79-0.05 5.29-14.95 12.36-8.31 15.06-24.57 20.07-42.58 49.4-67.7 69.9-20.72 22.47-40.77 46.31-63.93 65.99 12.28-26.05 38.66-43.11 53.8-66.16 6.39-17.23 27.75-24.11 30.79-43z"/>
<path id="path188" fill="#dbbb5c" d="m296.68 688.72c5.81 0.67 8.62 1.95 15.18 0.08-6.67 5.46 0.54 7.46 2.25 0.4 7.87 1.7 3.4 13.17 9.58 17.08 5.09 2.43-3.9 9.48 5.8 7.67-2.37 5.77-3.53 16.52 2.11 19.22-0.87 10.16-15.18 5.26-19.92 0.35-8.37 0.44-16.33-1.74-23.65-5.64-4.86-7.18-5.96-17.65-3.33-26.02 3.68-5.7 9.19-7.3 11.98-13.14z"/>
<path id="path190" fill="#f9f160" d="m553.16 699.18c6.92 3.33 10.8 11.28 15.8 16.95-6.5 13.72-22.72 16.11-34.86 22.96-22.4 13.04-46.73 22.99-67.53 38.48-3.04 0.5-7.86 6.13-9.54 1.43 4.18-24.77 26.34-39.53 36.38-61.56 8.6-0.2 16.89 3.8 25.61 3.28 13.06-3.6 26.87-9.13 34.14-21.54z"/>
<path id="path192" fill="#faf460" d="m202.14 864.14c25.13-49.97 42.26-103.34 62.43-155.36 2.82 10.64 14.58 12.37 20.95 19.75 0.41 13.68 4.63 27.04 4.26 40.73-9.62 7.37-23.22 1.89-31.97 9.67-12.73-14.16-22.36 13.88-22.34 23.42-5.89 19.52-3.26 40.54-4.04 60.81-12.02 2.46-19.32 15.34-33.21 12.93 1.09-4.05 3.27-7.76 3.92-11.95z"/>
<path id="path194" fill="#f9ed59" d="m349.53 733.24c8.92-0.05 13.35 21.75 0.78 18.99-7.19 2.41-19.65 8.42-18.09-5.63-5.56-11.29 10.98-10.3 17.31-13.36z"/>
<path id="path196" fill="#d4b260" d="m403.09 737.3c7.38 7.45 10.87 21.04 12.47 30.02 6.24-0.77 7.6 7.14 9.44 11.64-3.76-0.82-5.28-5.15-4.99-8.6-5.38-0.97-2.92 4.91-3.9 8.22 12.12 5.01 1.98 20.72-8.85 19.83-3.44 6.06-11.85 2.83-15.81 8.42-15.76 8.46-21.38-10.63-25.71-21.13 5.21-1.31 2.15-6.22 1.22-9.67 3.55 6.73 15.48 2.32 8.14-4.75-0.4 9.03-11.33-1.62-4.36-4.68 1.17 10.17 12.89-4.53 4.34-9.72 6.34-6.13 12.92-11.15 18.5-18.66 7.55-5.12 0.85 5.63 5.23 4.35-1.59-4.02 1.92-4.64 4.28-5.27z"/>
<path id="path198" fill="#d7b65d" d="m305.8 763.72c12.26 1.28 15.26-13.31 28.31-6.16-4 9.93 10.07 13.53 9.2 23.27 1.16 4.71 0.41 12.4 7.6 11.7-5.56 1.69-5.29 9.75 0.02 11.65 5.27 5.05-3.6 10.18 1.3 15.68l-0.22 0.76c-9.13 6.71-21.17 3.1-31.49 3.11-13.26 5.08-26.59-10.66-22.76-23.44 3.12-9.68-6.24-17.8-4.27-27.41 3.44-3.73 7.66-7.06 12.31-9.16z"/>
<path id="path200" fill="#fcf14a" d="m264.26 794.07c15.39 4.62 23.23 23.39 38.57 29.04 3.33 6.03 10.3 19.06-1.49 20.34-7.4 2.1-18.53 13.5-25.18 4.09-3.34-17.93-11.4-34.94-11.9-53.47z"/>
<path id="path202" fill="#e5cc6b" d="m363.57 816.2c5.46-0.29 11.34-4.5 17.14-5.07 7.67-0.3 1.41 12.45 8.69 11.59 1.05 3.85-0.31 23.52-7.4 15.72-4.71-0.97-2.47 7.75-6.31 5.87-4.31-3.42-5.03 4.48-8.28 6.06 3.13-4.08-1.26-5.4-3.47-1.65-1.53-7.23-7.09-9.3-8.11-18.47 1.27-3.04 4.47-4.06 7.11-5.55-4.28-3.57-9.3 4.62-10.93-4.08l0.22-0.76c5.7 1.76 6.57-10.32 11.34-3.66z"/>
<path id="path204" fill="#efe06a" d="m440.61 868.19c16.71-7.07 29.81-20.27 45.96-28.63-13.76 20.85-35.74 34.5-50.16 54.82-12.32 13.4-23.63 27.94-36.72 40.52-0.5 0.22-1.52 0.67-2.03 0.89 0.5-3.43-9.58 3.59-6.16-3.93 3.9 5.07 8.44-3.34 11.68-5.71 16.8-21.38 38.56-38.57 53.84-61.13-5.59-2.01-10.64 5.91-17 3.63l0.59-0.46z"/>
<path id="path206" fill="#dbba5a" d="m259.73 856.5c7.47 5.41 8.33-9.92 16.98-2.51 2.48 13.69 10.07 25.39 11.59 39.38 10.56 8.21 4.43 35.77-11.22 27.46-11.83-2.59-23.54-9.63-36.22-10.75-0.32-0.48-0.95-1.45-1.27-1.94 6.68-1.1 7.6-10.34 5.08-16.57-5.41 2.71-10.14-4.85-5.11-7.33-5.8-1.24 3.32-2.95 2.15-6.48-1.86-5.67-0.43-12.02 3.45-16.53 5.63 4.03 9.48-4.32 14.57-4.73z"/>
<path id="path208" fill="#e4c860" d="m168.24 943.93c12.42-26.19 20.75-56.84 33.88-81.42 0.01 0.41 0.01 1.22 0.02 1.63-0.65 4.19-2.83 7.9-3.92 11.95-1.19 7.5 10.51 2.28 9.58 9.98 11.74 11.74 0.24 29.88-12.46 35.11 4.73 6.86 11.53 14.67 6.77 23.54-11.91-5.88-6.11 20.81 2.93 11.76 0.37 5.04-0.43 14.43-0.58 20.94 3.99 1.86 5.87 5.87 5.41 10.18-2.81 5.76-8.93 8.96-14.65 4.95-5.81 9.35-17.58-1.51-23.29 4.76-9.19-0.78-2.31 11.39-2.39 16.69 2.14-2 7.27-6.7 8.2-1.4-3.84 2.2-5.23 11.6 1.01 8.2 1.9 2.5-8.79 15.8 1.29 14.8-1.4 4-3.09 8.9-0.44 12.6 4.42 2.8 8.7-8.8 12.11-1.9 3.75 5.9-2.9 9.1-7.53 5.9-4.32 9.1 13.39 14 15.98 4 1.77 5.7 7.13 8.4 12.72 10.5 1.04-6.9 8.49-3.8 12.97-2.8 4.5-1.1 9.62-13.6 1.18-11.2 8.78-6.7-0.34-19.7 7.1-23.7 3.76 2.5 8.41 1.8 12.56 0.8-4.84 7.3 3.86 8.8 7.27 13.2 4.03-3-2.86-8.6 2.26-11.8 2.63-3.4 17.28-2.4 7.94-6.4-6.82-5.5 4.75-3.4 7.49-7.3 4.23-1.8-0.55 5.7 4.38 2.7 1.24 3.9-3.13 13.4 3.11 6.9 5.25 3.5 7.28 14.1 2.01 18.6-3.41-3.5-8.38 2.3-7.91 5.9 5.74 1.4 10.14-1.2 12.22-6.6 7.6-1.9 24.64-2.9 12.44 9-1.33 2.5-2.08 5.7-4.87 6.9 5.8-10.6-7.28 4.2-11.01 4.9 0.32-3.4 0.92-6.7 1-10.1-9.34 1.5-12.59 12.6-18.22 19-6.03-0.8-16.1 7.5-12.18 14.2-2.76 5.6-16.25 2.6-12.8 9.8-4.6 2.5-11.34 3.7-16.49-3-7.44-4.4 8.42-3.7 4.76-8.8-1.42-4.9-11.89 3.5-9.27-3.1 4.91-0.2 5.98-8.4 0.41-7.7-4.22 3.3-11.69 5.2-12.06 11.3-3.29 5.7-5.78-8.6-7.06-0.6 5.27 5.1 2.33 13.9 7.79 20.1-5.05 1-3.39 5.9-3.21 9.6-4.17 1.3-0.6-8.5-5.46-7.3-1.93 2.9-4.45 13.2-8.41 7.1-4.74-4.6 0.13 8.5-4.65 4.5-2.61-1.1-12.12-6.6-9.04-1 5.03 5.6-6.2 1.3-6.07-2.8-6.83-3.5-2.97-13-5.47-19.4-3.21-1.4-10.39-5.2-10.48 1-8.76-5.7-19.71-4.8-27.64-1.4 4.77-3.5 9.1-14.5 15.25-8.4 3.54-4 0.18-18.3 10.17-20.1 3.58-5.9-5.65-12.3-2.47-18.7 0.08-5.8-8.26 2.7-7.25-4.4 18.38 2.3-3.92-23 11.26-27.1 8.1-0.9 9.89-18.3-0.23-13.5 3.11-3.6-2-8.33 2.9-11 2.61 2.06 6.22 2.52 9.36 1.5-1.14-16.89 1.57-33.09 4.08-49.67 0.78-1.89-0.97-1.81-2.3-1.9m-12.04 87.27c0.63 17.9 1.41 38.3 5.63 56.8 0.15 2.5 3.63 3.4 5.55 2.3 9.42-4.1 21.52-1.6 29.51-8.7-2.91-11.6-11.5-22.6-22.36-28.1-7.27-6.1-10.31-18.3-18.33-22.3z"/>
<path id="path210" fill="#fbf258" d="m440.02 868.65c6.36 2.28 11.41-5.64 17-3.63-15.28 22.56-37.04 39.75-53.84 61.13-3.24 2.37-7.78 10.78-11.68 5.71-0.31-6.25 1.69-13.91-2.19-19.17-4.47-5.71-10.07 6.75-13.57-0.2 1.42-6.4-8.55-15.28 0.07-18.79 22.65-4.75 43.31-15.92 64.21-25.05z"/>
<path id="path212" fill="#fdf457" d="m333.91 906.37c9.86-3.07 13.55 9.1 19.09 14.59 2.02 5.44 10.29 7.17 8.96 13.74-16.25 16.58-40.54 28.19-61.3 36.57-0.48-16.94-4.02-33.93-6.31-51.25 12.38-6.94 26.56-9.29 39.56-13.65z"/>
<path id="path214" fill="#fef344" d="m222.42 909.45c4.87 0.94 10.25 3.77 15.22 0.74 13.64 19.54 12.49 45.47 22.75 66.53 2.86 2.95 1.6 9.6-3.02 9.79-13.83 1.87-27.63 8.04-41.28 8.55-5.38-10.5-5.98-24.54-5.56-36.56-4.59-14.12-3.97-29.9-0.55-44.35 1.81-6.07 8.68-1.91 12.44-4.7z"/>
<path id="path216" fill="#ddbe64" d="m376.21 939.51c-5.35-4.53 14.25-12.33 10.04-3.42-0.45 7.52 8.04 0.97 11.41-0.3 0.51-0.22 1.53-0.67 2.03-0.89 10.78 0.45-10.86 10.37-9.84 16.9-29.25 35.52-61.61 67.6-91.95 102.2 12.2-11.9-4.84-10.9-12.44-9-2.08 5.4-6.48 8-12.22 6.6-0.47-3.6 4.5-9.4 7.91-5.9 5.27-4.5 3.24-15.1-2.01-18.6-6.24 6.5-1.87-3-3.11-6.9-4.93 3-0.15-4.5-4.38-2.7-2.74 3.9-14.31 1.8-7.49 7.3 9.34 4-5.31 3-7.94 6.4-5.12 3.2 1.77 8.8-2.26 11.8-3.41-4.4-12.11-5.9-7.27-13.2 1.06-6.2 5.92-10.7 9.68-15.2 6.15 1.7 15.04 1.7 12.97-7.6-6.04-0.3-1.07-9.92-3.93-14.18 4.66 4.42 5.77-1.93 3.96-5.59 7.27 4.71 7.58-10.46 15.35-8.73 5.04 2.38 8.34-6.06 12.9-2.26 4.38 2.88-0.2 7.8-0.36 11.63 6.32 8.64-9.3 14.33-0.83 24.43 0.88 6.9 5.98-3.7 7.9 1.3 2.4 6.6 15.15 3.2 13.57-4.1 23.28-17.13 40.1-39.43 62.24-57.44 5.44-3.76 3.05-14.94-3.93-12.55z"/>
<path id="path218" fill="#f5ef76" d="m151.99 982.84c2.91-13.51 9.66-27.1 16.25-38.91 1.33 0.09 3.08 0.01 2.3 1.9-2.51 16.58-5.22 32.78-4.08 49.67-3.14 1.02-6.75 0.56-9.36-1.5 4.01-6.61-9.95-0.62-5.11-11.16z"/>
<path id="path220" fill="#e0c46e" d="m122.95 1060.9c9.5-26.3 18.05-52.8 29.04-78.06-4.84 10.54 9.12 4.55 5.11 11.16-4.9 2.67 0.21 7.4-2.9 11 10.12-4.8 8.33 12.6 0.23 13.5-15.18 4.1 7.12 29.4-11.26 27.1-1.01 7.1 7.33-1.4 7.25 4.4-3.18 6.4 6.05 12.8 2.47 18.7-9.99 1.8-6.63 16.1-10.17 20.1-6.15-6.1-10.48 4.9-15.25 8.4-10.18-4.1-3.48 16.6 2.72 15-1.22-10.3 8.72 4.7-1.05 2.4-3.72 8.7 0.95 23.2-7.06 30.5 0.86 4.5 9.61 2.7 7.19 8.5 5.28-1.2 14.17 5.2 6.4 9-10.46-1.9-2.11 10.1-2.39 14.8-4.56 5-9.09 10.3-11.78 16.4-8.78 0 1.49-13.3-5.37-14.6-6.74 3.4 3.84 15.3-5.97 15.7 0.36-6.5 2-12.8 0.6-19.3 7.04 0.6 7.45-3.7 1.51-2 1.52-5.1-3.85-11.4-0.78-15.1 6.27-1-0.85-6.2 4.25-8.9-6.56 4.2-7.64 0.4-4.81-5.6-5.95-0.8-17.41-2-22.98 7 0.72-9.2 6.9-16.7 9.63-25.3 10.96-20.8 12.8-44.8 25.37-64.8z"/>
<path id="path222" fill="#dbba5b" d="m195.22 992.55c5.72 4.01 11.84 0.81 14.65-4.95 0.94 3.3 2.38 6.44 3.93 9.53 2.08 5.27 4.14 10.77 3.6 16.57-1.13 8.1 12.23 12.8 6.23 20.6 5.97 8.5 6.18-20.2 10.5-5.3-7.44 4 1.68 17-7.1 23.7 8.44-2.4 3.32 10.1-1.18 11.2-4.48-1-11.93-4.1-12.97 2.8-5.59-2.1-10.95-4.8-12.72-10.5-2.59 10-20.3 5.1-15.98-4 4.63 3.2 11.28 0 7.53-5.9-3.41-6.9-7.69 4.7-12.11 1.9-2.65-3.7-0.96-8.6 0.44-12.6-10.08 1 0.61-12.3-1.29-14.8-6.24 3.4-4.85-6-1.01-8.2-0.93-5.3-6.06-0.6-8.2 1.4 0.08-5.3-6.8-17.47 2.39-16.69 5.71-6.27 17.48 4.59 23.29-4.76z"/>
<path id="path224" fill="#fcf35d" d="m156.2 1031.2c8.02 4 11.06 16.2 18.33 22.3 10.86 5.5 19.45 16.5 22.36 28.1-7.99 7.1-20.09 4.6-29.51 8.7-1.92 1.1-5.4 0.2-5.55-2.3-4.22-18.5-5-38.9-5.63-56.8z"/>
<path id="path226" fill="#dcbe67" d="m264.8 1074.7c5.63-6.4 8.88-17.5 18.22-19-0.08 3.4-0.68 6.7-1 10.1 3.73-0.7 16.81-15.5 11.01-4.9-25.1 28.5-51.52 55.9-79.08 82 5.3-10.6 17.5-16 23.95-26-6.19 0.8-8.36 8.3-14.74 9.1 3.63-5.5-0.13-25.7-6.19-13.2-3.2-1.6-6.1-3.8-9.07-5.9-5.46-6.2-2.52-15-7.79-20.1 1.28-8 3.77 6.3 7.06 0.6 0.37-6.1 7.84-8 12.06-11.3 5.57-0.7 4.5 7.5-0.41 7.7-2.62 6.6 7.85-1.8 9.27 3.1 3.66 5.1-12.2 4.4-4.76 8.8 5.15 6.7 11.89 5.5 16.49 3-3.45-7.2 10.04-4.2 12.8-9.8-3.92-6.7 6.15-15 12.18-14.2z"/>
<path id="path228" fill="#d8b966" d="m127.47 1097.2c7.93-3.4 18.88-4.3 27.64 1.4 0.09-6.2 7.27-2.4 10.48-1 2.5 6.4-1.36 15.9 5.47 19.4-3.48 1.7-7.29 4.4-11.18 2.3 0.88 3.1 5.22 5.3 3.07 8.7-6.29-3-10.06-5.9-15.72-8.8-3.57 12.9 15.27 9.8 14.23 21.2-5.71 0.2-8.87-14.1-13.57-3.6-7.18-8.3-7.42 3.6-3.03 7.9-11.44 2.5 1.02 12.9-3.31 19.5-10.98-0.2-0.32 16.7-9.88 17.6-2.36 1.5-3.29 6 0.57 3.5 4.41-4.3 10 7.1 11.57-0.5-12.18 1.4-3.99-12.3 2.45-14.5 5.91 1.1 5.39 10.9 9.59 13.5 1.99-3.3 3.52-7.3 1.55-10.9 2.97-4.8 10.35 0.8 13.15-3.5 2.42-5.7-4.49-7-7.72-4.4-2.44-6.7 7.15-9.9 11.25-10.3 0.07 5.9-4.14 16.3 5.96 15.3-7.21-4.8 3.79-13.2 5.18-4.4 2.98-1.9 12.43-17.6 14.77-7.8-17.47 21.6-38.04 40.9-56.13 62-26.41 31.9-63.77 52.8-90.79 84.3-11.66 6.5-16.37 24.4-32.18 22.5-0.6-17.5 8.09-34.1 14.3-49.8-3.51 9.7 9.43 8.7 5.21-1.7 8.64 3.6 7.29-7.2 15.55-4.3-1.53-3-11.44-13.4-3.02-13.5 5.12 2.5 13.59-4.4 14.23 3.4 6.51-1.5 3.69-12.9 8.75-16.7 10.87 9.4 9.91-12.8 13.5-18.7 7.97-4.5-7.01-8.1-0.4-12.3 6.49-6.7 5.86 9.5 12.39 7.8 6.62-1.8 18.23 2.6 15.46-9.5-4.1 2.7-12.7 2.6-7.99-4.6-12.35-1.8-27.39 0-26.82 16-9.04-7.3-16.35 5.1-13.44 14-4.61-2.9-6.32-20.4 3.14-19.7-2.25-4.4-0.81-11.1 2.4-14 4.66-1.6 2.43 6 6.62 4.8-6.09-12.8 14.94-12 9.23-25.7-1.88-7.4 4.63 0.5 7.85-2.9 8.56-0.5 3.02-14.1 1.83-15.8 8.68 6 8.95-7.3 4.33-11.8-4.45-10.6-13.63-0.1-17.91 4.6 0.39-1.8 0.77-3.7 1.85-5.2 5.57-9 17.03-7.8 22.98-7-2.83 6-1.75 9.8 4.81 5.6-5.1 2.7 2.02 7.9-4.25 8.9-3.07 3.7 2.3 10 0.78 15.1 5.94-1.7 5.53 2.6-1.51 2 1.4 6.5-0.24 12.8-0.6 19.3 9.81-0.4-0.77-12.3 5.97-15.7 6.86 1.3-3.41 14.6 5.37 14.6 2.69-6.1 7.22-11.4 11.78-16.4 0.28-4.7-8.07-16.7 2.39-14.8 7.77-3.8-1.12-10.2-6.4-9 2.42-5.8-6.33-4-7.19-8.5 8.01-7.3 3.34-21.8 7.06-30.5 9.77 2.3-0.17-12.7 1.05-2.4-6.2 1.6-12.9-19.1-2.72-15z"/>
<path id="path230" fill="#d5b05d" d="m204.69 1116.5c-0.18-3.7-1.84-8.6 3.21-9.6 2.97 2.1 5.87 4.3 9.07 5.9 6.06-12.5 9.82 7.7 6.19 13.2 6.38-0.8 8.55-8.3 14.74-9.1-6.45 10-18.65 15.4-23.95 26-4.52 4.9-7.83 11.8-13.96 14.9-2.34-9.8-11.79 5.9-14.77 7.8-1.39-8.8-12.39-0.4-5.18 4.4-10.1 1-5.89-9.4-5.96-15.3-4.1 0.4-13.69 3.6-11.25 10.3 3.23-2.6 10.14-1.3 7.72 4.4-2.8 4.3-10.18-1.3-13.15 3.5 1.97 3.6 0.44 7.6-1.55 10.9-4.2-2.6-3.68-12.4-9.59-13.5-6.44 2.2-14.63 15.9-2.45 14.5-1.57 7.6-7.16-3.8-11.57 0.5-3.86 2.5-2.93-2-0.57-3.5 9.56-0.9-1.1-17.8 9.88-17.6 4.33-6.6-8.13-17 3.31-19.5-4.39-4.3-4.15-16.2 3.03-7.9 4.7-10.5 7.86 3.8 13.57 3.6 1.04-11.4-17.8-8.3-14.23-21.2 5.66 2.9 9.43 5.8 15.72 8.8 2.15-3.4-2.19-5.6-3.07-8.7 3.89 2.1 7.7-0.6 11.18-2.3-0.13 4.1 11.1 8.4 6.07 2.8-3.08-5.6 6.43-0.1 9.04 1 4.78 4-0.09-9.1 4.65-4.5 3.96 6.1 6.48-4.2 8.41-7.1 4.86-1.2 1.29 8.6 5.46 7.3z"/>
<path id="path232" fill="#d7b456" d="m86.1 1156.2c4.28-4.7 13.46-15.2 17.91-4.6 4.62 4.5 4.35 17.8-4.33 11.8 1.19 1.7 6.73 15.3-1.83 15.8-3.22 3.4-9.73-4.5-7.85 2.9 5.71 13.7-15.32 12.9-9.23 25.7-4.19 1.2-1.96-6.4-6.62-4.8-3.21 2.9-4.65 9.6-2.4 14-9.46-0.7-7.75 16.8-3.14 19.7-2.91-8.9 4.4-21.3 13.44-14-0.57-16 14.47-17.8 26.82-16-4.71 7.2 3.89 7.3 7.99 4.6 2.77 12.1-8.84 7.7-15.46 9.5-6.53 1.7-5.9-14.5-12.39-7.8-6.61 4.2 8.37 7.8 0.4 12.3-3.59 5.9-2.63 28.1-13.5 18.7-5.06 3.8-2.24 15.2-8.75 16.7-0.64-7.8-9.11-0.9-14.23-3.4-8.42 0.1 1.49 10.5 3.02 13.5-8.26-2.9-6.91 7.9-15.55 4.3 4.22 10.4-8.72 11.4-5.21 1.7 3.36-18.4 17.32-32.4 19.43-51.1 5.28-17 14.65-32.6 20.32-49.3 6.44-2.4 9.19-13 11.16-20.2z"/>
</g>
</svg>
